{
.appVersion = "939";
copyright = "Copyright 2012 Google Inc. All Rights Reserved.";
customParameters = (
{
name = description;
value = "Data unhinted.";
},
{
name = license;
value = "This Font Software is licensed under the SIL Open Font License, Version 1.1. This Font Software is distributed on an \"AS IS\" BASIS, WITHOUT WARRANTIES OR CONDITIONS OF ANY KIND, either express or implied. See the SIL Open Font License for the specific language, permissions and limitations governing your use of this Font Software.";
},
{
name = licenseURL;
value = "http://scripts.sil.org/OFL";
},
{
name = vendorID;
value = GOOG;
},
{
name = panose;
value = (
2,
0,
0,
0,
0,
0,
0,
0,
0,
0
);
},
{
name = unicodeRanges;
value = (
0,
1,
7
);
},
{
name = glyphOrder;
value = (
.notdef,
null,
nonmarkingreturn,
space,
exclam,
quotedbl,
numbersign,
dollar,
percent,
ampersand,
quotesingle,
parenleft,
parenright,
asterisk,
plus,
comma,
hyphen,
period,
slash,
zero,
one,
two,
three,
four,
five,
six,
seven,
eight,
nine,
colon,
semicolon,
less,
equal,
greater,
question,
at,
uniAA00,
uniAA01,
uniAA02,
uniAA03,
uniAA04,
uniAA05,
uniAA06,
uniAA07,
uniAA08,
uniAA09,
uniAA0A,
uniAA0B,
uniAA0C,
uniAA0D,
uniAA0E,
uniAA0F,
uniAA10,
uniAA11,
uniAA12,
uniAA13,
uniAA14,
uniAA15,
uniAA16,
uniAA17,
uniAA18,
uniAA19,
uniAA1A,
uniAA1B,
uniAA1C,
uniAA1D,
uniAA1E,
uniAA1F,
uniAA20,
uniAA21,
uniAA22,
uniAA23,
uniAA24,
uniAA25,
uniAA26,
uniAA27,
uniAA28,
uniAA29,
uniAA2A,
uniAA2B,
uniAA2C,
uniAA2D,
uniAA2E,
uniAA2F,
uniAA30,
uniAA31,
uniAA32,
uniAA33,
uniAA34,
uniAA35,
uniAA36,
uniAA40,
uniAA41,
uniAA42,
uniAA43,
uniAA44,
uniAA45,
uniAA46,
uniAA47,
uniAA48,
uniAA49,
uniAA4A,
uniAA4B,
uniAA4C,
uniAA4D,
uniAA50,
uniAA51,
uniAA52,
uniAA53,
uniAA54,
uniAA55,
uniAA56,
uniAA57,
uniAA58,
uniAA59,
uniAA5C,
uniAA5D,
uniAA5E,
uniAA5F,
_119,
_120,
_121,
_122,
_123,
_124,
_125,
_126
);
}
);
date = "2008-03-04 15:35:39 +0000";
designer = "Danh Hong";
designerURL = "http://www.khmertype.org";
disablesNiceNames = 1;

glyphs = (
{
glyphname = .notdef;
lastChange = "2016-12-13 16:41:45 +0000";
layers = (
{
layerId = "2D060796-9665-4FEC-A6D6-D718506F2B5F";
paths = (
{
closed = 1;
nodes = (
"1280 0 LINE",
"1280 1280 LINE",
"256 1280 LINE",
"256 0 LINE"
);
},
{
closed = 1;
nodes = (
"288 1248 LINE",
"1248 1248 LINE",
"1248 32 LINE",
"288 32 LINE"
);
}
);
width = 1536;
},
{
layerId = "B424D511-FB10-4699-AE11-5105CBAA4600";
paths = (
{
closed = 1;
nodes = (
"1280 0 LINE",
"1280 1280 LINE",
"256 1280 LINE",
"256 0 LINE"
);
},
{
closed = 1;
nodes = (
"288 1248 LINE",
"1248 1248 LINE",
"1248 32 LINE",
"288 32 LINE"
);
}
);
width = 1536;
}
);
note = .notdef;
},
{
glyphname = exclam;
lastChange = "2016-12-13 16:41:45 +0000";
layers = (
{
layerId = "2D060796-9665-4FEC-A6D6-D718506F2B5F";
paths = (
{
closed = 1;
nodes = (
"336 414 LINE",
"387 1462 LINE",
"164 1462 LINE",
"215 414 LINE"
);
},
{
closed = 1;
nodes = (
"344 -29 OFFCURVE",
"401 12 OFFCURVE",
"401 111 CURVE SMOOTH",
"401 212 OFFCURVE",
"344 250 OFFCURVE",
"274 250 CURVE SMOOTH",
"203 250 OFFCURVE",
"147 212 OFFCURVE",
"147 111 CURVE SMOOTH",
"147 12 OFFCURVE",
"203 -29 OFFCURVE",
"274 -29 CURVE SMOOTH"
);
}
);
width = 551;
},
{
layerId = "B424D511-FB10-4699-AE11-5105CBAA4600";
paths = (
{
closed = 1;
nodes = (
"467 1462 LINE",
"121 1462 LINE",
"172 485 LINE",
"416 485 LINE"
);
},
{
closed = 1;
nodes = (
"117 23 OFFCURVE",
"194 -27 OFFCURVE",
"293 -27 CURVE SMOOTH",
"386 -27 OFFCURVE",
"467 23 OFFCURVE",
"467 143 CURVE SMOOTH",
"467 268 OFFCURVE",
"386 313 OFFCURVE",
"293 313 CURVE SMOOTH",
"194 313 OFFCURVE",
"117 268 OFFCURVE",
"117 143 CURVE SMOOTH"
);
}
);
width = 586;
}
);
note = exclam;
unicode = 0021;
},
{
glyphname = quotedbl;
lastChange = "2016-12-13 16:41:45 +0000";
layers = (
{
layerId = "2D060796-9665-4FEC-A6D6-D718506F2B5F";
paths = (
{
closed = 1;
nodes = (
"289 934 LINE",
"330 1462 LINE",
"133 1462 LINE",
"174 934 LINE"
);
},
{
closed = 1;
nodes = (
"649 934 LINE",
"690 1462 LINE",
"494 1462 LINE",
"535 934 LINE"
);
}
);
width = 823;
},
{
layerId = "B424D511-FB10-4699-AE11-5105CBAA4600";
paths = (
{
closed = 1;
nodes = (
"133 1462 LINE",
"174 934 LINE",
"371 934 LINE",
"412 1462 LINE"
);
},
{
closed = 1;
nodes = (
"555 1462 LINE",
"596 934 LINE",
"793 934 LINE",
"834 1462 LINE"
);
}
);
width = 967;
}
);
note = quotedbl;
unicode = 0022;
},
{
glyphname = numbersign;
lastChange = "2016-12-13 16:41:45 +0000";
layers = (
{
layerId = "2D060796-9665-4FEC-A6D6-D718506F2B5F";
paths = (
{
closed = 1;
nodes = (
"375 0 LINE",
"457 428 LINE",
"748 428 LINE",
"664 0 LINE",
"811 0 LINE",
"893 428 LINE",
"1200 428 LINE",
"1200 565 LINE",
"920 565 LINE",
"983 893 LINE",
"1272 893 LINE",
"1272 1030 LINE",
"1010 1030 LINE",
"1094 1462 LINE",
"950 1462 LINE",
"866 1030 LINE",
"573 1030 LINE",
"655 1462 LINE",
"508 1462 LINE",
"426 1030 LINE",
"127 1030 LINE",
"127 893 LINE",
"401 893 LINE",
"336 565 LINE",
"51 565 LINE",
"51 428 LINE",
"309 428 LINE",
"231 0 LINE"
);
},
{
closed = 1;
nodes = (
"547 893 LINE",
"838 893 LINE",
"774 565 LINE",
"483 565 LINE"
);
}
);
width = 1323;
},
{
layerId = "B424D511-FB10-4699-AE11-5105CBAA4600";
paths = (
{
closed = 1;
nodes = (
"1278 844 LINE",
"1278 1053 LINE",
"1038 1053 LINE",
"1116 1460 LINE",
"901 1460 LINE",
"823 1053 LINE",
"625 1053 LINE",
"702 1460 LINE",
"483 1460 LINE",
"406 1053 LINE",
"117 1053 LINE",
"117 844 LINE",
"369 844 LINE",
"322 612 LINE",
"45 612 LINE",
"45 406 LINE",
"283 406 LINE",
"209 0 LINE",
"424 0 LINE",
"500 406 LINE",
"694 406 LINE",
"616 0 LINE",
"836 0 LINE",
"913 406 LINE",
"1210 406 LINE",
"1210 612 LINE",
"952 612 LINE",
"999 844 LINE"
);
},
{
closed = 1;
nodes = (
"586 844 LINE",
"782 844 LINE",
"735 612 LINE",
"539 612 LINE"
);
}
);
width = 1323;
}
);
note = numbersign;
unicode = 0023;
},
{
glyphname = dollar;
lastChange = "2016-12-13 16:41:45 +0000";
layers = (
{
layerId = "2D060796-9665-4FEC-A6D6-D718506F2B5F";
paths = (
{
closed = 1;
nodes = (
"625 -119 LINE",
"625 111 LINE",
"848 143 OFFCURVE",
"985 258 OFFCURVE",
"985 446 CURVE SMOOTH",
"985 638 OFFCURVE",
"861 722 OFFCURVE",
"625 805 CURVE",
"625 1227 LINE",
"724 1219 OFFCURVE",
"820 1188 OFFCURVE",
"895 1155 CURVE",
"961 1300 LINE",
"872 1341 OFFCURVE",
"758 1371 OFFCURVE",
"625 1378 CURVE",
"625 1554 LINE",
"487 1554 LINE",
"487 1374 LINE",
"275 1350 OFFCURVE",
"139 1230 OFFCURVE",
"139 1051 CURVE SMOOTH",
"139 854 OFFCURVE",
"250 766 OFFCURVE",
"487 686 CURVE",
"487 252 LINE",
"361 252 OFFCURVE",
"211 301 OFFCURVE",
"123 344 CURVE",
"123 172 LINE",
"208 127 OFFCURVE",
"354 102 OFFCURVE",
"487 102 CURVE",
"487 -119 LINE"
);
},
{
closed = 1;
nodes = (
"625 635 LINE",
"760 587 OFFCURVE",
"809 536 OFFCURVE",
"809 446 CURVE SMOOTH",
"809 350 OFFCURVE",
"749 281 OFFCURVE",
"625 262 CURVE"
);
},
{
closed = 1;
nodes = (
"356 899 OFFCURVE",
"315 953 OFFCURVE",
"315 1049 CURVE SMOOTH",
"315 1141 OFFCURVE",
"368 1202 OFFCURVE",
"487 1223 CURVE",
"487 854 LINE"
);
}
);
width = 1128;
},
{
layerId = "B424D511-FB10-4699-AE11-5105CBAA4600";
paths = (
{
closed = 1;
nodes = (
"645 -119 LINE",
"645 86 LINE",
"918 113 OFFCURVE",
"1061 256 OFFCURVE",
"1061 457 CURVE SMOOTH",
"1061 659 OFFCURVE",
"938 754 OFFCURVE",
"684 848 CURVE SMOOTH",
"645 862 LINE",
"645 1155 LINE",
"728 1148 OFFCURVE",
"826 1118 OFFCURVE",
"913 1083 CURVE",
"1014 1317 LINE",
"881 1374 OFFCURVE",
"761 1398 OFFCURVE",
"645 1405 CURVE",
"645 1556 LINE",
"508 1556 LINE",
"508 1399 LINE",
"255 1375 OFFCURVE",
"98 1244 OFFCURVE",
"98 1044 CURVE SMOOTH",
"98 851 OFFCURVE",
"219 746 OFFCURVE",
"461 653 CURVE SMOOTH",
"491 642 LINE",
"497 639 OFFCURVE",
"503 637 OFFCURVE",
"508 635 CURVE",
"508 317 LINE",
"370 325 OFFCURVE",
"211 377 OFFCURVE",
"100 432 CURVE",
"100 168 LINE",
"216 117 OFFCURVE",
"331 87 OFFCURVE",
"508 82 CURVE",
"508 -119 LINE"
);
},
{
closed = 1;
nodes = (
"645 580 LINE",
"727 543 OFFCURVE",
"760 515 OFFCURVE",
"760 451 CURVE SMOOTH",
"760 379 OFFCURVE",
"724 340 OFFCURVE",
"645 328 CURVE"
);
},
{
closed = 1;
nodes = (
"432 948 OFFCURVE",
"399 988 OFFCURVE",
"399 1051 CURVE SMOOTH",
"399 1115 OFFCURVE",
"436 1145 OFFCURVE",
"508 1153 CURVE",
"508 920 LINE"
);
}
);
width = 1128;
}
);
note = dollar;
unicode = 0024;
},
{
glyphname = percent;
lastChange = "2016-12-13 16:41:45 +0000";
layers = (
{
layerId = "2D060796-9665-4FEC-A6D6-D718506F2B5F";
paths = (
{
closed = 1;
nodes = (
"520 0 LINE",
"1331 1462 LINE",
"1174 1462 LINE",
"362 0 LINE"
);
},
{
closed = 1;
nodes = (
"612 565 OFFCURVE",
"705 737 OFFCURVE",
"705 1026 CURVE SMOOTH",
"705 1314 OFFCURVE",
"600 1483 OFFCURVE",
"401 1483 CURVE SMOOTH",
"193 1483 OFFCURVE",
"102 1314 OFFCURVE",
"102 1026 CURVE SMOOTH",
"102 737 OFFCURVE",
"205 565 OFFCURVE",
"401 565 CURVE SMOOTH"
);
},
{
closed = 1;
nodes = (
"294 696 OFFCURVE",
"250 806 OFFCURVE",
"250 1026 CURVE SMOOTH",
"250 1246 OFFCURVE",
"294 1354 OFFCURVE",
"401 1354 CURVE SMOOTH",
"505 1354 OFFCURVE",
"557 1245 OFFCURVE",
"557 1026 CURVE SMOOTH",
"557 806 OFFCURVE",
"505 696 OFFCURVE",
"401 696 CURVE SMOOTH"
);
},
{
closed = 1;
nodes = (
"1496 -20 OFFCURVE",
"1587 152 OFFCURVE",
"1587 440 CURVE SMOOTH",
"1587 728 OFFCURVE",
"1483 897 OFFCURVE",
"1284 897 CURVE SMOOTH",
"1076 897 OFFCURVE",
"985 728 OFFCURVE",
"985 440 CURVE SMOOTH",
"985 152 OFFCURVE",
"1087 -20 OFFCURVE",
"1284 -20 CURVE SMOOTH"
);
},
{
closed = 1;
nodes = (
"1177 111 OFFCURVE",
"1133 220 OFFCURVE",
"1133 440 CURVE SMOOTH",
"1133 660 OFFCURVE",
"1177 768 OFFCURVE",
"1284 768 CURVE SMOOTH",
"1388 768 OFFCURVE",
"1440 659 OFFCURVE",
"1440 440 CURVE SMOOTH",
"1440 221 OFFCURVE",
"1388 111 OFFCURVE",
"1284 111 CURVE SMOOTH"
);
}
);
width = 1690;
},
{
layerId = "B424D511-FB10-4699-AE11-5105CBAA4600";
paths = (
{
closed = 1;
nodes = (
"614 0 LINE",
"1425 1462 LINE",
"1186 1462 LINE",
"375 0 LINE"
);
},
{
closed = 1;
nodes = (
"651 565 OFFCURVE",
"758 737 OFFCURVE",
"758 1026 CURVE SMOOTH",
"758 1314 OFFCURVE",
"637 1483 OFFCURVE",
"408 1483 CURVE SMOOTH",
"168 1483 OFFCURVE",
"63 1314 OFFCURVE",
"63 1026 CURVE SMOOTH",
"63 737 OFFCURVE",
"181 565 OFFCURVE",
"408 565 CURVE SMOOTH"
);
},
{
closed = 1;
nodes = (
"343 772 OFFCURVE",
"315 855 OFFCURVE",
"315 1024 CURVE SMOOTH",
"315 1193 OFFCURVE",
"343 1274 OFFCURVE",
"410 1274 CURVE SMOOTH",
"474 1274 OFFCURVE",
"506 1191 OFFCURVE",
"506 1024 CURVE SMOOTH",
"506 853 OFFCURVE",
"475 772 OFFCURVE",
"410 772 CURVE SMOOTH"
);
},
{
closed = 1;
nodes = (
"1634 -18 OFFCURVE",
"1741 154 OFFCURVE",
"1741 442 CURVE SMOOTH",
"1741 730 OFFCURVE",
"1620 899 OFFCURVE",
"1391 899 CURVE SMOOTH",
"1151 899 OFFCURVE",
"1047 730 OFFCURVE",
"1047 442 CURVE SMOOTH",
"1047 154 OFFCURVE",
"1165 -18 OFFCURVE",
"1391 -18 CURVE SMOOTH"
);
},
{
closed = 1;
nodes = (
"1326 188 OFFCURVE",
"1298 271 OFFCURVE",
"1298 440 CURVE SMOOTH",
"1298 609 OFFCURVE",
"1326 690 OFFCURVE",
"1393 690 CURVE SMOOTH",
"1457 690 OFFCURVE",
"1489 607 OFFCURVE",
"1489 440 CURVE SMOOTH",
"1489 269 OFFCURVE",
"1458 188 OFFCURVE",
"1393 188 CURVE SMOOTH"
);
}
);
width = 1804;
}
);
note = percent;
unicode = 0025;
},
{
glyphname = ampersand;
lastChange = "2016-12-13 16:41:45 +0000";
layers = (
{
layerId = "2D060796-9665-4FEC-A6D6-D718506F2B5F";
paths = (
{
closed = 1;
nodes = (
"763 -20 OFFCURVE",
"882 53 OFFCURVE",
"1012 172 CURVE",
"1180 0 LINE",
"1405 0 LINE",
"1128 293 LINE",
"1231 402 OFFCURVE",
"1301 518 OFFCURVE",
"1341 694 CURVE",
"1157 694 LINE",
"1130 569 OFFCURVE",
"1087 489 OFFCURVE",
"1016 412 CURVE",
"664 784 LINE",
"823 879 OFFCURVE",
"967 993 OFFCURVE",
"967 1165 CURVE SMOOTH",
"967 1366 OFFCURVE",
"835 1485 OFFCURVE",
"614 1485 CURVE SMOOTH",
"379 1485 OFFCURVE",
"244 1366 OFFCURVE",
"244 1165 CURVE SMOOTH",
"244 1012 OFFCURVE",
"325 906 OFFCURVE",
"408 809 CURVE",
"219 697 OFFCURVE",
"109 589 OFFCURVE",
"109 381 CURVE SMOOTH",
"109 125 OFFCURVE",
"276 -20 OFFCURVE",
"557 -20 CURVE SMOOTH"
);
},
{
closed = 1;
nodes = (
"394 141 OFFCURVE",
"299 242 OFFCURVE",
"299 387 CURVE SMOOTH",
"299 535 OFFCURVE",
"375 608 OFFCURVE",
"514 696 CURVE",
"901 289 LINE",
"816 206 OFFCURVE",
"712 141 OFFCURVE",
"557 141 CURVE SMOOTH"
);
},
{
closed = 1;
nodes = (
"463 996 OFFCURVE",
"422 1073 OFFCURVE",
"422 1165 CURVE SMOOTH",
"422 1273 OFFCURVE",
"493 1335 OFFCURVE",
"608 1335 CURVE SMOOTH",
"719 1335 OFFCURVE",
"788 1265 OFFCURVE",
"788 1169 CURVE SMOOTH",
"788 1058 OFFCURVE",
"715 990 OFFCURVE",
"559 897 CURVE"
);
}
);
width = 1438;
},
{
layerId = "B424D511-FB10-4699-AE11-5105CBAA4600";
paths = (
{
closed = 1;
nodes = (
"1192 291 LINE",
"1308 444 OFFCURVE",
"1375 631 OFFCURVE",
"1415 784 CURVE",
"1098 784 LINE",
"1073 685 OFFCURVE",
"1038 586 OFFCURVE",
"991 498 CURVE",
"731 766 LINE",
"888 859 OFFCURVE",
"1014 982 OFFCURVE",
"1014 1165 CURVE SMOOTH",
"1014 1369 OFFCURVE",
"846 1483 OFFCURVE",
"618 1483 CURVE SMOOTH",
"378 1483 OFFCURVE",
"207 1356 OFFCURVE",
"207 1149 CURVE SMOOTH",
"207 1029 OFFCURVE",
"242 931 OFFCURVE",
"344 807 CURVE",
"184 711 OFFCURVE",
"82 600 OFFCURVE",
"82 395 CURVE SMOOTH",
"82 147 OFFCURVE",
"293 -20 OFFCURVE",
"612 -20 CURVE SMOOTH",
"767 -20 OFFCURVE",
"894 27 OFFCURVE",
"1001 100 CURVE",
"1098 0 LINE",
"1475 0 LINE"
);
},
{
closed = 1;
nodes = (
"403 508 OFFCURVE",
"442 569 OFFCURVE",
"510 625 CURVE",
"819 295 LINE",
"762 258 OFFCURVE",
"694 236 OFFCURVE",
"614 236 CURVE SMOOTH",
"494 236 OFFCURVE",
"403 307 OFFCURVE",
"403 424 CURVE SMOOTH"
);
},
{
closed = 1;
nodes = (
"731 1044 OFFCURVE",
"678 991 OFFCURVE",
"575 932 CURVE",
"522 993 OFFCURVE",
"489 1053 OFFCURVE",
"489 1122 CURVE SMOOTH",
"489 1210 OFFCURVE",
"557 1239 OFFCURVE",
"616 1239 CURVE SMOOTH",
"672 1239 OFFCURVE",
"731 1206 OFFCURVE",
"731 1124 CURVE SMOOTH"
);
}
);
width = 1479;
}
);
note = ampersand;
unicode = 0026;
},
{
glyphname = quotesingle;
lastChange = "2016-12-13 16:41:45 +0000";
layers = (
{
layerId = "2D060796-9665-4FEC-A6D6-D718506F2B5F";
paths = (
{
closed = 1;
nodes = (
"289 934 LINE",
"330 1462 LINE",
"133 1462 LINE",
"174 934 LINE"
);
}
);
width = 463;
},
{
layerId = "B424D511-FB10-4699-AE11-5105CBAA4600";
paths = (
{
closed = 1;
nodes = (
"133 1462 LINE",
"174 934 LINE",
"371 934 LINE",
"412 1462 LINE"
);
}
);
width = 545;
}
);
note = quotesingle;
unicode = 0027;
},
{
glyphname = parenleft;
lastChange = "2016-12-13 16:41:45 +0000";
layers = (
{
layerId = "2D060796-9665-4FEC-A6D6-D718506F2B5F";
paths = (
{
closed = 1;
nodes = (
"553 -324 LINE",
"369 -73 OFFCURVE",
"270 246 OFFCURVE",
"270 563 CURVE SMOOTH",
"270 888 OFFCURVE",
"368 1205 OFFCURVE",
"555 1462 CURVE",
"383 1462 LINE",
"176 1215 OFFCURVE",
"82 894 OFFCURVE",
"82 561 CURVE SMOOTH",
"82 231 OFFCURVE",
"176 -85 OFFCURVE",
"383 -324 CURVE"
);
}
);
width = 616;
},
{
layerId = "B424D511-FB10-4699-AE11-5105CBAA4600";
paths = (
{
closed = 1;
nodes = (
"82 231 OFFCURVE",
"176 -85 OFFCURVE",
"383 -324 CURVE",
"631 -324 LINE",
"446 -72 OFFCURVE",
"348 246 OFFCURVE",
"348 563 CURVE SMOOTH",
"348 888 OFFCURVE",
"445 1205 OFFCURVE",
"633 1462 CURVE",
"383 1462 LINE",
"176 1215 OFFCURVE",
"82 894 OFFCURVE",
"82 561 CURVE SMOOTH"
);
}
);
width = 694;
}
);
note = parenleft;
unicode = 0028;
},
{
glyphname = parenright;
lastChange = "2016-12-13 16:41:45 +0000";
layers = (
{
layerId = "2D060796-9665-4FEC-A6D6-D718506F2B5F";
paths = (
{
closed = 1;
nodes = (
"233 -324 LINE",
"440 -85 OFFCURVE",
"535 231 OFFCURVE",
"535 561 CURVE SMOOTH",
"535 894 OFFCURVE",
"440 1215 OFFCURVE",
"233 1462 CURVE",
"61 1462 LINE",
"249 1205 OFFCURVE",
"346 888 OFFCURVE",
"346 563 CURVE SMOOTH",
"346 246 OFFCURVE",
"248 -72 OFFCURVE",
"63 -324 CURVE"
);
}
);
width = 616;
},
{
layerId = "B424D511-FB10-4699-AE11-5105CBAA4600";
paths = (
{
closed = 1;
nodes = (
"612 894 OFFCURVE",
"518 1215 OFFCURVE",
"311 1462 CURVE",
"61 1462 LINE",
"249 1205 OFFCURVE",
"346 888 OFFCURVE",
"346 563 CURVE SMOOTH",
"346 246 OFFCURVE",
"248 -72 OFFCURVE",
"63 -324 CURVE",
"311 -324 LINE",
"518 -85 OFFCURVE",
"612 231 OFFCURVE",
"612 561 CURVE SMOOTH"
);
}
);
width = 694;
}
);
note = parenright;
unicode = 0029;
},
{
glyphname = asterisk;
lastChange = "2016-12-13 16:41:45 +0000";
layers = (
{
layerId = "2D060796-9665-4FEC-A6D6-D718506F2B5F";
paths = (
{
closed = 1;
nodes = (
"557 989 LINE",
"733 631 LINE",
"911 727 LINE",
"666 1053 LINE",
"1044 1081 LINE",
"1018 1274 LINE",
"621 1163 LINE",
"664 1556 LINE",
"459 1556 LINE",
"502 1163 LINE",
"111 1274 LINE",
"82 1081 LINE",
"457 1053 LINE",
"215 727 LINE",
"399 631 LINE"
);
}
);
width = 1128;
},
{
layerId = "B424D511-FB10-4699-AE11-5105CBAA4600";
paths = (
{
closed = 1;
nodes = (
"426 1556 LINE",
"467 1188 LINE",
"102 1292 LINE",
"63 1042 LINE",
"401 1016 LINE",
"180 719 LINE",
"416 600 LINE",
"553 911 LINE",
"709 598 LINE",
"936 719 LINE",
"713 1016 LINE",
"1053 1040 LINE",
"1020 1292 LINE",
"647 1188 LINE",
"688 1556 LINE"
);
}
);
width = 1116;
}
);
note = asterisk;
unicode = 002A;
},
{
glyphname = plus;
lastChange = "2016-12-13 16:41:45 +0000";
layers = (
{
layerId = "2D060796-9665-4FEC-A6D6-D718506F2B5F";
paths = (
{
closed = 1;
nodes = (
"639 262 LINE",
"639 647 LINE",
"1026 647 LINE",
"1026 797 LINE",
"639 797 LINE",
"639 1186 LINE",
"489 1186 LINE",
"489 797 LINE",
"102 797 LINE",
"102 647 LINE",
"489 647 LINE",
"489 262 LINE"
);
}
);
width = 1128;
},
{
layerId = "B424D511-FB10-4699-AE11-5105CBAA4600";
paths = (
{
closed = 1;
nodes = (
"455 248 LINE",
"674 248 LINE",
"674 612 LINE",
"1040 612 LINE",
"1040 831 LINE",
"674 831 LINE",
"674 1200 LINE",
"455 1200 LINE",
"455 831 LINE",
"88 831 LINE",
"88 612 LINE",
"455 612 LINE"
);
}
);
width = 1128;
}
);
note = plus;
unicode = 002B;
},
{
glyphname = comma;
lastChange = "2016-12-13 16:43:56 +0000";
layers = (
{
layerId = "2D060796-9665-4FEC-A6D6-D718506F2B5F";
paths = (
{
closed = 1;
nodes = (
"201 -264 LINE",
"268 -114 OFFCURVE",
"339 70 OFFCURVE",
"377 215 CURVE",
"362 238 LINE",
"164 238 LINE",
"143 96 OFFCURVE",
"103 -102 OFFCURVE",
"63 -264 CURVE"
);
}
);
width = 512;
},
{
layerId = "B424D511-FB10-4699-AE11-5105CBAA4600";
paths = (
{
closed = 1;
nodes = (
"283 -264 LINE",
"350 -114 OFFCURVE",
"421 70 OFFCURVE",
"459 215 CURVE",
"444 238 LINE",
"164 238 LINE",
"143 96 OFFCURVE",
"103 -102 OFFCURVE",
"63 -264 CURVE"
);
}
);
width = 594;
}
);
note = comma;
unicode = 002C;
},
{
glyphname = hyphen;
lastChange = "2016-12-13 16:41:45 +0000";
layers = (
{
layerId = "2D060796-9665-4FEC-A6D6-D718506F2B5F";
paths = (
{
closed = 1;
nodes = (
"578 465 LINE",
"578 633 LINE",
"82 633 LINE",
"82 465 LINE"
);
}
);
width = 659;
},
{
layerId = "B424D511-FB10-4699-AE11-5105CBAA4600";
paths = (
{
closed = 1;
nodes = (
"598 424 LINE",
"598 674 LINE",
"61 674 LINE",
"61 424 LINE"
);
}
);
width = 659;
}
);
note = hyphen;
unicode = 002D;
},
{
glyphname = period;
lastChange = "2016-12-13 16:41:45 +0000";
layers = (
{
layerId = "2D060796-9665-4FEC-A6D6-D718506F2B5F";
paths = (
{
closed = 1;
nodes = (
"344 -29 OFFCURVE",
"401 12 OFFCURVE",
"401 111 CURVE SMOOTH",
"401 212 OFFCURVE",
"344 250 OFFCURVE",
"274 250 CURVE SMOOTH",
"203 250 OFFCURVE",
"147 212 OFFCURVE",
"147 111 CURVE SMOOTH",
"147 12 OFFCURVE",
"203 -29 OFFCURVE",
"274 -29 CURVE SMOOTH"
);
}
);
width = 549;
},
{
layerId = "B424D511-FB10-4699-AE11-5105CBAA4600";
paths = (
{
closed = 1;
nodes = (
"117 23 OFFCURVE",
"194 -27 OFFCURVE",
"293 -27 CURVE SMOOTH",
"386 -27 OFFCURVE",
"467 23 OFFCURVE",
"467 143 CURVE SMOOTH",
"467 268 OFFCURVE",
"386 313 OFFCURVE",
"293 313 CURVE SMOOTH",
"194 313 OFFCURVE",
"117 268 OFFCURVE",
"117 143 CURVE SMOOTH"
);
}
);
width = 584;
}
);
note = period;
unicode = 002E;
},
{
glyphname = slash;
lastChange = "2016-12-13 16:41:45 +0000";
layers = (
{
layerId = "2D060796-9665-4FEC-A6D6-D718506F2B5F";
paths = (
{
closed = 1;
nodes = (
"199 0 LINE",
"743 1462 LINE",
"565 1462 LINE",
"20 0 LINE"
);
}
);
width = 764;
},
{
layerId = "B424D511-FB10-4699-AE11-5105CBAA4600";
paths = (
{
closed = 1;
nodes = (
"559 1462 LINE",
"14 0 LINE",
"291 0 LINE",
"836 1462 LINE"
);
}
);
width = 846;
}
);
note = slash;
unicode = 002F;
},
{
glyphname = zero;
lastChange = "2016-12-13 16:50:14 +0000";
layers = (
{
layerId = "2D060796-9665-4FEC-A6D6-D718506F2B5F";
paths = (
{
closed = 1;
nodes = (
"902 -20 OFFCURVE",
"1032 260 OFFCURVE",
"1032 733 CURVE SMOOTH",
"1032 1209 OFFCURVE",
"879 1485 OFFCURVE",
"563 1485 CURVE SMOOTH",
"227 1485 OFFCURVE",
"98 1206 OFFCURVE",
"98 733 CURVE SMOOTH",
"98 260 OFFCURVE",
"248 -20 OFFCURVE",
"563 -20 CURVE SMOOTH"
);
},
{
closed = 1;
nodes = (
"358 135 OFFCURVE",
"283 334 OFFCURVE",
"283 733 CURVE SMOOTH",
"283 1133 OFFCURVE",
"358 1329 OFFCURVE",
"563 1329 CURVE SMOOTH",
"768 1329 OFFCURVE",
"848 1133 OFFCURVE",
"848 733 CURVE SMOOTH",
"848 330 OFFCURVE",
"768 135 OFFCURVE",
"563 135 CURVE SMOOTH"
);
}
);
width = 1128;
},
{
layerId = "B424D511-FB10-4699-AE11-5105CBAA4600";
paths = (
{
closed = 1;
nodes = (
"924 -20 OFFCURVE",
"1065 260 OFFCURVE",
"1065 731 CURVE SMOOTH",
"1065 1206 OFFCURVE",
"899 1485 OFFCURVE",
"563 1485 CURVE SMOOTH",
"203 1485 OFFCURVE",
"63 1203 OFFCURVE",
"63 731 CURVE SMOOTH",
"63 260 OFFCURVE",
"224 -20 OFFCURVE",
"563 -20 CURVE SMOOTH"
);
},
{
closed = 1;
nodes = (
"422 229 OFFCURVE",
"371 398 OFFCURVE",
"371 731 CURVE SMOOTH",
"371 1064 OFFCURVE",
"422 1235 OFFCURVE",
"563 1235 CURVE SMOOTH",
"702 1235 OFFCURVE",
"758 1066 OFFCURVE",
"758 731 CURVE SMOOTH",
"758 395 OFFCURVE",
"702 229 OFFCURVE",
"563 229 CURVE SMOOTH"
);
}
);
width = 1128;
}
);
note = zero;
unicode = 0030;
},
{
glyphname = one;
lastChange = "2016-12-13 16:44:14 +0000";
layers = (
{
layerId = "2D060796-9665-4FEC-A6D6-D718506F2B5F";
paths = (
{
closed = 1;
nodes = (
"711 0 LINE",
"711 1462 LINE",
"561 1462 LINE",
"178 1163 LINE",
"274 1040 LINE",
"422 1161 LINE SMOOTH",
"478 1209 OFFCURVE",
"498 1227 OFFCURVE",
"543 1274 CURVE",
"540 1183 OFFCURVE",
"535 1028 OFFCURVE",
"535 913 CURVE SMOOTH",
"535 0 LINE"
);
}
);
width = 1128;
},
{
layerId = "B424D511-FB10-4699-AE11-5105CBAA4600";
paths = (
{
closed = 1;
nodes = (
"817 0 LINE",
"817 1462 LINE",
"563 1462 LINE",
"92 1087 LINE",
"242 901 LINE",
"410 1036 LINE SMOOTH",
"449 1067 OFFCURVE",
"503 1121 OFFCURVE",
"516 1137 CURVE",
"513 1048 OFFCURVE",
"508 916 OFFCURVE",
"508 846 CURVE SMOOTH",
"508 0 LINE"
);
}
);
width = 1128;
}
);
note = one;
unicode = 0031;
},
{
glyphname = two;
lastChange = "2016-12-13 16:44:43 +0000";
layers = (
{
layerId = "2D060796-9665-4FEC-A6D6-D718506F2B5F";
paths = (
{
closed = 1;
nodes = (
"1008 0 LINE",
"1008 166 LINE",
"319 166 LINE",
"319 174 LINE",
"600 473 LINE SMOOTH",
"801 690 OFFCURVE",
"950 865 OFFCURVE",
"950 1092 CURVE SMOOTH",
"950 1335 OFFCURVE",
"788 1483 OFFCURVE",
"532 1483 CURVE SMOOTH",
"358 1483 OFFCURVE",
"217 1407 OFFCURVE",
"111 1311 CURVE",
"213 1192 LINE",
"305 1272 OFFCURVE",
"403 1329 OFFCURVE",
"530 1329 CURVE SMOOTH",
"670 1329 OFFCURVE",
"766 1241 OFFCURVE",
"766 1085 CURVE SMOOTH",
"766 883 OFFCURVE",
"645 752 OFFCURVE",
"446 537 CURVE SMOOTH",
"96 156 LINE",
"96 0 LINE"
);
}
);
width = 1128;
},
{
layerId = "B424D511-FB10-4699-AE11-5105CBAA4600";
paths = (
{
closed = 1;
nodes = (
"1063 0 LINE",
"1063 260 LINE",
"467 260 LINE",
"467 274 LINE",
"643 451 LINE SMOOTH",
"850 656 OFFCURVE",
"1022 843 OFFCURVE",
"1022 1071 CURVE SMOOTH",
"1022 1323 OFFCURVE",
"848 1483 OFFCURVE",
"569 1483 CURVE SMOOTH",
"334 1483 OFFCURVE",
"197 1382 OFFCURVE",
"78 1274 CURVE",
"246 1075 LINE",
"353 1171 OFFCURVE",
"446 1225 OFFCURVE",
"551 1225 CURVE SMOOTH",
"651 1225 OFFCURVE",
"715 1168 OFFCURVE",
"715 1069 CURVE SMOOTH",
"715 890 OFFCURVE",
"599 772 OFFCURVE",
"426 586 CURVE SMOOTH",
"82 215 LINE",
"82 0 LINE"
);
}
);
width = 1128;
}
);
note = two;
unicode = 0032;
},
{
glyphname = three;
lastChange = "2016-12-13 16:44:55 +0000";
layers = (
{
layerId = "2D060796-9665-4FEC-A6D6-D718506F2B5F";
paths = (
{
closed = 1;
nodes = (
"836 -20 OFFCURVE",
"1006 160 OFFCURVE",
"1006 416 CURVE SMOOTH",
"1006 609 OFFCURVE",
"881 735 OFFCURVE",
"645 764 CURVE",
"645 770 LINE",
"833 802 OFFCURVE",
"961 923 OFFCURVE",
"961 1120 CURVE SMOOTH",
"961 1331 OFFCURVE",
"811 1483 OFFCURVE",
"524 1483 CURVE SMOOTH",
"338 1483 OFFCURVE",
"188 1415 OFFCURVE",
"88 1333 CURVE",
"180 1208 LINE",
"279 1280 OFFCURVE",
"381 1329 OFFCURVE",
"524 1329 CURVE SMOOTH",
"673 1329 OFFCURVE",
"774 1247 OFFCURVE",
"774 1108 CURVE SMOOTH",
"774 944 OFFCURVE",
"655 831 OFFCURVE",
"438 831 CURVE SMOOTH",
"305 831 LINE",
"305 680 LINE",
"438 680 LINE SMOOTH",
"674 680 OFFCURVE",
"819 602 OFFCURVE",
"819 422 CURVE SMOOTH",
"819 242 OFFCURVE",
"711 133 OFFCURVE",
"465 133 CURVE SMOOTH",
"341 133 OFFCURVE",
"198 168 OFFCURVE",
"82 229 CURVE",
"82 59 LINE",
"195 -1 OFFCURVE",
"324 -20 OFFCURVE",
"469 -20 CURVE SMOOTH"
);
}
);
width = 1128;
},
{
layerId = "B424D511-FB10-4699-AE11-5105CBAA4600";
paths = (
{
closed = 1;
nodes = (
"866 -20 OFFCURVE",
"1049 170 OFFCURVE",
"1049 426 CURVE SMOOTH",
"1049 619 OFFCURVE",
"926 735 OFFCURVE",
"690 764 CURVE",
"690 770 LINE",
"868 812 OFFCURVE",
"1006 933 OFFCURVE",
"1006 1135 CURVE SMOOTH",
"1006 1355 OFFCURVE",
"814 1483 OFFCURVE",
"526 1483 CURVE SMOOTH",
"323 1483 OFFCURVE",
"170 1421 OFFCURVE",
"59 1339 CURVE",
"215 1133 LINE",
"278 1178 OFFCURVE",
"373 1233 OFFCURVE",
"500 1233 CURVE SMOOTH",
"640 1233 OFFCURVE",
"702 1171 OFFCURVE",
"702 1067 CURVE SMOOTH",
"702 952 OFFCURVE",
"630 858 OFFCURVE",
"385 858 CURVE SMOOTH",
"283 858 LINE",
"283 641 LINE",
"387 641 LINE SMOOTH",
"647 641 OFFCURVE",
"739 564 OFFCURVE",
"739 444 CURVE SMOOTH",
"739 315 OFFCURVE",
"670 225 OFFCURVE",
"442 225 CURVE SMOOTH",
"328 225 OFFCURVE",
"177 258 OFFCURVE",
"57 322 CURVE",
"57 59 LINE",
"177 6 OFFCURVE",
"316 -20 OFFCURVE",
"473 -20 CURVE SMOOTH"
);
}
);
width = 1128;
}
);
note = three;
unicode = 0033;
},
{
glyphname = four;
lastChange = "2016-12-13 16:45:08 +0000";
layers = (
{
layerId = "2D060796-9665-4FEC-A6D6-D718506F2B5F";
paths = (
{
closed = 1;
nodes = (
"874 0 LINE",
"874 328 LINE",
"1087 328 LINE",
"1087 494 LINE",
"874 494 LINE",
"874 1470 LINE",
"686 1470 LINE",
"23 487 LINE",
"23 328 LINE",
"698 328 LINE",
"698 0 LINE"
);
},
{
closed = 1;
nodes = (
"612 1102 LINE SMOOTH",
"642 1146 OFFCURVE",
"683 1229 OFFCURVE",
"702 1282 CURVE",
"711 1282 LINE",
"708 1191 OFFCURVE",
"698 999 OFFCURVE",
"698 850 CURVE SMOOTH",
"698 494 LINE",
"201 494 LINE"
);
}
);
width = 1128;
},
{
layerId = "B424D511-FB10-4699-AE11-5105CBAA4600";
paths = (
{
closed = 1;
nodes = (
"909 0 LINE",
"909 303 LINE",
"1085 303 LINE",
"1085 543 LINE",
"909 543 LINE",
"909 1462 LINE",
"625 1462 LINE",
"4 518 LINE",
"4 303 LINE",
"608 303 LINE",
"608 0 LINE"
);
},
{
closed = 1;
nodes = (
"520 913 LINE SMOOTH",
"559 976 OFFCURVE",
"588 1040 OFFCURVE",
"612 1096 CURVE",
"621 1096 LINE",
"617 1057 OFFCURVE",
"608 842 OFFCURVE",
"608 791 CURVE SMOOTH",
"608 543 LINE",
"276 543 LINE"
);
}
);
width = 1128;
}
);
note = four;
unicode = 0034;
},
{
glyphname = five;
lastChange = "2016-12-13 16:45:21 +0000";
layers = (
{
layerId = "2D060796-9665-4FEC-A6D6-D718506F2B5F";
paths = (
{
closed = 1;
nodes = (
"829 -20 OFFCURVE",
"1014 164 OFFCURVE",
"1014 469 CURVE SMOOTH",
"1014 749 OFFCURVE",
"809 897 OFFCURVE",
"545 897 CURVE SMOOTH",
"449 897 OFFCURVE",
"379 885 OFFCURVE",
"336 877 CURVE",
"375 1296 LINE",
"907 1296 LINE",
"907 1462 LINE",
"217 1462 LINE",
"162 774 LINE",
"252 717 LINE",
"308 728 OFFCURVE",
"411 743 OFFCURVE",
"483 743 CURVE SMOOTH",
"707 743 OFFCURVE",
"827 640 OFFCURVE",
"827 449 CURVE SMOOTH",
"827 233 OFFCURVE",
"702 135 OFFCURVE",
"492 135 CURVE SMOOTH",
"379 135 OFFCURVE",
"219 170 OFFCURVE",
"131 231 CURVE",
"131 59 LINE",
"220 5 OFFCURVE",
"351 -20 OFFCURVE",
"487 -20 CURVE SMOOTH"
);
}
);
width = 1128;
},
{
layerId = "B424D511-FB10-4699-AE11-5105CBAA4600";
paths = (
{
closed = 1;
nodes = (
"842 -20 OFFCURVE",
"1042 172 OFFCURVE",
"1042 489 CURVE SMOOTH",
"1042 778 OFFCURVE",
"849 934 OFFCURVE",
"598 934 CURVE SMOOTH",
"509 934 OFFCURVE",
"457 922 OFFCURVE",
"414 913 CURVE",
"438 1200 LINE",
"942 1200 LINE",
"942 1462 LINE",
"170 1462 LINE",
"115 717 LINE",
"238 651 LINE",
"288 667 OFFCURVE",
"382 684 OFFCURVE",
"451 684 CURVE SMOOTH",
"642 684 OFFCURVE",
"731 607 OFFCURVE",
"731 463 CURVE SMOOTH",
"731 302 OFFCURVE",
"636 231 OFFCURVE",
"457 231 CURVE SMOOTH",
"338 231 OFFCURVE",
"180 272 OFFCURVE",
"86 326 CURVE",
"86 59 LINE",
"182 5 OFFCURVE",
"326 -20 OFFCURVE",
"473 -20 CURVE SMOOTH"
);
}
);
width = 1128;
}
);
note = five;
unicode = 0035;
},
{
glyphname = six;
lastChange = "2016-12-13 16:45:34 +0000";
layers = (
{
layerId = "2D060796-9665-4FEC-A6D6-D718506F2B5F";
paths = (
{
closed = 1;
nodes = (
"862 -20 OFFCURVE",
"1034 167 OFFCURVE",
"1034 471 CURVE SMOOTH",
"1034 754 OFFCURVE",
"871 915 OFFCURVE",
"618 915 CURVE SMOOTH",
"461 915 OFFCURVE",
"365 842 OFFCURVE",
"311 745 CURVE",
"299 745 LINE",
"311 1062 OFFCURVE",
"397 1333 OFFCURVE",
"758 1333 CURVE SMOOTH",
"815 1333 OFFCURVE",
"877 1325 OFFCURVE",
"924 1309 CURVE",
"924 1464 LINE",
"880 1477 OFFCURVE",
"803 1483 OFFCURVE",
"752 1483 CURVE SMOOTH",
"220 1483 OFFCURVE",
"113 1044 OFFCURVE",
"113 625 CURVE SMOOTH",
"113 186 OFFCURVE",
"322 -20 OFFCURVE",
"590 -20 CURVE SMOOTH"
);
},
{
closed = 1;
nodes = (
"393 133 OFFCURVE",
"295 328 OFFCURVE",
"295 506 CURVE SMOOTH",
"295 635 OFFCURVE",
"414 772 OFFCURVE",
"594 772 CURVE SMOOTH",
"770 772 OFFCURVE",
"858 657 OFFCURVE",
"858 471 CURVE SMOOTH",
"858 240 OFFCURVE",
"748 133 OFFCURVE",
"588 133 CURVE SMOOTH"
);
}
);
width = 1128;
},
{
layerId = "B424D511-FB10-4699-AE11-5105CBAA4600";
paths = (
{
closed = 1;
nodes = (
"882 -20 OFFCURVE",
"1067 170 OFFCURVE",
"1067 487 CURVE SMOOTH",
"1067 782 OFFCURVE",
"913 950 OFFCURVE",
"659 950 CURVE SMOOTH",
"502 950 OFFCURVE",
"406 877 OFFCURVE",
"352 780 CURVE",
"340 780 LINE",
"353 1051 OFFCURVE",
"438 1237 OFFCURVE",
"799 1237 CURVE SMOOTH",
"856 1237 OFFCURVE",
"914 1229 OFFCURVE",
"965 1217 CURVE",
"965 1464 LINE",
"914 1475 OFFCURVE",
"832 1479 OFFCURVE",
"776 1479 CURVE SMOOTH",
"196 1479 OFFCURVE",
"76 1040 OFFCURVE",
"76 621 CURVE SMOOTH",
"76 182 OFFCURVE",
"301 -20 OFFCURVE",
"590 -20 CURVE SMOOTH"
);
},
{
closed = 1;
nodes = (
"451 227 OFFCURVE",
"383 374 OFFCURVE",
"383 510 CURVE SMOOTH",
"383 608 OFFCURVE",
"464 713 OFFCURVE",
"588 713 CURVE SMOOTH",
"709 713 OFFCURVE",
"768 626 OFFCURVE",
"768 483 CURVE SMOOTH",
"768 308 OFFCURVE",
"692 227 OFFCURVE",
"584 227 CURVE SMOOTH"
);
}
);
width = 1128;
}
);
note = six;
unicode = 0036;
},
{
glyphname = seven;
lastChange = "2016-12-13 16:41:45 +0000";
layers = (
{
layerId = "2D060796-9665-4FEC-A6D6-D718506F2B5F";
paths = (
{
closed = 1;
nodes = (
"475 0 LINE",
"1030 1317 LINE",
"1030 1462 LINE",
"90 1462 LINE",
"90 1296 LINE",
"844 1296 LINE",
"281 0 LINE"
);
}
);
width = 1128;
},
{
layerId = "B424D511-FB10-4699-AE11-5105CBAA4600";
paths = (
{
closed = 1;
nodes = (
"530 0 LINE",
"1063 1266 LINE",
"1063 1460 LINE",
"55 1460 LINE",
"55 1200 LINE",
"727 1200 LINE",
"207 0 LINE"
);
}
);
width = 1128;
}
);
note = seven;
unicode = 0037;
},
{
glyphname = eight;
lastChange = "2016-12-13 16:44:28 +0000";
layers = (
{
layerId = "2D060796-9665-4FEC-A6D6-D718506F2B5F";
paths = (
{
closed = 1;
nodes = (
"837 -20 OFFCURVE",
"1024 135 OFFCURVE",
"1024 381 CURVE SMOOTH",
"1024 576 OFFCURVE",
"870 691 OFFCURVE",
"715 774 CURVE",
"864 849 OFFCURVE",
"977 954 OFFCURVE",
"977 1133 CURVE SMOOTH",
"977 1368 OFFCURVE",
"788 1485 OFFCURVE",
"565 1485 CURVE SMOOTH",
"348 1485 OFFCURVE",
"154 1367 OFFCURVE",
"154 1135 CURVE SMOOTH",
"154 958 OFFCURVE",
"258 849 OFFCURVE",
"389 766 CURVE",
"233 691 OFFCURVE",
"106 572 OFFCURVE",
"106 373 CURVE SMOOTH",
"106 128 OFFCURVE",
"272 -20 OFFCURVE",
"565 -20 CURVE SMOOTH"
);
},
{
closed = 1;
nodes = (
"369 131 OFFCURVE",
"285 229 OFFCURVE",
"285 371 CURVE SMOOTH",
"285 518 OFFCURVE",
"371 616 OFFCURVE",
"539 696 CURVE",
"569 682 LINE SMOOTH",
"737 599 OFFCURVE",
"846 517 OFFCURVE",
"846 379 CURVE SMOOTH",
"846 229 OFFCURVE",
"749 131 OFFCURVE",
"561 131 CURVE SMOOTH"
);
},
{
closed = 1;
nodes = (
"430 913 OFFCURVE",
"332 976 OFFCURVE",
"332 1126 CURVE SMOOTH",
"332 1261 OFFCURVE",
"422 1333 OFFCURVE",
"563 1333 CURVE SMOOTH",
"710 1333 OFFCURVE",
"799 1261 OFFCURVE",
"799 1126 CURVE SMOOTH",
"799 982 OFFCURVE",
"696 907 OFFCURVE",
"567 848 CURVE"
);
}
);
width = 1128;
},
{
layerId = "B424D511-FB10-4699-AE11-5105CBAA4600";
paths = (
{
closed = 1;
nodes = (
"856 -20 OFFCURVE",
"1057 135 OFFCURVE",
"1057 379 CURVE SMOOTH",
"1057 574 OFFCURVE",
"906 689 OFFCURVE",
"750 772 CURVE",
"899 847 OFFCURVE",
"1012 951 OFFCURVE",
"1012 1128 CURVE SMOOTH",
"1012 1364 OFFCURVE",
"807 1481 OFFCURVE",
"565 1481 CURVE SMOOTH",
"328 1481 OFFCURVE",
"117 1362 OFFCURVE",
"117 1130 CURVE SMOOTH",
"117 956 OFFCURVE",
"221 847 OFFCURVE",
"352 764 CURVE",
"197 689 OFFCURVE",
"72 570 OFFCURVE",
"72 371 CURVE SMOOTH",
"72 127 OFFCURVE",
"249 -20 OFFCURVE",
"565 -20 CURVE SMOOTH"
);
},
{
closed = 1;
nodes = (
"428 207 OFFCURVE",
"358 282 OFFCURVE",
"358 389 CURVE SMOOTH",
"358 502 OFFCURVE",
"436 578 OFFCURVE",
"553 637 CURVE",
"575 623 LINE SMOOTH",
"668 564 OFFCURVE",
"770 498 OFFCURVE",
"770 387 CURVE SMOOTH",
"770 279 OFFCURVE",
"701 207 OFFCURVE",
"561 207 CURVE SMOOTH"
);
},
{
closed = 1;
nodes = (
"480 949 OFFCURVE",
"408 994 OFFCURVE",
"408 1106 CURVE SMOOTH",
"408 1200 OFFCURVE",
"475 1255 OFFCURVE",
"563 1255 CURVE SMOOTH",
"654 1255 OFFCURVE",
"721 1200 OFFCURVE",
"721 1106 CURVE SMOOTH",
"721 1000 OFFCURVE",
"647 943 OFFCURVE",
"565 901 CURVE"
);
}
);
width = 1128;
}
);
note = eight;
unicode = 0038;
},
{
glyphname = nine;
lastChange = "2016-12-13 16:45:47 +0000";
layers = (
{
layerId = "2D060796-9665-4FEC-A6D6-D718506F2B5F";
paths = (
{
closed = 1;
nodes = (
"921 -20 OFFCURVE",
"1028 418 OFFCURVE",
"1028 838 CURVE SMOOTH",
"1028 1276 OFFCURVE",
"819 1483 OFFCURVE",
"551 1483 CURVE SMOOTH",
"279 1483 OFFCURVE",
"106 1296 OFFCURVE",
"106 991 CURVE SMOOTH",
"106 708 OFFCURVE",
"269 547 OFFCURVE",
"522 547 CURVE SMOOTH",
"680 547 OFFCURVE",
"776 621 OFFCURVE",
"829 717 CURVE",
"842 717 LINE",
"829 399 OFFCURVE",
"744 129 OFFCURVE",
"383 129 CURVE SMOOTH",
"326 129 OFFCURVE",
"264 137 OFFCURVE",
"217 154 CURVE",
"217 -2 LINE",
"262 -15 OFFCURVE",
"338 -20 OFFCURVE",
"389 -20 CURVE SMOOTH"
);
},
{
closed = 1;
nodes = (
"371 690 OFFCURVE",
"283 805 OFFCURVE",
"283 991 CURVE SMOOTH",
"283 1223 OFFCURVE",
"393 1329 OFFCURVE",
"553 1329 CURVE SMOOTH",
"748 1329 OFFCURVE",
"846 1135 OFFCURVE",
"846 956 CURVE SMOOTH",
"846 827 OFFCURVE",
"727 690 OFFCURVE",
"547 690 CURVE SMOOTH"
);
}
);
width = 1128;
},
{
layerId = "B424D511-FB10-4699-AE11-5105CBAA4600";
paths = (
{
closed = 1;
nodes = (
"936 -20 OFFCURVE",
"1055 418 OFFCURVE",
"1055 838 CURVE SMOOTH",
"1055 1276 OFFCURVE",
"829 1479 OFFCURVE",
"541 1479 CURVE SMOOTH",
"248 1479 OFFCURVE",
"63 1287 OFFCURVE",
"63 971 CURVE SMOOTH",
"63 676 OFFCURVE",
"217 508 OFFCURVE",
"471 508 CURVE SMOOTH",
"629 508 OFFCURVE",
"725 582 OFFCURVE",
"778 678 CURVE",
"791 678 LINE",
"778 409 OFFCURVE",
"693 221 OFFCURVE",
"332 221 CURVE SMOOTH",
"273 221 OFFCURVE",
"215 229 OFFCURVE",
"166 242 CURVE",
"166 -6 LINE",
"214 -17 OFFCURVE",
"299 -20 OFFCURVE",
"354 -20 CURVE SMOOTH"
);
},
{
closed = 1;
nodes = (
"422 745 OFFCURVE",
"362 834 OFFCURVE",
"362 975 CURVE SMOOTH",
"362 1152 OFFCURVE",
"438 1231 OFFCURVE",
"547 1231 CURVE SMOOTH",
"680 1231 OFFCURVE",
"748 1084 OFFCURVE",
"748 948 CURVE SMOOTH",
"748 850 OFFCURVE",
"667 745 OFFCURVE",
"543 745 CURVE SMOOTH"
);
}
);
width = 1128;
}
);
note = nine;
unicode = 0039;
},
{
glyphname = colon;
lastChange = "2016-12-13 16:41:45 +0000";
layers = (
{
layerId = "2D060796-9665-4FEC-A6D6-D718506F2B5F";
paths = (
{
closed = 1;
nodes = (
"344 -29 OFFCURVE",
"401 12 OFFCURVE",
"401 111 CURVE SMOOTH",
"401 212 OFFCURVE",
"344 250 OFFCURVE",
"274 250 CURVE SMOOTH",
"203 250 OFFCURVE",
"147 212 OFFCURVE",
"147 111 CURVE SMOOTH",
"147 12 OFFCURVE",
"203 -29 OFFCURVE",
"274 -29 CURVE SMOOTH"
);
},
{
closed = 1;
nodes = (
"344 848 OFFCURVE",
"401 889 OFFCURVE",
"401 987 CURVE SMOOTH",
"401 1091 OFFCURVE",
"344 1126 OFFCURVE",
"274 1126 CURVE SMOOTH",
"203 1126 OFFCURVE",
"147 1091 OFFCURVE",
"147 987 CURVE SMOOTH",
"147 889 OFFCURVE",
"203 848 OFFCURVE",
"274 848 CURVE SMOOTH"
);
}
);
width = 549;
},
{
layerId = "B424D511-FB10-4699-AE11-5105CBAA4600";
paths = (
{
closed = 1;
nodes = (
"117 23 OFFCURVE",
"194 -27 OFFCURVE",
"293 -27 CURVE SMOOTH",
"386 -27 OFFCURVE",
"467 23 OFFCURVE",
"467 143 CURVE SMOOTH",
"467 268 OFFCURVE",
"386 313 OFFCURVE",
"293 313 CURVE SMOOTH",
"194 313 OFFCURVE",
"117 268 OFFCURVE",
"117 143 CURVE SMOOTH"
);
},
{
closed = 1;
nodes = (
"117 848 OFFCURVE",
"194 799 OFFCURVE",
"293 799 CURVE SMOOTH",
"386 799 OFFCURVE",
"467 848 OFFCURVE",
"467 969 CURVE SMOOTH",
"467 1094 OFFCURVE",
"386 1139 OFFCURVE",
"293 1139 CURVE SMOOTH",
"194 1139 OFFCURVE",
"117 1094 OFFCURVE",
"117 969 CURVE SMOOTH"
);
}
);
width = 584;
}
);
note = colon;
unicode = 003A;
},
{
glyphname = semicolon;
lastChange = "2016-12-13 16:45:58 +0000";
layers = (
{
layerId = "2D060796-9665-4FEC-A6D6-D718506F2B5F";
paths = (
{
closed = 1;
nodes = (
"201 -264 LINE",
"268 -114 OFFCURVE",
"339 70 OFFCURVE",
"377 215 CURVE",
"362 238 LINE",
"164 238 LINE",
"143 96 OFFCURVE",
"103 -102 OFFCURVE",
"63 -264 CURVE"
);
},
{
closed = 1;
nodes = (
"344 848 OFFCURVE",
"401 889 OFFCURVE",
"401 987 CURVE SMOOTH",
"401 1091 OFFCURVE",
"344 1126 OFFCURVE",
"274 1126 CURVE SMOOTH",
"203 1126 OFFCURVE",
"147 1091 OFFCURVE",
"147 987 CURVE SMOOTH",
"147 889 OFFCURVE",
"203 848 OFFCURVE",
"274 848 CURVE SMOOTH"
);
}
);
width = 549;
},
{
layerId = "B424D511-FB10-4699-AE11-5105CBAA4600";
paths = (
{
closed = 1;
nodes = (
"283 -264 LINE",
"350 -114 OFFCURVE",
"421 70 OFFCURVE",
"459 215 CURVE",
"444 238 LINE",
"164 238 LINE",
"143 96 OFFCURVE",
"103 -102 OFFCURVE",
"63 -264 CURVE"
);
},
{
closed = 1;
nodes = (
"386 799 OFFCURVE",
"467 848 OFFCURVE",
"467 969 CURVE SMOOTH",
"467 1094 OFFCURVE",
"386 1139 OFFCURVE",
"293 1139 CURVE SMOOTH",
"194 1139 OFFCURVE",
"117 1094 OFFCURVE",
"117 969 CURVE SMOOTH",
"117 848 OFFCURVE",
"194 799 OFFCURVE",
"293 799 CURVE SMOOTH"
);
}
);
width = 594;
}
);
note = semicolon;
unicode = 003B;
},
{
glyphname = less;
lastChange = "2016-12-13 16:41:45 +0000";
layers = (
{
layerId = "2D060796-9665-4FEC-A6D6-D718506F2B5F";
paths = (
{
closed = 1;
nodes = (
"1026 399 LINE",
"291 721 LINE",
"1026 1085 LINE",
"1026 1245 LINE",
"102 764 LINE",
"102 662 LINE",
"1026 238 LINE"
);
}
);
width = 1128;
},
{
layerId = "B424D511-FB10-4699-AE11-5105CBAA4600";
paths = (
{
closed = 1;
nodes = (
"1040 442 LINE",
"397 723 LINE",
"1040 1040 LINE",
"1040 1280 LINE",
"88 784 LINE",
"88 641 LINE",
"1040 203 LINE"
);
}
);
width = 1128;
}
);
note = less;
unicode = 003C;
},
{
glyphname = equal;
lastChange = "2016-12-13 16:41:45 +0000";
layers = (
{
layerId = "2D060796-9665-4FEC-A6D6-D718506F2B5F";
paths = (
{
closed = 1;
nodes = (
"1026 442 LINE",
"1026 592 LINE",
"102 592 LINE",
"102 442 LINE"
);
},
{
closed = 1;
nodes = (
"1026 852 LINE",
"1026 1001 LINE",
"102 1001 LINE",
"102 852 LINE"
);
}
);
width = 1128;
},
{
layerId = "B424D511-FB10-4699-AE11-5105CBAA4600";
paths = (
{
closed = 1;
nodes = (
"1040 807 LINE",
"1040 1024 LINE",
"88 1024 LINE",
"88 807 LINE"
);
},
{
closed = 1;
nodes = (
"1040 418 LINE",
"1040 637 LINE",
"88 637 LINE",
"88 418 LINE"
);
}
);
width = 1128;
}
);
note = equal;
unicode = 003D;
},
{
glyphname = greater;
lastChange = "2016-12-13 16:41:45 +0000";
layers = (
{
layerId = "2D060796-9665-4FEC-A6D6-D718506F2B5F";
paths = (
{
closed = 1;
nodes = (
"1026 662 LINE",
"1026 764 LINE",
"102 1245 LINE",
"102 1085 LINE",
"838 721 LINE",
"102 399 LINE",
"102 238 LINE"
);
}
);
width = 1128;
},
{
layerId = "B424D511-FB10-4699-AE11-5105CBAA4600";
paths = (
{
closed = 1;
nodes = (
"88 203 LINE",
"1040 641 LINE",
"1040 784 LINE",
"88 1280 LINE",
"88 1040 LINE",
"731 723 LINE",
"88 442 LINE"
);
}
);
width = 1128;
}
);
note = greater;
unicode = 003E;
},
{
glyphname = question;
lastChange = "2016-12-13 16:41:45 +0000";
layers = (
{
layerId = "2D060796-9665-4FEC-A6D6-D718506F2B5F";
paths = (
{
closed = 1;
nodes = (
"420 414 LINE",
"420 432 LINE SMOOTH",
"420 549 OFFCURVE",
"452 597 OFFCURVE",
"590 717 CURVE SMOOTH",
"733 842 OFFCURVE",
"805 931 OFFCURVE",
"805 1110 CURVE SMOOTH",
"805 1343 OFFCURVE",
"651 1483 OFFCURVE",
"403 1483 CURVE SMOOTH",
"274 1483 OFFCURVE",
"145 1438 OFFCURVE",
"37 1382 CURVE",
"100 1237 LINE",
"193 1282 OFFCURVE",
"292 1323 OFFCURVE",
"403 1323 CURVE SMOOTH",
"551 1323 OFFCURVE",
"631 1236 OFFCURVE",
"631 1108 CURVE SMOOTH",
"631 967 OFFCURVE",
"578 908 OFFCURVE",
"451 799 CURVE SMOOTH",
"317 686 OFFCURVE",
"281 604 OFFCURVE",
"281 451 CURVE SMOOTH",
"281 414 LINE"
);
},
{
closed = 1;
nodes = (
"430 -29 OFFCURVE",
"487 12 OFFCURVE",
"487 111 CURVE SMOOTH",
"487 212 OFFCURVE",
"430 250 OFFCURVE",
"360 250 CURVE SMOOTH",
"289 250 OFFCURVE",
"233 212 OFFCURVE",
"233 111 CURVE SMOOTH",
"233 12 OFFCURVE",
"289 -29 OFFCURVE",
"360 -29 CURVE SMOOTH"
);
}
);
width = 872;
},
{
layerId = "B424D511-FB10-4699-AE11-5105CBAA4600";
paths = (
{
closed = 1;
nodes = (
"528 485 LINE",
"528 545 LINE SMOOTH",
"528 630 OFFCURVE",
"552 662 OFFCURVE",
"664 750 CURVE SMOOTH",
"811 867 OFFCURVE",
"885 951 OFFCURVE",
"885 1120 CURVE SMOOTH",
"885 1348 OFFCURVE",
"717 1483 OFFCURVE",
"444 1483 CURVE SMOOTH",
"300 1483 OFFCURVE",
"139 1425 OFFCURVE",
"25 1358 CURVE",
"127 1137 LINE",
"240 1193 OFFCURVE",
"348 1237 OFFCURVE",
"440 1237 CURVE SMOOTH",
"545 1237 OFFCURVE",
"596 1182 OFFCURVE",
"596 1106 CURVE SMOOTH",
"596 1007 OFFCURVE",
"556 965 OFFCURVE",
"444 877 CURVE SMOOTH",
"317 776 OFFCURVE",
"264 694 OFFCURVE",
"264 559 CURVE SMOOTH",
"264 485 LINE"
);
},
{
closed = 1;
nodes = (
"231 23 OFFCURVE",
"308 -27 OFFCURVE",
"408 -27 CURVE SMOOTH",
"501 -27 OFFCURVE",
"582 23 OFFCURVE",
"582 143 CURVE SMOOTH",
"582 268 OFFCURVE",
"501 313 OFFCURVE",
"408 313 CURVE SMOOTH",
"308 313 OFFCURVE",
"231 268 OFFCURVE",
"231 143 CURVE SMOOTH"
);
}
);
width = 940;
}
);
note = question;
unicode = 003F;
},
{
glyphname = at;
lastChange = "2016-12-13 16:46:13 +0000";
layers = (
{
layerId = "2D060796-9665-4FEC-A6D6-D718506F2B5F";
paths = (
{
closed = 1;
nodes = (
"1039 -182 OFFCURVE",
"1183 -151 OFFCURVE",
"1298 -100 CURVE",
"1298 41 LINE",
"1184 -4 OFFCURVE",
"1027 -45 OFFCURVE",
"864 -45 CURVE SMOOTH",
"471 -45 OFFCURVE",
"258 178 OFFCURVE",
"258 582 CURVE SMOOTH",
"258 1014 OFFCURVE",
"500 1327 OFFCURVE",
"950 1327 CURVE SMOOTH",
"1278 1327 OFFCURVE",
"1520 1112 OFFCURVE",
"1520 733 CURVE SMOOTH",
"1520 524 OFFCURVE",
"1456 350 OFFCURVE",
"1333 350 CURVE SMOOTH",
"1273 350 OFFCURVE",
"1212 385 OFFCURVE",
"1212 526 CURVE SMOOTH",
"1212 545 LINE SMOOTH",
"1212 556 OFFCURVE",
"1213 573 OFFCURVE",
"1214 602 CURVE SMOOTH",
"1237 1018 LINE",
"1175 1040 OFFCURVE",
"1048 1065 OFFCURVE",
"928 1065 CURVE SMOOTH",
"666 1065 OFFCURVE",
"502 874 OFFCURVE",
"502 606 CURVE SMOOTH",
"502 377 OFFCURVE",
"619 221 OFFCURVE",
"823 221 CURVE SMOOTH",
"965 221 OFFCURVE",
"1060 301 OFFCURVE",
"1108 401 CURVE",
"1112 401 LINE",
"1128 308 OFFCURVE",
"1200 221 OFFCURVE",
"1321 221 CURVE SMOOTH",
"1554 221 OFFCURVE",
"1665 481 OFFCURVE",
"1665 731 CURVE SMOOTH",
"1665 1184 OFFCURVE",
"1366 1462 OFFCURVE",
"950 1462 CURVE SMOOTH",
"435 1462 OFFCURVE",
"109 1077 OFFCURVE",
"109 575 CURVE SMOOTH",
"109 98 OFFCURVE",
"389 -182 OFFCURVE",
"866 -182 CURVE SMOOTH"
);
},
{
closed = 1;
nodes = (
"735 350 OFFCURVE",
"662 425 OFFCURVE",
"662 602 CURVE SMOOTH",
"662 767 OFFCURVE",
"732 936 OFFCURVE",
"928 936 CURVE SMOOTH",
"984 936 OFFCURVE",
"1038 926 OFFCURVE",
"1075 915 CURVE",
"1061 662 LINE SMOOTH",
"1050 477 OFFCURVE",
"996 350 OFFCURVE",
"848 350 CURVE SMOOTH"
);
}
);
width = 1774;
},
{
layerId = "B424D511-FB10-4699-AE11-5105CBAA4600";
paths = (
{
closed = 1;
nodes = (
"1041 -154 OFFCURVE",
"1196 -119 OFFCURVE",
"1321 -63 CURVE",
"1321 129 LINE",
"1185 76 OFFCURVE",
"1015 37 OFFCURVE",
"866 37 CURVE SMOOTH",
"514 37 OFFCURVE",
"324 240 OFFCURVE",
"324 608 CURVE SMOOTH",
"324 1004 OFFCURVE",
"541 1292 OFFCURVE",
"948 1292 CURVE SMOOTH",
"1240 1292 OFFCURVE",
"1454 1095 OFFCURVE",
"1454 754 CURVE SMOOTH",
"1454 570 OFFCURVE",
"1407 416 OFFCURVE",
"1315 416 CURVE SMOOTH",
"1276 416 OFFCURVE",
"1239 443 OFFCURVE",
"1239 555 CURVE SMOOTH",
"1239 582 LINE SMOOTH",
"1239 596 OFFCURVE",
"1240 610 OFFCURVE",
"1241 625 CURVE SMOOTH",
"1262 1044 LINE",
"1187 1071 OFFCURVE",
"1047 1100 OFFCURVE",
"926 1100 CURVE SMOOTH",
"650 1100 OFFCURVE",
"479 906 OFFCURVE",
"479 631 CURVE SMOOTH",
"479 393 OFFCURVE",
"604 233 OFFCURVE",
"825 233 CURVE SMOOTH",
"943 233 OFFCURVE",
"1024 295 OFFCURVE",
"1075 362 CURVE",
"1090 362 LINE",
"1119 287 OFFCURVE",
"1203 233 OFFCURVE",
"1303 233 CURVE SMOOTH",
"1554 233 OFFCURVE",
"1673 499 OFFCURVE",
"1673 752 CURVE SMOOTH",
"1673 1203 OFFCURVE",
"1369 1481 OFFCURVE",
"948 1481 CURVE SMOOTH",
"432 1481 OFFCURVE",
"102 1098 OFFCURVE",
"102 602 CURVE SMOOTH",
"102 127 OFFCURVE",
"385 -154 OFFCURVE",
"868 -154 CURVE SMOOTH"
);
},
{
closed = 1;
nodes = (
"766 416 OFFCURVE",
"711 478 OFFCURVE",
"711 627 CURVE SMOOTH",
"711 772 OFFCURVE",
"769 918 OFFCURVE",
"926 918 CURVE SMOOTH",
"963 918 OFFCURVE",
"1001 914 OFFCURVE",
"1028 907 CURVE",
"1016 686 LINE SMOOTH",
"1008 524 OFFCURVE",
"963 416 OFFCURVE",
"850 416 CURVE SMOOTH"
);
}
);
width = 1774;
}
);
note = at;
unicode = 0040;
},
{
glyphname = uniAA00;
lastChange = "2016-12-13 16:46:23 +0000";
layers = (
{
layerId = "2D060796-9665-4FEC-A6D6-D718506F2B5F";
paths = (
{
closed = 1;
nodes = (
"847 0 OFFCURVE",
"933 49 OFFCURVE",
"968 147 CURVE",
"1047 121 OFFCURVE",
"1113 81 OFFCURVE",
"1167 26 CURVE",
"1216 128 LINE",
"1121 208 OFFCURVE",
"1040 241 OFFCURVE",
"985 260 CURVE",
"986 265 OFFCURVE",
"986 269 OFFCURVE",
"986 274 CURVE SMOOTH",
"986 315 OFFCURVE",
"973 359 OFFCURVE",
"946 408 CURVE SMOOTH",
"917 462 OFFCURVE",
"860 509 OFFCURVE",
"775 550 CURVE",
"841 581 OFFCURVE",
"887 617 OFFCURVE",
"913 658 CURVE",
"986 585 OFFCURVE",
"1034 506 OFFCURVE",
"1059 421 CURVE",
"1156 372 LINE",
"1240 433 OFFCURVE",
"1291 506 OFFCURVE",
"1308 589 CURVE",
"1310 601 OFFCURVE",
"1311 614 OFFCURVE",
"1311 628 CURVE SMOOTH",
"1311 665 OFFCURVE",
"1302 706 OFFCURVE",
"1284 753 CURVE",
"1268 790 OFFCURVE",
"1260 829 OFFCURVE",
"1260 870 CURVE SMOOTH",
"1260 977 OFFCURVE",
"1323 1030 OFFCURVE",
"1450 1030 CURVE SMOOTH",
"1570 1030 OFFCURVE",
"1630 977 OFFCURVE",
"1630 870 CURVE SMOOTH",
"1630 765 OFFCURVE",
"1603 687 OFFCURVE",
"1550 637 CURVE",
"1656 562 LINE",
"1752 649 OFFCURVE",
"1800 751 OFFCURVE",
"1800 870 CURVE SMOOTH",
"1800 1090 OFFCURVE",
"1683 1200 OFFCURVE",
"1450 1200 CURVE SMOOTH",
"1217 1200 OFFCURVE",
"1100 1090 OFFCURVE",
"1100 870 CURVE SMOOTH",
"1100 827 OFFCURVE",
"1114 774 OFFCURVE",
"1142 709 CURVE",
"1157 679 OFFCURVE",
"1164 649 OFFCURVE",
"1164 619 CURVE SMOOTH",
"1164 605 OFFCURVE",
"1157 585 OFFCURVE",
"1143 559 CURVE",
"1122 612 OFFCURVE",
"1092 661 OFFCURVE",
"1054 704 CURVE SMOOTH",
"1017 745 OFFCURVE",
"983 781 OFFCURVE",
"950 811 CURVE",
"946 1070 OFFCURVE",
"804 1200 OFFCURVE",
"525 1200 CURVE SMOOTH",
"242 1200 OFFCURVE",
"100 1050 OFFCURVE",
"100 750 CURVE SMOOTH",
"100 450 OFFCURVE",
"207 300 OFFCURVE",
"420 300 CURVE SMOOTH",
"488 300 OFFCURVE",
"545 357 OFFCURVE",
"545 425 CURVE",
"548 492 OFFCURVE",
"483 553 OFFCURVE",
"420 550 CURVE",
"391 550 OFFCURVE",
"367 546 OFFCURVE",
"327 499 CURVE",
"289 532 OFFCURVE",
"270 615 OFFCURVE",
"270 750 CURVE SMOOTH",
"270 937 OFFCURVE",
"355 1030 OFFCURVE",
"525 1030 CURVE SMOOTH",
"708 1030 OFFCURVE",
"800 953 OFFCURVE",
"800 800 CURVE SMOOTH",
"800 717 OFFCURVE",
"743 661 OFFCURVE",
"630 633 CURVE",
"630 470 LINE",
"743 426 OFFCURVE",
"808 388 OFFCURVE",
"825 357 CURVE SMOOTH",
"840 328 OFFCURVE",
"847 305 OFFCURVE",
"847 288 CURVE SMOOTH",
"847 282 LINE",
"824 289 OFFCURVE",
"799 292 OFFCURVE",
"774 292 CURVE SMOOTH",
"763 292 OFFCURVE",
"751 291 OFFCURVE",
"740 290 CURVE SMOOTH",
"633 277 OFFCURVE",
"579 227 OFFCURVE",
"579 140 CURVE SMOOTH",
"579 53 OFFCURVE",
"623 6 OFFCURVE",
"710 0 CURVE"
);
},
{
closed = 1;
nodes = (
"698 89 OFFCURVE",
"679 97 OFFCURVE",
"679 112 CURVE SMOOTH",
"679 115 OFFCURVE",
"679 117 OFFCURVE",
"680 120 CURVE SMOOTH",
"687 140 OFFCURVE",
"707 157 OFFCURVE",
"740 170 CURVE",
"767 170 OFFCURVE",
"797 168 OFFCURVE",
"828 165 CURVE",
"805 114 OFFCURVE",
"774 89 OFFCURVE",
"736 89 CURVE SMOOTH"
);
}
);
width = 1900;
},
{
layerId = "B424D511-FB10-4699-AE11-5105CBAA4600";
paths = (
{
closed = 1;
nodes = (
"847 0 OFFCURVE",
"933 49 OFFCURVE",
"968 147 CURVE",
"1047 121 OFFCURVE",
"1113 81 OFFCURVE",
"1167 26 CURVE",
"1216 128 LINE",
"1121 208 OFFCURVE",
"1040 241 OFFCURVE",
"985 260 CURVE",
"986 265 OFFCURVE",
"986 269 OFFCURVE",
"986 274 CURVE SMOOTH",
"986 315 OFFCURVE",
"973 359 OFFCURVE",
"946 408 CURVE SMOOTH",
"917 462 OFFCURVE",
"860 509 OFFCURVE",
"775 550 CURVE",
"841 581 OFFCURVE",
"887 617 OFFCURVE",
"913 658 CURVE",
"986 585 OFFCURVE",
"1034 506 OFFCURVE",
"1059 421 CURVE",
"1156 372 LINE",
"1240 433 OFFCURVE",
"1291 506 OFFCURVE",
"1308 589 CURVE",
"1310 601 OFFCURVE",
"1311 614 OFFCURVE",
"1311 628 CURVE SMOOTH",
"1311 665 OFFCURVE",
"1302 706 OFFCURVE",
"1284 753 CURVE",
"1268 790 OFFCURVE",
"1260 829 OFFCURVE",
"1260 870 CURVE SMOOTH",
"1260 910 OFFCURVE",
"1323 930 OFFCURVE",
"1450 930 CURVE SMOOTH",
"1570 930 OFFCURVE",
"1630 903 OFFCURVE",
"1630 850 CURVE SMOOTH",
"1630 758 OFFCURVE",
"1603 687 OFFCURVE",
"1550 637 CURVE",
"1656 562 LINE",
"1752 649 OFFCURVE",
"1800 745 OFFCURVE",
"1800 850 CURVE SMOOTH",
"1800 1083 OFFCURVE",
"1683 1200 OFFCURVE",
"1450 1200 CURVE SMOOTH",
"1217 1200 OFFCURVE",
"1100 1090 OFFCURVE",
"1100 870 CURVE SMOOTH",
"1100 827 OFFCURVE",
"1114 774 OFFCURVE",
"1142 709 CURVE",
"1157 679 OFFCURVE",
"1164 649 OFFCURVE",
"1164 619 CURVE SMOOTH",
"1164 605 OFFCURVE",
"1157 585 OFFCURVE",
"1143 559 CURVE",
"1122 612 OFFCURVE",
"1092 661 OFFCURVE",
"1054 704 CURVE SMOOTH",
"1017 745 OFFCURVE",
"983 781 OFFCURVE",
"950 811 CURVE",
"946 1070 OFFCURVE",
"804 1200 OFFCURVE",
"525 1200 CURVE SMOOTH",
"242 1200 OFFCURVE",
"100 1050 OFFCURVE",
"100 750 CURVE SMOOTH",
"100 450 OFFCURVE",
"207 300 OFFCURVE",
"420 300 CURVE SMOOTH",
"488 300 OFFCURVE",
"545 357 OFFCURVE",
"545 425 CURVE",
"548 492 OFFCURVE",
"483 553 OFFCURVE",
"420 550 CURVE",
"391 550 OFFCURVE",
"367 546 OFFCURVE",
"327 499 CURVE",
"289 532 OFFCURVE",
"270 615 OFFCURVE",
"270 750 CURVE SMOOTH",
"270 870 OFFCURVE",
"355 930 OFFCURVE",
"525 930 CURVE SMOOTH",
"708 930 OFFCURVE",
"800 887 OFFCURVE",
"800 800 CURVE SMOOTH",
"800 717 OFFCURVE",
"743 661 OFFCURVE",
"630 633 CURVE",
"630 420 LINE",
"743 383 OFFCURVE",
"807 356 OFFCURVE",
"823 339 CURVE SMOOTH",
"839 322 OFFCURVE",
"847 305 OFFCURVE",
"847 288 CURVE SMOOTH",
"847 282 LINE",
"824 289 OFFCURVE",
"799 292 OFFCURVE",
"774 292 CURVE SMOOTH",
"763 292 OFFCURVE",
"751 291 OFFCURVE",
"740 290 CURVE SMOOTH",
"633 277 OFFCURVE",
"579 227 OFFCURVE",
"579 140 CURVE SMOOTH",
"579 53 OFFCURVE",
"623 6 OFFCURVE",
"710 0 CURVE"
);
},
{
closed = 1;
nodes = (
"698 89 OFFCURVE",
"679 97 OFFCURVE",
"679 112 CURVE SMOOTH",
"679 115 OFFCURVE",
"679 117 OFFCURVE",
"680 120 CURVE SMOOTH",
"687 140 OFFCURVE",
"707 157 OFFCURVE",
"740 170 CURVE",
"767 170 OFFCURVE",
"797 168 OFFCURVE",
"828 165 CURVE",
"805 114 OFFCURVE",
"774 89 OFFCURVE",
"736 89 CURVE SMOOTH"
);
}
);
width = 1900;
}
);
note = uniAA00;
unicode = AA00;
},
{
glyphname = uniAA01;
lastChange = "2016-12-13 16:46:34 +0000";
layers = (
{
layerId = "2D060796-9665-4FEC-A6D6-D718506F2B5F";
paths = (
{
closed = 1;
nodes = (
"799 -500 OFFCURVE",
"896 -447 OFFCURVE",
"965 -340 CURVE SMOOTH",
"1034 -233 OFFCURVE",
"1091 -177 OFFCURVE",
"1137 -170 CURVE",
"1142 -169 OFFCURVE",
"1147 -169 OFFCURVE",
"1152 -169 CURVE SMOOTH",
"1194 -169 OFFCURVE",
"1215 -191 OFFCURVE",
"1215 -236 CURVE SMOOTH",
"1215 -238 LINE SMOOTH",
"1214 -297 OFFCURVE",
"1191 -360 OFFCURVE",
"1144 -429 CURVE",
"1268 -477 LINE",
"1331 -386 OFFCURVE",
"1362 -293 OFFCURVE",
"1362 -200 CURVE SMOOTH",
"1362 -177 OFFCURVE",
"1360 -153 OFFCURVE",
"1357 -128 CURVE SMOOTH",
"1344 -36 OFFCURVE",
"1283 10 OFFCURVE",
"1173 10 CURVE SMOOTH",
"1083 10 OFFCURVE",
"997 -48 OFFCURVE",
"916 -165 CURVE SMOOTH",
"834 -282 OFFCURVE",
"754 -340 OFFCURVE",
"676 -340 CURVE SMOOTH",
"632 -340 OFFCURVE",
"610 -293 OFFCURVE",
"610 -200 CURVE SMOOTH",
"610 -97 OFFCURVE",
"775 28 OFFCURVE",
"1106 173 CURVE SMOOTH",
"1435 315 OFFCURVE",
"1600 522 OFFCURVE",
"1600 793 CURVE SMOOTH",
"1600 1064 OFFCURVE",
"1478 1200 OFFCURVE",
"1235 1200 CURVE SMOOTH",
"1140 1200 OFFCURVE",
"1053 1177 OFFCURVE",
"976 1130 CURVE SMOOTH",
"937 1107 OFFCURVE",
"899 1095 OFFCURVE",
"860 1095 CURVE SMOOTH",
"821 1095 OFFCURVE",
"783 1107 OFFCURVE",
"745 1130 CURVE SMOOTH",
"668 1177 OFFCURVE",
"581 1200 OFFCURVE",
"485 1200 CURVE SMOOTH",
"474 1200 OFFCURVE",
"459 1199 OFFCURVE",
"441 1196 CURVE",
"214 1171 OFFCURVE",
"100 1023 OFFCURVE",
"100 750 CURVE SMOOTH",
"100 450 OFFCURVE",
"213 300 OFFCURVE",
"440 300 CURVE SMOOTH",
"508 300 OFFCURVE",
"565 357 OFFCURVE",
"565 425 CURVE",
"568 492 OFFCURVE",
"503 553 OFFCURVE",
"440 550 CURVE",
"397 550 OFFCURVE",
"372 547 OFFCURVE",
"341 499 CURVE",
"294 512 OFFCURVE",
"270 595 OFFCURVE",
"270 750 CURVE SMOOTH",
"270 937 OFFCURVE",
"345 1030 OFFCURVE",
"495 1030 CURVE SMOOTH",
"575 1030 OFFCURVE",
"649 1010 OFFCURVE",
"718 970 CURVE SMOOTH",
"752 950 OFFCURVE",
"799 940 OFFCURVE",
"860 940 CURVE SMOOTH",
"921 940 OFFCURVE",
"969 950 OFFCURVE",
"1003 970 CURVE SMOOTH",
"1072 1010 OFFCURVE",
"1149 1030 OFFCURVE",
"1235 1030 CURVE SMOOTH",
"1367 1030 OFFCURVE",
"1433 945 OFFCURVE",
"1433 776 CURVE SMOOTH",
"1433 599 OFFCURVE",
"1313 452 OFFCURVE",
"1072 335 CURVE",
"659 179 OFFCURVE",
"452 1 OFFCURVE",
"452 -200 CURVE SMOOTH",
"452 -400 OFFCURVE",
"527 -500 OFFCURVE",
"676 -500 CURVE SMOOTH"
);
}
);
width = 1700;
},
{
layerId = "B424D511-FB10-4699-AE11-5105CBAA4600";
paths = (
{
closed = 1;
nodes = (
"799 -500 OFFCURVE",
"896 -447 OFFCURVE",
"965 -340 CURVE SMOOTH",
"1034 -233 OFFCURVE",
"1091 -177 OFFCURVE",
"1137 -170 CURVE",
"1142 -169 OFFCURVE",
"1147 -169 OFFCURVE",
"1152 -169 CURVE SMOOTH",
"1194 -169 OFFCURVE",
"1215 -191 OFFCURVE",
"1215 -236 CURVE SMOOTH",
"1215 -238 LINE SMOOTH",
"1214 -297 OFFCURVE",
"1191 -360 OFFCURVE",
"1144 -429 CURVE",
"1268 -477 LINE",
"1331 -386 OFFCURVE",
"1362 -293 OFFCURVE",
"1362 -200 CURVE SMOOTH",
"1362 -177 OFFCURVE",
"1360 -153 OFFCURVE",
"1357 -128 CURVE SMOOTH",
"1344 -36 OFFCURVE",
"1283 10 OFFCURVE",
"1173 10 CURVE SMOOTH",
"1083 10 OFFCURVE",
"997 -40 OFFCURVE",
"916 -140 CURVE SMOOTH",
"834 -240 OFFCURVE",
"754 -290 OFFCURVE",
"676 -290 CURVE SMOOTH",
"632 -290 OFFCURVE",
"610 -260 OFFCURVE",
"610 -200 CURVE SMOOTH",
"610 -97 OFFCURVE",
"775 28 OFFCURVE",
"1106 173 CURVE SMOOTH",
"1435 315 OFFCURVE",
"1600 522 OFFCURVE",
"1600 793 CURVE SMOOTH",
"1600 1064 OFFCURVE",
"1478 1200 OFFCURVE",
"1235 1200 CURVE SMOOTH",
"1140 1200 OFFCURVE",
"1053 1177 OFFCURVE",
"976 1130 CURVE SMOOTH",
"937 1107 OFFCURVE",
"899 1095 OFFCURVE",
"860 1095 CURVE SMOOTH",
"821 1095 OFFCURVE",
"783 1107 OFFCURVE",
"745 1130 CURVE SMOOTH",
"668 1177 OFFCURVE",
"581 1200 OFFCURVE",
"485 1200 CURVE SMOOTH",
"474 1200 OFFCURVE",
"459 1199 OFFCURVE",
"441 1196 CURVE",
"214 1171 OFFCURVE",
"100 1023 OFFCURVE",
"100 750 CURVE SMOOTH",
"100 450 OFFCURVE",
"213 300 OFFCURVE",
"440 300 CURVE SMOOTH",
"508 300 OFFCURVE",
"565 357 OFFCURVE",
"565 425 CURVE",
"568 492 OFFCURVE",
"503 553 OFFCURVE",
"440 550 CURVE",
"397 550 OFFCURVE",
"372 547 OFFCURVE",
"341 499 CURVE",
"294 512 OFFCURVE",
"270 595 OFFCURVE",
"270 750 CURVE SMOOTH",
"270 870 OFFCURVE",
"345 930 OFFCURVE",
"495 930 CURVE SMOOTH",
"575 930 OFFCURVE",
"649 910 OFFCURVE",
"718 870 CURVE SMOOTH",
"752 850 OFFCURVE",
"799 840 OFFCURVE",
"860 840 CURVE SMOOTH",
"921 840 OFFCURVE",
"969 850 OFFCURVE",
"1003 870 CURVE SMOOTH",
"1072 910 OFFCURVE",
"1149 930 OFFCURVE",
"1235 930 CURVE SMOOTH",
"1367 930 OFFCURVE",
"1433 879 OFFCURVE",
"1433 776 CURVE SMOOTH",
"1433 599 OFFCURVE",
"1313 452 OFFCURVE",
"1072 335 CURVE",
"659 179 OFFCURVE",
"452 1 OFFCURVE",
"452 -200 CURVE SMOOTH",
"452 -400 OFFCURVE",
"527 -500 OFFCURVE",
"676 -500 CURVE SMOOTH"
);
}
);
width = 1700;
}
);
note = uniAA01;
unicode = AA01;
},
{
glyphname = uniAA02;
lastChange = "2016-12-13 16:46:44 +0000";
layers = (
{
layerId = "2D060796-9665-4FEC-A6D6-D718506F2B5F";
paths = (
{
closed = 1;
nodes = (
"714 0 OFFCURVE",
"799 99 OFFCURVE",
"799 296 CURVE",
"684 316 LINE",
"667 199 OFFCURVE",
"621 140 OFFCURVE",
"545 140 CURVE SMOOTH",
"482 140 OFFCURVE",
"451 160 OFFCURVE",
"451 200 CURVE SMOOTH",
"451 242 OFFCURVE",
"488 294 OFFCURVE",
"561 357 CURVE",
"820 546 OFFCURVE",
"950 710 OFFCURVE",
"950 850 CURVE SMOOTH",
"950 1083 OFFCURVE",
"808 1200 OFFCURVE",
"525 1200 CURVE SMOOTH",
"242 1200 OFFCURVE",
"100 1077 OFFCURVE",
"100 830 CURVE SMOOTH",
"100 657 OFFCURVE",
"186 555 OFFCURVE",
"357 525 CURVE",
"410 637 LINE",
"317 664 OFFCURVE",
"270 729 OFFCURVE",
"270 830 CURVE SMOOTH",
"270 963 OFFCURVE",
"355 1030 OFFCURVE",
"525 1030 CURVE SMOOTH",
"702 1030 OFFCURVE",
"790 970 OFFCURVE",
"790 850 CURVE SMOOTH",
"790 771 OFFCURVE",
"691 652 OFFCURVE",
"493 492 CURVE SMOOTH",
"358 387 OFFCURVE",
"291 289 OFFCURVE",
"291 200 CURVE SMOOTH",
"291 67 OFFCURVE",
"376 0 OFFCURVE",
"545 0 CURVE SMOOTH"
);
}
);
width = 1050;
},
{
layerId = "B424D511-FB10-4699-AE11-5105CBAA4600";
paths = (
{
closed = 1;
nodes = (
"714 0 OFFCURVE",
"799 99 OFFCURVE",
"799 296 CURVE",
"684 316 LINE",
"667 232 OFFCURVE",
"621 190 OFFCURVE",
"545 190 CURVE SMOOTH",
"482 190 OFFCURVE",
"451 203 OFFCURVE",
"451 230 CURVE SMOOTH",
"451 252 OFFCURVE",
"488 294 OFFCURVE",
"561 357 CURVE",
"820 546 OFFCURVE",
"950 710 OFFCURVE",
"950 850 CURVE SMOOTH",
"950 1083 OFFCURVE",
"808 1200 OFFCURVE",
"525 1200 CURVE SMOOTH",
"242 1200 OFFCURVE",
"100 1077 OFFCURVE",
"100 830 CURVE SMOOTH",
"100 657 OFFCURVE",
"186 555 OFFCURVE",
"357 525 CURVE",
"410 637 LINE",
"317 664 OFFCURVE",
"270 729 OFFCURVE",
"270 830 CURVE SMOOTH",
"270 903 OFFCURVE",
"355 940 OFFCURVE",
"525 940 CURVE SMOOTH",
"702 940 OFFCURVE",
"790 910 OFFCURVE",
"790 850 CURVE SMOOTH",
"790 771 OFFCURVE",
"691 652 OFFCURVE",
"493 492 CURVE SMOOTH",
"358 387 OFFCURVE",
"291 289 OFFCURVE",
"291 200 CURVE SMOOTH",
"291 67 OFFCURVE",
"376 0 OFFCURVE",
"545 0 CURVE SMOOTH"
);
}
);
width = 1050;
}
);
note = uniAA02;
unicode = AA02;
},
{
glyphname = uniAA03;
lastChange = "2016-12-13 16:50:34 +0000";
layers = (
{
layerId = "2D060796-9665-4FEC-A6D6-D718506F2B5F";
paths = (
{
closed = 1;
nodes = (
"1076 92 LINE",
"1058 109 OFFCURVE",
"1049 136 OFFCURVE",
"1049 173 CURVE SMOOTH",
"1049 272 OFFCURVE",
"1085 350 OFFCURVE",
"1156 407 CURVE SMOOTH",
"1227 464 OFFCURVE",
"1263 530 OFFCURVE",
"1263 607 CURVE SMOOTH",
"1263 641 OFFCURVE",
"1258 677 OFFCURVE",
"1247 716 CURVE",
"1316 752 OFFCURVE",
"1350 847 OFFCURVE",
"1350 1000 CURVE SMOOTH",
"1350 1111 OFFCURVE",
"1308 1210 OFFCURVE",
"1223 1296 CURVE SMOOTH",
"1138 1382 OFFCURVE",
"1096 1461 OFFCURVE",
"1096 1534 CURVE SMOOTH",
"1096 1631 OFFCURVE",
"1153 1680 OFFCURVE",
"1266 1680 CURVE SMOOTH",
"1379 1680 OFFCURVE",
"1436 1631 OFFCURVE",
"1436 1534 CURVE SMOOTH",
"1436 1446 OFFCURVE",
"1416 1377 OFFCURVE",
"1375 1328 CURVE",
"1473 1280 LINE",
"1555 1349 OFFCURVE",
"1596 1434 OFFCURVE",
"1596 1534 CURVE SMOOTH",
"1596 1745 OFFCURVE",
"1486 1850 OFFCURVE",
"1266 1850 CURVE SMOOTH",
"1046 1850 OFFCURVE",
"936 1745 OFFCURVE",
"936 1534 CURVE SMOOTH",
"936 1437 OFFCURVE",
"978 1348 OFFCURVE",
"1063 1265 CURVE SMOOTH",
"1148 1182 OFFCURVE",
"1190 1094 OFFCURVE",
"1190 1000 CURVE SMOOTH",
"1190 945 OFFCURVE",
"1186 901 OFFCURVE",
"1177 869 CURVE",
"1159 923 OFFCURVE",
"1122 950 OFFCURVE",
"1065 950 CURVE SMOOTH",
"982 950 OFFCURVE",
"940 908 OFFCURVE",
"940 825 CURVE SMOOTH",
"940 750 OFFCURVE",
"988 708 OFFCURVE",
"1084 701 CURVE",
"1093 676 OFFCURVE",
"1098 652 OFFCURVE",
"1098 629 CURVE SMOOTH",
"1098 600 OFFCURVE",
"1061 546 OFFCURVE",
"988 465 CURVE SMOOTH",
"914 384 OFFCURVE",
"877 319 OFFCURVE",
"877 269 CURVE SMOOTH",
"877 236 OFFCURVE",
"884 202 OFFCURVE",
"897 165 CURVE",
"740 203 OFFCURVE",
"654 281 OFFCURVE",
"641 400 CURVE",
"641 478 OFFCURVE",
"654 548 OFFCURVE",
"681 611 CURVE SMOOTH",
"707 674 OFFCURVE",
"730 750 OFFCURVE",
"750 840 CURVE",
"751 854 OFFCURVE",
"751 867 OFFCURVE",
"751 880 CURVE SMOOTH",
"751 1091 OFFCURVE",
"639 1197 OFFCURVE",
"416 1197 CURVE SMOOTH",
"205 1197 OFFCURVE",
"100 1075 OFFCURVE",
"100 830 CURVE SMOOTH",
"100 657 OFFCURVE",
"159 554 OFFCURVE",
"278 523 CURVE",
"356 618 LINE",
"292 645 OFFCURVE",
"260 715 OFFCURVE",
"260 830 CURVE SMOOTH",
"260 953 OFFCURVE",
"315 1020 OFFCURVE",
"425 1029 CURVE",
"536 1022 OFFCURVE",
"592 969 OFFCURVE",
"592 871 CURVE SMOOTH",
"592 861 OFFCURVE",
"591 851 OFFCURVE",
"590 840 CURVE",
"570 754 OFFCURVE",
"547 678 OFFCURVE",
"521 612 CURVE SMOOTH",
"494 546 OFFCURVE",
"481 475 OFFCURVE",
"481 400 CURVE",
"494 180 OFFCURVE",
"676 47 OFFCURVE",
"1025 0 CURVE"
);
}
);
width = 1596;
},
{
layerId = "B424D511-FB10-4699-AE11-5105CBAA4600";
paths = (
{
closed = 1;
nodes = (
"1076 92 LINE",
"1058 109 OFFCURVE",
"1049 136 OFFCURVE",
"1049 173 CURVE SMOOTH",
"1049 272 OFFCURVE",
"1085 350 OFFCURVE",
"1156 407 CURVE SMOOTH",
"1227 464 OFFCURVE",
"1263 530 OFFCURVE",
"1263 607 CURVE SMOOTH",
"1263 641 OFFCURVE",
"1258 677 OFFCURVE",
"1247 716 CURVE",
"1316 752 OFFCURVE",
"1350 847 OFFCURVE",
"1350 1000 CURVE SMOOTH",
"1350 1111 OFFCURVE",
"1308 1210 OFFCURVE",
"1223 1296 CURVE SMOOTH",
"1138 1382 OFFCURVE",
"1096 1455 OFFCURVE",
"1096 1514 CURVE SMOOTH",
"1096 1558 OFFCURVE",
"1153 1580 OFFCURVE",
"1266 1580 CURVE SMOOTH",
"1379 1580 OFFCURVE",
"1436 1558 OFFCURVE",
"1436 1514 CURVE SMOOTH",
"1436 1439 OFFCURVE",
"1416 1377 OFFCURVE",
"1375 1328 CURVE",
"1473 1280 LINE",
"1555 1349 OFFCURVE",
"1596 1427 OFFCURVE",
"1596 1514 CURVE SMOOTH",
"1596 1738 OFFCURVE",
"1486 1850 OFFCURVE",
"1266 1850 CURVE SMOOTH",
"1046 1850 OFFCURVE",
"936 1745 OFFCURVE",
"936 1534 CURVE SMOOTH",
"936 1437 OFFCURVE",
"978 1348 OFFCURVE",
"1063 1265 CURVE SMOOTH",
"1148 1182 OFFCURVE",
"1190 1094 OFFCURVE",
"1190 1000 CURVE SMOOTH",
"1190 945 OFFCURVE",
"1186 901 OFFCURVE",
"1177 869 CURVE",
"1159 923 OFFCURVE",
"1122 950 OFFCURVE",
"1065 950 CURVE SMOOTH",
"982 950 OFFCURVE",
"940 908 OFFCURVE",
"940 825 CURVE SMOOTH",
"940 750 OFFCURVE",
"988 708 OFFCURVE",
"1084 701 CURVE",
"1093 676 OFFCURVE",
"1098 652 OFFCURVE",
"1098 629 CURVE SMOOTH",
"1098 600 OFFCURVE",
"1071 559 OFFCURVE",
"1016 506 CURVE SMOOTH",
"961 452 OFFCURVE",
"924 399 OFFCURVE",
"905 348 CURVE SMOOTH",
"894 317 OFFCURVE",
"889 290 OFFCURVE",
"889 265 CURVE SMOOTH",
"889 247 OFFCURVE",
"892 230 OFFCURVE",
"897 215 CURVE",
"740 253 OFFCURVE",
"654 315 OFFCURVE",
"641 400 CURVE",
"641 478 OFFCURVE",
"654 548 OFFCURVE",
"681 611 CURVE SMOOTH",
"707 674 OFFCURVE",
"730 750 OFFCURVE",
"750 840 CURVE",
"751 854 OFFCURVE",
"751 867 OFFCURVE",
"751 880 CURVE SMOOTH",
"751 1091 OFFCURVE",
"639 1197 OFFCURVE",
"416 1197 CURVE SMOOTH",
"205 1197 OFFCURVE",
"100 1075 OFFCURVE",
"100 830 CURVE SMOOTH",
"100 657 OFFCURVE",
"159 554 OFFCURVE",
"278 523 CURVE",
"356 618 LINE",
"292 645 OFFCURVE",
"260 715 OFFCURVE",
"260 830 CURVE SMOOTH",
"260 887 OFFCURVE",
"315 920 OFFCURVE",
"425 929 CURVE",
"526 922 OFFCURVE",
"577 890 OFFCURVE",
"577 832 CURVE SMOOTH",
"577 827 OFFCURVE",
"577 821 OFFCURVE",
"576 815 CURVE SMOOTH",
"565 746 OFFCURVE",
"547 678 OFFCURVE",
"521 612 CURVE SMOOTH",
"494 546 OFFCURVE",
"481 475 OFFCURVE",
"481 400 CURVE",
"494 180 OFFCURVE",
"676 47 OFFCURVE",
"1025 0 CURVE"
);
}
);
width = 1596;
}
);
note = uniAA03;
unicode = AA03;
},
{
glyphname = uniAA04;
lastChange = "2016-12-13 16:51:07 +0000";
layers = (
{
layerId = "2D060796-9665-4FEC-A6D6-D718506F2B5F";
paths = (
{
closed = 1;
nodes = (
"959 -500 OFFCURVE",
"1072 -417 OFFCURVE",
"1072 -250 CURVE SMOOTH",
"1072 -171 OFFCURVE",
"1029 -92 OFFCURVE",
"943 -13 CURVE",
"850 -100 LINE",
"891 -145 OFFCURVE",
"912 -195 OFFCURVE",
"912 -250 CURVE SMOOTH",
"912 -323 OFFCURVE",
"852 -360 OFFCURVE",
"732 -360 CURVE SMOOTH",
"651 -360 OFFCURVE",
"610 -313 OFFCURVE",
"610 -220 CURVE SMOOTH",
"610 -103 OFFCURVE",
"775 28 OFFCURVE",
"1106 173 CURVE SMOOTH",
"1435 315 OFFCURVE",
"1600 521 OFFCURVE",
"1600 790 CURVE SMOOTH",
"1600 1063 OFFCURVE",
"1478 1200 OFFCURVE",
"1235 1200 CURVE SMOOTH",
"1140 1200 OFFCURVE",
"1053 1177 OFFCURVE",
"976 1130 CURVE SMOOTH",
"937 1107 OFFCURVE",
"899 1095 OFFCURVE",
"860 1095 CURVE SMOOTH",
"821 1095 OFFCURVE",
"783 1107 OFFCURVE",
"745 1130 CURVE SMOOTH",
"668 1177 OFFCURVE",
"581 1200 OFFCURVE",
"485 1200 CURVE SMOOTH",
"474 1200 OFFCURVE",
"459 1199 OFFCURVE",
"441 1196 CURVE",
"214 1171 OFFCURVE",
"100 1023 OFFCURVE",
"100 750 CURVE SMOOTH",
"100 450 OFFCURVE",
"213 300 OFFCURVE",
"440 300 CURVE SMOOTH",
"508 300 OFFCURVE",
"565 357 OFFCURVE",
"565 425 CURVE",
"568 492 OFFCURVE",
"503 553 OFFCURVE",
"440 550 CURVE",
"397 550 OFFCURVE",
"372 547 OFFCURVE",
"341 499 CURVE",
"287 512 OFFCURVE",
"260 595 OFFCURVE",
"260 750 CURVE SMOOTH",
"260 937 OFFCURVE",
"338 1030 OFFCURVE",
"495 1030 CURVE SMOOTH",
"575 1030 OFFCURVE",
"649 1010 OFFCURVE",
"718 970 CURVE SMOOTH",
"752 950 OFFCURVE",
"799 940 OFFCURVE",
"860 940 CURVE SMOOTH",
"921 940 OFFCURVE",
"969 950 OFFCURVE",
"1003 970 CURVE SMOOTH",
"1072 1010 OFFCURVE",
"1149 1030 OFFCURVE",
"1235 1030 CURVE SMOOTH",
"1372 1030 OFFCURVE",
"1440 950 OFFCURVE",
"1440 790 CURVE SMOOTH",
"1440 604 OFFCURVE",
"1317 452 OFFCURVE",
"1072 335 CURVE",
"659 179 OFFCURVE",
"452 -6 OFFCURVE",
"452 -220 CURVE SMOOTH",
"452 -407 OFFCURVE",
"545 -500 OFFCURVE",
"732 -500 CURVE SMOOTH"
);
}
);
width = 1700;
},
{
layerId = "B424D511-FB10-4699-AE11-5105CBAA4600";
paths = (
{
closed = 1;
nodes = (
"959 -500 OFFCURVE",
"1072 -417 OFFCURVE",
"1072 -250 CURVE SMOOTH",
"1072 -171 OFFCURVE",
"1029 -92 OFFCURVE",
"943 -13 CURVE",
"850 -100 LINE",
"891 -145 OFFCURVE",
"912 -195 OFFCURVE",
"912 -250 CURVE SMOOTH",
"912 -290 OFFCURVE",
"852 -310 OFFCURVE",
"732 -310 CURVE SMOOTH",
"651 -310 OFFCURVE",
"610 -280 OFFCURVE",
"610 -220 CURVE SMOOTH",
"610 -103 OFFCURVE",
"775 28 OFFCURVE",
"1106 173 CURVE SMOOTH",
"1435 315 OFFCURVE",
"1600 521 OFFCURVE",
"1600 790 CURVE SMOOTH",
"1600 1063 OFFCURVE",
"1478 1200 OFFCURVE",
"1235 1200 CURVE SMOOTH",
"1140 1200 OFFCURVE",
"1053 1177 OFFCURVE",
"976 1130 CURVE SMOOTH",
"937 1107 OFFCURVE",
"899 1095 OFFCURVE",
"860 1095 CURVE SMOOTH",
"821 1095 OFFCURVE",
"783 1107 OFFCURVE",
"745 1130 CURVE SMOOTH",
"668 1177 OFFCURVE",
"581 1200 OFFCURVE",
"485 1200 CURVE SMOOTH",
"474 1200 OFFCURVE",
"459 1199 OFFCURVE",
"441 1196 CURVE",
"214 1171 OFFCURVE",
"100 1023 OFFCURVE",
"100 750 CURVE SMOOTH",
"100 450 OFFCURVE",
"213 300 OFFCURVE",
"440 300 CURVE SMOOTH",
"508 300 OFFCURVE",
"565 357 OFFCURVE",
"565 425 CURVE",
"568 492 OFFCURVE",
"503 553 OFFCURVE",
"440 550 CURVE",
"397 550 OFFCURVE",
"372 547 OFFCURVE",
"341 499 CURVE",
"287 512 OFFCURVE",
"260 595 OFFCURVE",
"260 750 CURVE SMOOTH",
"260 870 OFFCURVE",
"338 930 OFFCURVE",
"495 930 CURVE SMOOTH",
"575 930 OFFCURVE",
"649 910 OFFCURVE",
"718 870 CURVE SMOOTH",
"752 850 OFFCURVE",
"799 840 OFFCURVE",
"860 840 CURVE SMOOTH",
"921 840 OFFCURVE",
"969 850 OFFCURVE",
"1003 870 CURVE SMOOTH",
"1072 910 OFFCURVE",
"1149 930 OFFCURVE",
"1235 930 CURVE SMOOTH",
"1372 930 OFFCURVE",
"1440 883 OFFCURVE",
"1440 790 CURVE SMOOTH",
"1440 604 OFFCURVE",
"1317 452 OFFCURVE",
"1072 335 CURVE",
"659 179 OFFCURVE",
"452 -6 OFFCURVE",
"452 -220 CURVE SMOOTH",
"452 -407 OFFCURVE",
"545 -500 OFFCURVE",
"732 -500 CURVE SMOOTH"
);
}
);
width = 1700;
}
);
note = uniAA04;
unicode = AA04;
},
{
glyphname = uniAA05;
lastChange = "2016-12-13 16:41:45 +0000";
layers = (
{
layerId = "2D060796-9665-4FEC-A6D6-D718506F2B5F";
paths = (
{
closed = 1;
nodes = (
"797 0 OFFCURVE",
"893 49 OFFCURVE",
"928 147 CURVE",
"983 138 OFFCURVE",
"1026 119 OFFCURVE",
"1055 91 CURVE",
"1081 191 LINE",
"1037 226 OFFCURVE",
"992 249 OFFCURVE",
"945 260 CURVE",
"948 285 OFFCURVE",
"950 305 OFFCURVE",
"950 320 CURVE SMOOTH",
"950 405 OFFCURVE",
"908 475 OFFCURVE",
"825 530 CURVE",
"908 596 OFFCURVE",
"950 686 OFFCURVE",
"950 800 CURVE SMOOTH",
"950 1067 OFFCURVE",
"808 1200 OFFCURVE",
"525 1200 CURVE SMOOTH",
"242 1200 OFFCURVE",
"100 1050 OFFCURVE",
"100 750 CURVE SMOOTH",
"100 470 OFFCURVE",
"207 330 OFFCURVE",
"420 330 CURVE SMOOTH",
"488 330 OFFCURVE",
"545 387 OFFCURVE",
"545 455 CURVE",
"548 522 OFFCURVE",
"483 583 OFFCURVE",
"420 580 CURVE",
"391 580 OFFCURVE",
"367 576 OFFCURVE",
"327 529 CURVE",
"282 562 OFFCURVE",
"260 635 OFFCURVE",
"260 750 CURVE SMOOTH",
"260 937 OFFCURVE",
"350 1030 OFFCURVE",
"530 1030 CURVE SMOOTH",
"703 1030 OFFCURVE",
"790 953 OFFCURVE",
"790 800 CURVE SMOOTH",
"790 690 OFFCURVE",
"740 615 OFFCURVE",
"640 576 CURVE",
"640 500 LINE",
"740 475 OFFCURVE",
"790 415 OFFCURVE",
"790 320 CURVE SMOOTH",
"790 313 OFFCURVE",
"789 303 OFFCURVE",
"787 292 CURVE",
"741 297 OFFCURVE",
"692 299 OFFCURVE",
"641 300 CURVE SMOOTH",
"638 300 LINE SMOOTH",
"588 300 OFFCURVE",
"543 285 OFFCURVE",
"503 255 CURVE SMOOTH",
"468 228 OFFCURVE",
"450 186 OFFCURVE",
"450 130 CURVE SMOOTH",
"450 121 OFFCURVE",
"450 113 OFFCURVE",
"451 104 CURVE SMOOTH",
"457 35 OFFCURVE",
"520 0 OFFCURVE",
"640 0 CURVE SMOOTH"
);
},
{
closed = 1;
nodes = (
"600 120 OFFCURVE",
"580 128 OFFCURVE",
"580 145 CURVE SMOOTH",
"580 162 OFFCURVE",
"610 170 OFFCURVE",
"670 170 CURVE SMOOTH",
"704 170 OFFCURVE",
"737 168 OFFCURVE",
"768 165 CURVE",
"745 135 OFFCURVE",
"702 120 OFFCURVE",
"640 120 CURVE SMOOTH"
);
}
);
width = 1050;
},
{
layerId = "B424D511-FB10-4699-AE11-5105CBAA4600";
paths = (
{
closed = 1;
nodes = (
"745 135 OFFCURVE",
"702 120 OFFCURVE",
"640 120 CURVE SMOOTH",
"600 120 OFFCURVE",
"580 128 OFFCURVE",
"580 145 CURVE SMOOTH",
"580 162 OFFCURVE",
"610 170 OFFCURVE",
"670 170 CURVE SMOOTH",
"704 170 OFFCURVE",
"737 168 OFFCURVE",
"768 165 CURVE"
);
},
{
closed = 1;
nodes = (
"100 470 OFFCURVE",
"207 330 OFFCURVE",
"420 330 CURVE SMOOTH",
"488 330 OFFCURVE",
"545 387 OFFCURVE",
"545 455 CURVE",
"548 522 OFFCURVE",
"483 583 OFFCURVE",
"420 580 CURVE",
"391 580 OFFCURVE",
"367 576 OFFCURVE",
"327 529 CURVE",
"282 562 OFFCURVE",
"260 635 OFFCURVE",
"260 750 CURVE SMOOTH",
"260 870 OFFCURVE",
"350 930 OFFCURVE",
"530 930 CURVE SMOOTH",
"703 930 OFFCURVE",
"790 887 OFFCURVE",
"790 800 CURVE SMOOTH",
"790 690 OFFCURVE",
"740 615 OFFCURVE",
"640 576 CURVE",
"640 450 LINE",
"740 425 OFFCURVE",
"790 381 OFFCURVE",
"790 320 CURVE SMOOTH",
"790 313 OFFCURVE",
"789 303 OFFCURVE",
"787 292 CURVE",
"741 297 OFFCURVE",
"692 299 OFFCURVE",
"641 300 CURVE SMOOTH",
"638 300 LINE SMOOTH",
"588 300 OFFCURVE",
"543 285 OFFCURVE",
"503 255 CURVE SMOOTH",
"468 228 OFFCURVE",
"450 186 OFFCURVE",
"450 130 CURVE SMOOTH",
"450 121 OFFCURVE",
"450 113 OFFCURVE",
"451 104 CURVE SMOOTH",
"457 35 OFFCURVE",
"520 0 OFFCURVE",
"640 0 CURVE SMOOTH",
"797 0 OFFCURVE",
"893 49 OFFCURVE",
"928 147 CURVE",
"983 138 OFFCURVE",
"1026 119 OFFCURVE",
"1055 91 CURVE",
"1081 191 LINE",
"1037 226 OFFCURVE",
"992 249 OFFCURVE",
"945 260 CURVE",
"948 285 OFFCURVE",
"950 305 OFFCURVE",
"950 320 CURVE SMOOTH",
"950 405 OFFCURVE",
"908 475 OFFCURVE",
"825 530 CURVE",
"908 596 OFFCURVE",
"950 686 OFFCURVE",
"950 800 CURVE SMOOTH",
"950 1067 OFFCURVE",
"808 1200 OFFCURVE",
"525 1200 CURVE SMOOTH",
"242 1200 OFFCURVE",
"100 1050 OFFCURVE",
"100 750 CURVE SMOOTH"
);
}
);
width = 1050;
}
);
note = uniAA05;
unicode = AA05;
},
{
glyphname = uniAA06;
lastChange = "2016-12-13 16:41:45 +0000";
layers = (
{
layerId = "2D060796-9665-4FEC-A6D6-D718506F2B5F";
paths = (
{
closed = 1;
nodes = (
"254 41 OFFCURVE",
"301 120 OFFCURVE",
"322 211 CURVE SMOOTH",
"331 250 OFFCURVE",
"335 290 OFFCURVE",
"335 333 CURVE SMOOTH",
"335 390 OFFCURVE",
"327 450 OFFCURVE",
"311 513 CURVE",
"277 623 OFFCURVE",
"260 719 OFFCURVE",
"260 800 CURVE SMOOTH",
"260 953 OFFCURVE",
"338 1030 OFFCURVE",
"493 1030 CURVE SMOOTH",
"641 1030 OFFCURVE",
"732 963 OFFCURVE",
"767 830 CURVE",
"859 830 LINE",
"902 963 OFFCURVE",
"1008 1030 OFFCURVE",
"1177 1030 CURVE SMOOTH",
"1352 1030 OFFCURVE",
"1440 953 OFFCURVE",
"1440 800 CURVE SMOOTH",
"1440 677 OFFCURVE",
"1397 583 OFFCURVE",
"1312 520 CURVE",
"1387 410 LINE",
"1529 496 OFFCURVE",
"1600 626 OFFCURVE",
"1600 800 CURVE SMOOTH",
"1600 1067 OFFCURVE",
"1462 1200 OFFCURVE",
"1187 1200 CURVE SMOOTH",
"1003 1200 OFFCURVE",
"881 1140 OFFCURVE",
"820 1021 CURVE",
"761 1140 OFFCURVE",
"647 1200 OFFCURVE",
"477 1200 CURVE SMOOTH",
"226 1200 OFFCURVE",
"100 1067 OFFCURVE",
"100 800 CURVE SMOOTH",
"100 727 OFFCURVE",
"112 655 OFFCURVE",
"136 585 CURVE SMOOTH",
"159 515 OFFCURVE",
"171 432 OFFCURVE",
"171 336 CURVE SMOOTH",
"171 239 OFFCURVE",
"140 133 OFFCURVE",
"77 18 CURVE",
"179 -24 LINE"
);
}
);
width = 1700;
},
{
layerId = "B424D511-FB10-4699-AE11-5105CBAA4600";
paths = (
{
closed = 1;
nodes = (
"859 780 LINE",
"902 880 OFFCURVE",
"1008 930 OFFCURVE",
"1177 930 CURVE SMOOTH",
"1352 930 OFFCURVE",
"1440 887 OFFCURVE",
"1440 800 CURVE SMOOTH",
"1440 677 OFFCURVE",
"1397 583 OFFCURVE",
"1312 520 CURVE",
"1387 410 LINE",
"1529 496 OFFCURVE",
"1600 626 OFFCURVE",
"1600 800 CURVE SMOOTH",
"1600 1067 OFFCURVE",
"1462 1200 OFFCURVE",
"1187 1200 CURVE SMOOTH",
"1003 1200 OFFCURVE",
"881 1140 OFFCURVE",
"820 1021 CURVE",
"761 1140 OFFCURVE",
"647 1200 OFFCURVE",
"477 1200 CURVE SMOOTH",
"226 1200 OFFCURVE",
"100 1067 OFFCURVE",
"100 800 CURVE SMOOTH",
"100 727 OFFCURVE",
"112 655 OFFCURVE",
"136 585 CURVE SMOOTH",
"159 515 OFFCURVE",
"171 432 OFFCURVE",
"171 336 CURVE SMOOTH",
"171 239 OFFCURVE",
"140 133 OFFCURVE",
"77 18 CURVE",
"179 -24 LINE",
"254 41 OFFCURVE",
"301 120 OFFCURVE",
"322 211 CURVE SMOOTH",
"331 250 OFFCURVE",
"335 290 OFFCURVE",
"335 333 CURVE SMOOTH",
"335 390 OFFCURVE",
"327 450 OFFCURVE",
"311 513 CURVE",
"277 623 OFFCURVE",
"260 719 OFFCURVE",
"260 800 CURVE SMOOTH",
"260 887 OFFCURVE",
"338 930 OFFCURVE",
"493 930 CURVE SMOOTH",
"641 930 OFFCURVE",
"732 880 OFFCURVE",
"767 780 CURVE"
);
}
);
width = 1700;
}
);
note = uniAA06;
unicode = AA06;
},
{
glyphname = uniAA07;
lastChange = "2016-12-13 16:41:45 +0000";
layers = (
{
layerId = "2D060796-9665-4FEC-A6D6-D718506F2B5F";
paths = (
{
closed = 1;
nodes = (
"254 41 OFFCURVE",
"301 120 OFFCURVE",
"322 211 CURVE SMOOTH",
"331 250 OFFCURVE",
"335 290 OFFCURVE",
"335 333 CURVE SMOOTH",
"335 390 OFFCURVE",
"327 450 OFFCURVE",
"311 513 CURVE",
"277 623 OFFCURVE",
"260 719 OFFCURVE",
"260 800 CURVE SMOOTH",
"260 953 OFFCURVE",
"338 1030 OFFCURVE",
"493 1030 CURVE SMOOTH",
"628 1030 OFFCURVE",
"716 963 OFFCURVE",
"757 830 CURVE",
"849 830 LINE",
"898 963 OFFCURVE",
"994 1030 OFFCURVE",
"1137 1030 CURVE SMOOTH",
"1279 1030 OFFCURVE",
"1350 953 OFFCURVE",
"1350 800 CURVE SMOOTH",
"1350 735 OFFCURVE",
"1345 671 OFFCURVE",
"1335 606 CURVE",
"1260 562 LINE SMOOTH",
"1091 467 OFFCURVE",
"1003 350 OFFCURVE",
"996 210 CURVE",
"1003 70 OFFCURVE",
"1070 0 OFFCURVE",
"1197 0 CURVE SMOOTH",
"1258 0 OFFCURVE",
"1316 33 OFFCURVE",
"1372 98 CURVE SMOOTH",
"1428 163 OFFCURVE",
"1466 294 OFFCURVE",
"1486 491 CURVE",
"1649 545 OFFCURVE",
"1737 658 OFFCURVE",
"1750 830 CURVE SMOOTH",
"1761 963 OFFCURVE",
"1824 1030 OFFCURVE",
"1940 1030 CURVE SMOOTH",
"2067 1030 OFFCURVE",
"2130 977 OFFCURVE",
"2130 870 CURVE SMOOTH",
"2130 791 OFFCURVE",
"2089 730 OFFCURVE",
"2008 685 CURVE",
"2087 587 LINE",
"2222 670 OFFCURVE",
"2290 765 OFFCURVE",
"2290 870 CURVE SMOOTH",
"2290 1090 OFFCURVE",
"2173 1200 OFFCURVE",
"1940 1200 CURVE SMOOTH",
"1708 1200 OFFCURVE",
"1591 1077 OFFCURVE",
"1590 830 CURVE",
"1577 746 OFFCURVE",
"1549 695 OFFCURVE",
"1507 677 CURVE",
"1509 725 OFFCURVE",
"1510 766 OFFCURVE",
"1510 800 CURVE SMOOTH",
"1510 1067 OFFCURVE",
"1389 1200 OFFCURVE",
"1147 1200 CURVE SMOOTH",
"983 1200 OFFCURVE",
"871 1140 OFFCURVE",
"810 1021 CURVE",
"751 1140 OFFCURVE",
"640 1200 OFFCURVE",
"477 1200 CURVE SMOOTH",
"226 1200 OFFCURVE",
"100 1067 OFFCURVE",
"100 800 CURVE SMOOTH",
"100 727 OFFCURVE",
"112 655 OFFCURVE",
"136 585 CURVE SMOOTH",
"159 515 OFFCURVE",
"171 432 OFFCURVE",
"171 336 CURVE SMOOTH",
"171 239 OFFCURVE",
"140 133 OFFCURVE",
"77 18 CURVE",
"179 -24 LINE"
);
},
{
closed = 1;
nodes = (
"1167 151 OFFCURVE",
"1152 171 OFFCURVE",
"1152 210 CURVE SMOOTH",
"1152 287 OFFCURVE",
"1207 362 OFFCURVE",
"1318 436 CURVE",
"1307 358 OFFCURVE",
"1291 291 OFFCURVE",
"1271 235 CURVE SMOOTH",
"1250 179 OFFCURVE",
"1226 151 OFFCURVE",
"1197 151 CURVE SMOOTH"
);
}
);
width = 2390;
},
{
layerId = "B424D511-FB10-4699-AE11-5105CBAA4600";
paths = (
{
closed = 1;
nodes = (
"1295 280 OFFCURVE",
"1254 201 OFFCURVE",
"1197 201 CURVE SMOOTH",
"1167 201 OFFCURVE",
"1152 221 OFFCURVE",
"1152 260 CURVE SMOOTH",
"1152 303 OFFCURVE",
"1207 362 OFFCURVE",
"1318 436 CURVE"
);
},
{
closed = 1;
nodes = (
"849 780 LINE",
"898 880 OFFCURVE",
"994 930 OFFCURVE",
"1137 930 CURVE SMOOTH",
"1279 930 OFFCURVE",
"1350 887 OFFCURVE",
"1350 800 CURVE SMOOTH",
"1350 735 OFFCURVE",
"1345 671 OFFCURVE",
"1335 606 CURVE",
"1260 562 LINE SMOOTH",
"1091 467 OFFCURVE",
"1003 350 OFFCURVE",
"996 210 CURVE",
"1003 70 OFFCURVE",
"1070 0 OFFCURVE",
"1197 0 CURVE SMOOTH",
"1258 0 OFFCURVE",
"1316 33 OFFCURVE",
"1372 98 CURVE SMOOTH",
"1428 163 OFFCURVE",
"1466 294 OFFCURVE",
"1486 491 CURVE",
"1649 545 OFFCURVE",
"1737 658 OFFCURVE",
"1750 830 CURVE",
"1761 897 OFFCURVE",
"1824 930 OFFCURVE",
"1940 930 CURVE SMOOTH",
"2067 930 OFFCURVE",
"2130 900 OFFCURVE",
"2130 840 CURVE SMOOTH",
"2130 781 OFFCURVE",
"2089 730 OFFCURVE",
"2008 685 CURVE",
"2087 587 LINE",
"2222 670 OFFCURVE",
"2290 765 OFFCURVE",
"2290 870 CURVE SMOOTH",
"2290 1090 OFFCURVE",
"2173 1200 OFFCURVE",
"1940 1200 CURVE SMOOTH",
"1708 1200 OFFCURVE",
"1591 1077 OFFCURVE",
"1590 830 CURVE",
"1577 746 OFFCURVE",
"1549 695 OFFCURVE",
"1507 677 CURVE",
"1509 725 OFFCURVE",
"1510 766 OFFCURVE",
"1510 800 CURVE SMOOTH",
"1510 1067 OFFCURVE",
"1389 1200 OFFCURVE",
"1147 1200 CURVE SMOOTH",
"983 1200 OFFCURVE",
"871 1140 OFFCURVE",
"810 1021 CURVE",
"751 1140 OFFCURVE",
"640 1200 OFFCURVE",
"477 1200 CURVE SMOOTH",
"226 1200 OFFCURVE",
"100 1067 OFFCURVE",
"100 800 CURVE SMOOTH",
"100 727 OFFCURVE",
"112 655 OFFCURVE",
"136 585 CURVE SMOOTH",
"159 515 OFFCURVE",
"171 432 OFFCURVE",
"171 336 CURVE SMOOTH",
"171 239 OFFCURVE",
"140 133 OFFCURVE",
"77 18 CURVE",
"179 -24 LINE",
"254 41 OFFCURVE",
"301 120 OFFCURVE",
"322 211 CURVE SMOOTH",
"331 250 OFFCURVE",
"335 290 OFFCURVE",
"335 333 CURVE SMOOTH",
"335 390 OFFCURVE",
"327 450 OFFCURVE",
"311 513 CURVE",
"277 623 OFFCURVE",
"260 719 OFFCURVE",
"260 800 CURVE SMOOTH",
"260 887 OFFCURVE",
"338 930 OFFCURVE",
"493 930 CURVE SMOOTH",
"628 930 OFFCURVE",
"716 880 OFFCURVE",
"757 780 CURVE"
);
}
);
width = 2390;
}
);
note = uniAA07;
unicode = AA07;
},
{
glyphname = uniAA08;
lastChange = "2016-12-13 16:41:45 +0000";
layers = (
{
layerId = "2D060796-9665-4FEC-A6D6-D718506F2B5F";
paths = (
{
closed = 1;
nodes = (
"539 -1 OFFCURVE",
"561 0 OFFCURVE",
"584 3 CURVE",
"624 11 OFFCURVE",
"658 41 OFFCURVE",
"673 90 CURVE",
"677 106 OFFCURVE",
"679 121 OFFCURVE",
"679 135 CURVE SMOOTH",
"679 143 OFFCURVE",
"678 151 OFFCURVE",
"677 159 CURVE",
"669 203 OFFCURVE",
"640 240 OFFCURVE",
"600 255 CURVE",
"587 259 OFFCURVE",
"574 261 OFFCURVE",
"562 261 CURVE SMOOTH",
"555 261 OFFCURVE",
"548 260 OFFCURVE",
"541 259 CURVE",
"522 255 OFFCURVE",
"503 248 OFFCURVE",
"486 239 CURVE SMOOTH",
"468 229 OFFCURVE",
"456 207 OFFCURVE",
"449 173 CURVE",
"450 167 LINE",
"389 194 OFFCURVE",
"342 250 OFFCURVE",
"309 335 CURVE SMOOTH",
"276 420 OFFCURVE",
"260 517 OFFCURVE",
"260 627 CURVE SMOOTH",
"260 896 OFFCURVE",
"338 1030 OFFCURVE",
"493 1030 CURVE SMOOTH",
"641 1030 OFFCURVE",
"732 963 OFFCURVE",
"767 830 CURVE",
"859 830 LINE",
"902 963 OFFCURVE",
"1008 1030 OFFCURVE",
"1177 1030 CURVE SMOOTH",
"1352 1030 OFFCURVE",
"1440 953 OFFCURVE",
"1440 800 CURVE SMOOTH",
"1440 690 OFFCURVE",
"1410 597 OFFCURVE",
"1350 522 CURVE",
"1452 433 LINE",
"1551 544 OFFCURVE",
"1600 666 OFFCURVE",
"1600 800 CURVE SMOOTH",
"1600 1067 OFFCURVE",
"1462 1200 OFFCURVE",
"1187 1200 CURVE SMOOTH",
"1003 1200 OFFCURVE",
"881 1140 OFFCURVE",
"820 1021 CURVE",
"761 1140 OFFCURVE",
"647 1200 OFFCURVE",
"477 1200 CURVE SMOOTH",
"226 1200 OFFCURVE",
"100 1009 OFFCURVE",
"100 627 CURVE SMOOTH",
"100 481 OFFCURVE",
"129 349 OFFCURVE",
"186 230 CURVE SMOOTH",
"261 76 OFFCURVE",
"371 -1 OFFCURVE",
"518 -1 CURVE SMOOTH"
);
}
);
width = 1700;
},
{
layerId = "B424D511-FB10-4699-AE11-5105CBAA4600";
paths = (
{
closed = 1;
nodes = (
"1600 1067 OFFCURVE",
"1462 1200 OFFCURVE",
"1187 1200 CURVE SMOOTH",
"1003 1200 OFFCURVE",
"881 1140 OFFCURVE",
"820 1021 CURVE",
"761 1140 OFFCURVE",
"647 1200 OFFCURVE",
"477 1200 CURVE SMOOTH",
"226 1200 OFFCURVE",
"100 1009 OFFCURVE",
"100 627 CURVE SMOOTH",
"100 481 OFFCURVE",
"129 349 OFFCURVE",
"186 230 CURVE SMOOTH",
"261 76 OFFCURVE",
"371 -1 OFFCURVE",
"518 -1 CURVE SMOOTH",
"539 -1 OFFCURVE",
"561 0 OFFCURVE",
"584 3 CURVE",
"624 11 OFFCURVE",
"658 41 OFFCURVE",
"673 90 CURVE",
"677 106 OFFCURVE",
"679 121 OFFCURVE",
"679 135 CURVE SMOOTH",
"679 143 OFFCURVE",
"678 151 OFFCURVE",
"677 159 CURVE",
"669 203 OFFCURVE",
"640 240 OFFCURVE",
"600 255 CURVE",
"587 259 OFFCURVE",
"574 261 OFFCURVE",
"562 261 CURVE SMOOTH",
"555 261 OFFCURVE",
"548 260 OFFCURVE",
"541 259 CURVE",
"522 255 OFFCURVE",
"503 248 OFFCURVE",
"486 239 CURVE SMOOTH",
"468 229 OFFCURVE",
"456 207 OFFCURVE",
"449 173 CURVE",
"450 167 LINE",
"389 194 OFFCURVE",
"342 250 OFFCURVE",
"309 335 CURVE SMOOTH",
"276 420 OFFCURVE",
"260 517 OFFCURVE",
"260 627 CURVE SMOOTH",
"260 829 OFFCURVE",
"338 930 OFFCURVE",
"493 930 CURVE SMOOTH",
"641 930 OFFCURVE",
"732 880 OFFCURVE",
"767 780 CURVE",
"859 780 LINE",
"902 880 OFFCURVE",
"1008 930 OFFCURVE",
"1177 930 CURVE SMOOTH",
"1352 930 OFFCURVE",
"1440 887 OFFCURVE",
"1440 800 CURVE SMOOTH",
"1440 690 OFFCURVE",
"1410 597 OFFCURVE",
"1350 522 CURVE",
"1452 433 LINE",
"1551 544 OFFCURVE",
"1600 666 OFFCURVE",
"1600 800 CURVE SMOOTH"
);
}
);
width = 1700;
}
);
note = uniAA08;
unicode = AA08;
},
{
glyphname = uniAA09;
lastChange = "2016-12-13 16:41:45 +0000";
layers = (
{
layerId = "2D060796-9665-4FEC-A6D6-D718506F2B5F";
paths = (
{
closed = 1;
nodes = (
"1076 92 LINE",
"1058 109 OFFCURVE",
"1049 136 OFFCURVE",
"1049 173 CURVE SMOOTH",
"1049 245 OFFCURVE",
"1085 315 OFFCURVE",
"1156 382 CURVE SMOOTH",
"1227 449 OFFCURVE",
"1263 510 OFFCURVE",
"1263 565 CURVE SMOOTH",
"1263 620 OFFCURVE",
"1244 677 OFFCURVE",
"1207 738 CURVE SMOOTH",
"1169 798 OFFCURVE",
"1150 842 OFFCURVE",
"1150 870 CURVE SMOOTH",
"1150 977 OFFCURVE",
"1228 1030 OFFCURVE",
"1383 1030 CURVE SMOOTH",
"1524 1030 OFFCURVE",
"1612 963 OFFCURVE",
"1647 830 CURVE",
"1739 830 LINE",
"1782 963 OFFCURVE",
"1881 1030 OFFCURVE",
"2037 1030 CURVE SMOOTH",
"2199 1030 OFFCURVE",
"2280 953 OFFCURVE",
"2280 800 CURVE SMOOTH",
"2280 677 OFFCURVE",
"2237 583 OFFCURVE",
"2152 520 CURVE",
"2227 410 LINE",
"2369 496 OFFCURVE",
"2440 626 OFFCURVE",
"2440 800 CURVE SMOOTH",
"2440 1067 OFFCURVE",
"2309 1200 OFFCURVE",
"2047 1200 CURVE SMOOTH",
"1876 1200 OFFCURVE",
"1761 1140 OFFCURVE",
"1700 1021 CURVE",
"1641 1140 OFFCURVE",
"1530 1200 OFFCURVE",
"1367 1200 CURVE SMOOTH",
"1116 1200 OFFCURVE",
"990 1090 OFFCURVE",
"990 870 CURVE SMOOTH",
"990 817 OFFCURVE",
"1008 764 OFFCURVE",
"1044 712 CURVE SMOOTH",
"1080 660 OFFCURVE",
"1098 619 OFFCURVE",
"1098 590 CURVE SMOOTH",
"1098 561 OFFCURVE",
"1061 512 OFFCURVE",
"988 445 CURVE SMOOTH",
"914 378 OFFCURVE",
"877 316 OFFCURVE",
"877 259 CURVE SMOOTH",
"877 233 OFFCURVE",
"884 202 OFFCURVE",
"897 165 CURVE",
"740 203 OFFCURVE",
"654 281 OFFCURVE",
"641 400 CURVE",
"641 478 OFFCURVE",
"654 548 OFFCURVE",
"681 611 CURVE SMOOTH",
"707 674 OFFCURVE",
"730 750 OFFCURVE",
"750 840 CURVE",
"751 854 OFFCURVE",
"751 867 OFFCURVE",
"751 880 CURVE SMOOTH",
"751 1091 OFFCURVE",
"639 1197 OFFCURVE",
"416 1197 CURVE SMOOTH",
"205 1197 OFFCURVE",
"100 1075 OFFCURVE",
"100 830 CURVE SMOOTH",
"100 657 OFFCURVE",
"159 554 OFFCURVE",
"278 523 CURVE",
"356 618 LINE",
"292 645 OFFCURVE",
"260 715 OFFCURVE",
"260 830 CURVE SMOOTH",
"260 953 OFFCURVE",
"315 1020 OFFCURVE",
"425 1029 CURVE",
"536 1022 OFFCURVE",
"592 969 OFFCURVE",
"592 871 CURVE SMOOTH",
"592 861 OFFCURVE",
"591 851 OFFCURVE",
"590 840 CURVE",
"570 754 OFFCURVE",
"547 678 OFFCURVE",
"521 612 CURVE SMOOTH",
"494 546 OFFCURVE",
"481 475 OFFCURVE",
"481 400 CURVE",
"494 180 OFFCURVE",
"676 47 OFFCURVE",
"1025 0 CURVE"
);
}
);
width = 2540;
},
{
layerId = "B424D511-FB10-4699-AE11-5105CBAA4600";
paths = (
{
closed = 1;
nodes = (
"1739 780 LINE",
"1782 880 OFFCURVE",
"1881 930 OFFCURVE",
"2037 930 CURVE SMOOTH",
"2199 930 OFFCURVE",
"2280 887 OFFCURVE",
"2280 800 CURVE SMOOTH",
"2280 677 OFFCURVE",
"2237 583 OFFCURVE",
"2152 520 CURVE",
"2227 410 LINE",
"2369 496 OFFCURVE",
"2440 626 OFFCURVE",
"2440 800 CURVE SMOOTH",
"2440 1067 OFFCURVE",
"2309 1200 OFFCURVE",
"2047 1200 CURVE SMOOTH",
"1876 1200 OFFCURVE",
"1761 1140 OFFCURVE",
"1700 1021 CURVE",
"1641 1140 OFFCURVE",
"1530 1200 OFFCURVE",
"1367 1200 CURVE SMOOTH",
"1116 1200 OFFCURVE",
"990 1090 OFFCURVE",
"990 870 CURVE SMOOTH",
"990 817 OFFCURVE",
"1008 764 OFFCURVE",
"1044 712 CURVE SMOOTH",
"1080 660 OFFCURVE",
"1098 619 OFFCURVE",
"1098 590 CURVE SMOOTH",
"1098 561 OFFCURVE",
"1073 523 OFFCURVE",
"1023 478 CURVE SMOOTH",
"972 433 OFFCURVE",
"935 387 OFFCURVE",
"912 340 CURVE SMOOTH",
"897 310 OFFCURVE",
"890 282 OFFCURVE",
"890 257 CURVE SMOOTH",
"890 242 OFFCURVE",
"892 228 OFFCURVE",
"897 215 CURVE",
"740 253 OFFCURVE",
"654 315 OFFCURVE",
"641 400 CURVE",
"641 478 OFFCURVE",
"654 548 OFFCURVE",
"681 611 CURVE SMOOTH",
"707 674 OFFCURVE",
"730 750 OFFCURVE",
"750 840 CURVE",
"751 854 OFFCURVE",
"751 867 OFFCURVE",
"751 880 CURVE SMOOTH",
"751 1091 OFFCURVE",
"639 1197 OFFCURVE",
"416 1197 CURVE SMOOTH",
"205 1197 OFFCURVE",
"100 1075 OFFCURVE",
"100 830 CURVE SMOOTH",
"100 657 OFFCURVE",
"159 554 OFFCURVE",
"278 523 CURVE",
"356 618 LINE",
"292 645 OFFCURVE",
"260 715 OFFCURVE",
"260 830 CURVE SMOOTH",
"260 887 OFFCURVE",
"315 920 OFFCURVE",
"425 929 CURVE",
"526 922 OFFCURVE",
"577 890 OFFCURVE",
"577 832 CURVE SMOOTH",
"577 827 OFFCURVE",
"577 821 OFFCURVE",
"576 815 CURVE SMOOTH",
"565 746 OFFCURVE",
"547 678 OFFCURVE",
"521 612 CURVE SMOOTH",
"494 546 OFFCURVE",
"481 475 OFFCURVE",
"481 400 CURVE",
"494 180 OFFCURVE",
"676 47 OFFCURVE",
"1025 0 CURVE",
"1076 92 LINE",
"1058 109 OFFCURVE",
"1049 136 OFFCURVE",
"1049 173 CURVE SMOOTH",
"1049 245 OFFCURVE",
"1085 315 OFFCURVE",
"1156 382 CURVE SMOOTH",
"1227 449 OFFCURVE",
"1263 510 OFFCURVE",
"1263 565 CURVE SMOOTH",
"1263 620 OFFCURVE",
"1244 669 OFFCURVE",
"1207 713 CURVE SMOOTH",
"1169 756 OFFCURVE",
"1150 792 OFFCURVE",
"1150 820 CURVE SMOOTH",
"1150 893 OFFCURVE",
"1228 930 OFFCURVE",
"1383 930 CURVE SMOOTH",
"1524 930 OFFCURVE",
"1612 880 OFFCURVE",
"1647 780 CURVE"
);
}
);
width = 2540;
}
);
note = uniAA09;
unicode = AA09;
},
{
glyphname = uniAA0A;
lastChange = "2016-12-13 16:41:45 +0000";
layers = (
{
layerId = "2D060796-9665-4FEC-A6D6-D718506F2B5F";
paths = (
{
closed = 1;
nodes = (
"797 11 LINE",
"938 78 LINE SMOOTH",
"1199 211 OFFCURVE",
"1330 485 OFFCURVE",
"1330 900 CURVE SMOOTH",
"1330 948 LINE",
"1376 978 OFFCURVE",
"1419 1012 OFFCURVE",
"1460 1049 CURVE",
"1430 1200 LINE",
"1415 1186 OFFCURVE",
"1400 1171 OFFCURVE",
"1383 1154 CURVE",
"1375 1145 OFFCURVE",
"1353 1128 OFFCURVE",
"1318 1103 CURVE",
"1301 1158 OFFCURVE",
"1247 1200 OFFCURVE",
"1170 1200 CURVE",
"1093 1204 OFFCURVE",
"1016 1129 OFFCURVE",
"1020 1050 CURVE",
"1020 1011 OFFCURVE",
"1029 976 OFFCURVE",
"1046 946 CURVE SMOOTH",
"1063 915 OFFCURVE",
"1084 900 OFFCURVE",
"1110 900 CURVE SMOOTH",
"1134 900 OFFCURVE",
"1154 903 OFFCURVE",
"1170 909 CURVE",
"1170 900 LINE SMOOTH",
"1170 567 OFFCURVE",
"1074 341 OFFCURVE",
"883 222 CURVE",
"893 263 OFFCURVE",
"898 306 OFFCURVE",
"898 349 CURVE SMOOTH",
"898 443 OFFCURVE",
"837 519 OFFCURVE",
"714 577 CURVE",
"785 662 OFFCURVE",
"820 753 OFFCURVE",
"820 850 CURVE SMOOTH",
"820 1083 OFFCURVE",
"700 1200 OFFCURVE",
"460 1200 CURVE SMOOTH",
"220 1200 OFFCURVE",
"100 1077 OFFCURVE",
"100 830 CURVE SMOOTH",
"100 657 OFFCURVE",
"186 555 OFFCURVE",
"357 525 CURVE",
"410 637 LINE",
"317 664 OFFCURVE",
"270 729 OFFCURVE",
"270 830 CURVE SMOOTH",
"270 963 OFFCURVE",
"335 1030 OFFCURVE",
"465 1030 CURVE SMOOTH",
"595 1030 OFFCURVE",
"660 970 OFFCURVE",
"660 850 CURVE SMOOTH",
"660 757 OFFCURVE",
"612 678 OFFCURVE",
"516 612 CURVE",
"515 611 OFFCURVE",
"515 611 OFFCURVE",
"515 610 CURVE",
"519 511 LINE",
"662 458 OFFCURVE",
"734 389 OFFCURVE",
"734 302 CURVE SMOOTH",
"734 287 OFFCURVE",
"732 272 OFFCURVE",
"728 257 CURVE SMOOTH",
"713 198 OFFCURVE",
"690 144 OFFCURVE",
"661 95 CURVE",
"773 0 LINE"
);
}
);
width = 1460;
},
{
layerId = "B424D511-FB10-4699-AE11-5105CBAA4600";
paths = (
{
closed = 1;
nodes = (
"660 748 OFFCURVE",
"612 678 OFFCURVE",
"516 612 CURVE",
"515 611 OFFCURVE",
"515 611 OFFCURVE",
"515 610 CURVE SMOOTH",
"519 461 LINE",
"662 408 OFFCURVE",
"734 355 OFFCURVE",
"734 302 CURVE SMOOTH",
"734 287 OFFCURVE",
"732 272 OFFCURVE",
"728 257 CURVE SMOOTH",
"713 198 OFFCURVE",
"690 144 OFFCURVE",
"661 95 CURVE",
"773 0 LINE",
"797 11 LINE",
"938 78 LINE SMOOTH",
"1199 211 OFFCURVE",
"1330 485 OFFCURVE",
"1330 900 CURVE SMOOTH",
"1330 948 LINE",
"1376 978 OFFCURVE",
"1419 1012 OFFCURVE",
"1460 1049 CURVE",
"1430 1200 LINE",
"1415 1186 OFFCURVE",
"1400 1171 OFFCURVE",
"1383 1154 CURVE",
"1375 1145 OFFCURVE",
"1353 1128 OFFCURVE",
"1318 1103 CURVE",
"1301 1158 OFFCURVE",
"1247 1200 OFFCURVE",
"1170 1200 CURVE",
"1093 1204 OFFCURVE",
"1016 1129 OFFCURVE",
"1020 1050 CURVE",
"1020 1011 OFFCURVE",
"1029 976 OFFCURVE",
"1046 946 CURVE SMOOTH",
"1063 915 OFFCURVE",
"1084 900 OFFCURVE",
"1110 900 CURVE SMOOTH",
"1134 900 OFFCURVE",
"1154 903 OFFCURVE",
"1170 909 CURVE",
"1170 900 LINE SMOOTH",
"1170 567 OFFCURVE",
"1074 341 OFFCURVE",
"883 222 CURVE",
"893 263 OFFCURVE",
"898 306 OFFCURVE",
"898 349 CURVE SMOOTH",
"898 443 OFFCURVE",
"837 519 OFFCURVE",
"714 577 CURVE",
"785 662 OFFCURVE",
"820 753 OFFCURVE",
"820 850 CURVE SMOOTH",
"820 1083 OFFCURVE",
"700 1200 OFFCURVE",
"460 1200 CURVE SMOOTH",
"220 1200 OFFCURVE",
"100 1077 OFFCURVE",
"100 830 CURVE SMOOTH",
"100 657 OFFCURVE",
"186 555 OFFCURVE",
"357 525 CURVE",
"410 637 LINE",
"317 664 OFFCURVE",
"270 729 OFFCURVE",
"270 830 CURVE SMOOTH",
"270 897 OFFCURVE",
"335 930 OFFCURVE",
"465 930 CURVE SMOOTH",
"595 930 OFFCURVE",
"660 894 OFFCURVE",
"660 821 CURVE SMOOTH"
);
}
);
width = 1460;
}
);
note = uniAA0A;
unicode = AA0A;
},
{
glyphname = uniAA0B;
lastChange = "2016-12-13 16:41:45 +0000";
layers = (
{
layerId = "2D060796-9665-4FEC-A6D6-D718506F2B5F";
paths = (
{
closed = 1;
nodes = (
"873 -400 OFFCURVE",
"964 -330 OFFCURVE",
"1016 -189 CURVE",
"1029 -143 OFFCURVE",
"1064 -120 OFFCURVE",
"1119 -120 CURVE SMOOTH",
"1154 -120 OFFCURVE",
"1171 -138 OFFCURVE",
"1171 -174 CURVE SMOOTH",
"1171 -210 OFFCURVE",
"1140 -261 OFFCURVE",
"1078 -326 CURVE",
"1178 -394 LINE",
"1267 -310 OFFCURVE",
"1311 -233 OFFCURVE",
"1311 -164 CURVE SMOOTH",
"1311 -55 OFFCURVE",
"1247 0 OFFCURVE",
"1119 0 CURVE SMOOTH",
"1004 0 OFFCURVE",
"928 -50 OFFCURVE",
"890 -150 CURVE SMOOTH",
"865 -223 OFFCURVE",
"816 -260 OFFCURVE",
"742 -260 CURVE SMOOTH",
"675 -260 OFFCURVE",
"641 -240 OFFCURVE",
"641 -200 CURVE SMOOTH",
"641 -141 OFFCURVE",
"693 -70 OFFCURVE",
"797 11 CURVE",
"1152 122 OFFCURVE",
"1330 418 OFFCURVE",
"1330 900 CURVE SMOOTH",
"1330 948 LINE",
"1376 978 OFFCURVE",
"1419 1012 OFFCURVE",
"1460 1049 CURVE",
"1430 1200 LINE",
"1415 1186 OFFCURVE",
"1400 1171 OFFCURVE",
"1383 1154 CURVE",
"1375 1145 OFFCURVE",
"1353 1128 OFFCURVE",
"1318 1103 CURVE",
"1301 1158 OFFCURVE",
"1247 1200 OFFCURVE",
"1170 1200 CURVE",
"1093 1204 OFFCURVE",
"1016 1129 OFFCURVE",
"1020 1050 CURVE",
"1020 1011 OFFCURVE",
"1029 976 OFFCURVE",
"1046 946 CURVE SMOOTH",
"1063 915 OFFCURVE",
"1084 900 OFFCURVE",
"1110 900 CURVE SMOOTH",
"1134 900 OFFCURVE",
"1154 903 OFFCURVE",
"1170 909 CURVE",
"1170 900 LINE SMOOTH",
"1170 557 OFFCURVE",
"1074 331 OFFCURVE",
"883 222 CURVE",
"893 263 OFFCURVE",
"898 306 OFFCURVE",
"898 349 CURVE SMOOTH",
"898 443 OFFCURVE",
"837 519 OFFCURVE",
"714 577 CURVE",
"785 662 OFFCURVE",
"820 753 OFFCURVE",
"820 850 CURVE SMOOTH",
"820 1083 OFFCURVE",
"700 1200 OFFCURVE",
"460 1200 CURVE SMOOTH",
"220 1200 OFFCURVE",
"100 1077 OFFCURVE",
"100 830 CURVE SMOOTH",
"100 657 OFFCURVE",
"186 555 OFFCURVE",
"357 525 CURVE",
"410 637 LINE",
"317 664 OFFCURVE",
"270 729 OFFCURVE",
"270 830 CURVE SMOOTH",
"270 963 OFFCURVE",
"335 1030 OFFCURVE",
"465 1030 CURVE SMOOTH",
"595 1030 OFFCURVE",
"660 970 OFFCURVE",
"660 850 CURVE SMOOTH",
"660 757 OFFCURVE",
"612 678 OFFCURVE",
"516 612 CURVE",
"515 611 OFFCURVE",
"515 611 OFFCURVE",
"515 610 CURVE",
"519 511 LINE",
"662 458 OFFCURVE",
"734 389 OFFCURVE",
"734 302 CURVE SMOOTH",
"734 287 OFFCURVE",
"732 272 OFFCURVE",
"728 257 CURVE SMOOTH",
"713 198 OFFCURVE",
"690 144 OFFCURVE",
"661 95 CURVE",
"548 -5 OFFCURVE",
"491 -103 OFFCURVE",
"491 -200 CURVE SMOOTH",
"491 -333 OFFCURVE",
"575 -400 OFFCURVE",
"742 -400 CURVE SMOOTH"
);
}
);
width = 1460;
},
{
layerId = "B424D511-FB10-4699-AE11-5105CBAA4600";
paths = (
{
closed = 1;
nodes = (
"1152 122 OFFCURVE",
"1330 418 OFFCURVE",
"1330 900 CURVE SMOOTH",
"1330 948 LINE",
"1376 978 OFFCURVE",
"1419 1012 OFFCURVE",
"1460 1049 CURVE",
"1430 1200 LINE",
"1415 1186 OFFCURVE",
"1400 1171 OFFCURVE",
"1383 1154 CURVE",
"1375 1145 OFFCURVE",
"1353 1128 OFFCURVE",
"1318 1103 CURVE",
"1301 1158 OFFCURVE",
"1247 1200 OFFCURVE",
"1170 1200 CURVE",
"1093 1204 OFFCURVE",
"1016 1129 OFFCURVE",
"1020 1050 CURVE",
"1020 1011 OFFCURVE",
"1029 976 OFFCURVE",
"1046 946 CURVE SMOOTH",
"1063 915 OFFCURVE",
"1084 900 OFFCURVE",
"1110 900 CURVE SMOOTH",
"1134 900 OFFCURVE",
"1154 903 OFFCURVE",
"1170 909 CURVE",
"1170 900 LINE SMOOTH",
"1170 557 OFFCURVE",
"1074 331 OFFCURVE",
"883 222 CURVE",
"893 263 OFFCURVE",
"898 306 OFFCURVE",
"898 349 CURVE SMOOTH",
"898 443 OFFCURVE",
"837 519 OFFCURVE",
"714 577 CURVE",
"785 662 OFFCURVE",
"820 753 OFFCURVE",
"820 850 CURVE SMOOTH",
"820 1083 OFFCURVE",
"700 1200 OFFCURVE",
"460 1200 CURVE SMOOTH",
"220 1200 OFFCURVE",
"100 1077 OFFCURVE",
"100 830 CURVE SMOOTH",
"100 657 OFFCURVE",
"186 555 OFFCURVE",
"357 525 CURVE",
"410 637 LINE",
"317 664 OFFCURVE",
"270 729 OFFCURVE",
"270 830 CURVE SMOOTH",
"270 897 OFFCURVE",
"335 930 OFFCURVE",
"465 930 CURVE SMOOTH",
"595 930 OFFCURVE",
"660 894 OFFCURVE",
"660 821 CURVE SMOOTH",
"660 748 OFFCURVE",
"612 678 OFFCURVE",
"516 612 CURVE",
"515 611 OFFCURVE",
"515 611 OFFCURVE",
"515 610 CURVE SMOOTH",
"519 461 LINE",
"662 408 OFFCURVE",
"734 355 OFFCURVE",
"734 302 CURVE SMOOTH",
"734 287 OFFCURVE",
"732 272 OFFCURVE",
"728 257 CURVE SMOOTH",
"713 198 OFFCURVE",
"690 144 OFFCURVE",
"661 95 CURVE",
"548 -5 OFFCURVE",
"491 -103 OFFCURVE",
"491 -200 CURVE SMOOTH",
"491 -333 OFFCURVE",
"575 -400 OFFCURVE",
"742 -400 CURVE SMOOTH",
"873 -400 OFFCURVE",
"964 -330 OFFCURVE",
"1016 -189 CURVE",
"1029 -143 OFFCURVE",
"1064 -120 OFFCURVE",
"1119 -120 CURVE SMOOTH",
"1154 -120 OFFCURVE",
"1171 -138 OFFCURVE",
"1171 -174 CURVE SMOOTH",
"1171 -210 OFFCURVE",
"1140 -261 OFFCURVE",
"1078 -326 CURVE",
"1178 -394 LINE",
"1267 -310 OFFCURVE",
"1311 -233 OFFCURVE",
"1311 -164 CURVE SMOOTH",
"1311 -21 OFFCURVE",
"1247 50 OFFCURVE",
"1119 50 CURVE SMOOTH",
"1004 50 OFFCURVE",
"931 7 OFFCURVE",
"900 -80 CURVE SMOOTH",
"869 -167 OFFCURVE",
"816 -210 OFFCURVE",
"742 -210 CURVE SMOOTH",
"675 -210 OFFCURVE",
"641 -193 OFFCURVE",
"641 -160 CURVE SMOOTH",
"641 -127 OFFCURVE",
"693 -70 OFFCURVE",
"797 11 CURVE"
);
}
);
width = 1460;
}
);
note = uniAA0B;
unicode = AA0B;
},
{
glyphname = uniAA0C;
lastChange = "2016-12-13 16:41:45 +0000";
layers = (
{
layerId = "2D060796-9665-4FEC-A6D6-D718506F2B5F";
paths = (
{
closed = 1;
nodes = (
"568 0 OFFCURVE",
"626 33 OFFCURVE",
"682 98 CURVE SMOOTH",
"738 163 OFFCURVE",
"776 294 OFFCURVE",
"796 491 CURVE",
"959 545 OFFCURVE",
"1047 658 OFFCURVE",
"1060 830 CURVE SMOOTH",
"1071 963 OFFCURVE",
"1134 1030 OFFCURVE",
"1250 1030 CURVE SMOOTH",
"1377 1030 OFFCURVE",
"1440 977 OFFCURVE",
"1440 870 CURVE SMOOTH",
"1440 791 OFFCURVE",
"1399 730 OFFCURVE",
"1318 685 CURVE",
"1397 587 LINE",
"1532 670 OFFCURVE",
"1600 765 OFFCURVE",
"1600 870 CURVE SMOOTH",
"1600 1090 OFFCURVE",
"1483 1200 OFFCURVE",
"1250 1200 CURVE SMOOTH",
"1018 1200 OFFCURVE",
"901 1077 OFFCURVE",
"900 830 CURVE",
"887 746 OFFCURVE",
"859 695 OFFCURVE",
"817 677 CURVE",
"819 725 OFFCURVE",
"820 766 OFFCURVE",
"820 800 CURVE SMOOTH",
"820 1067 OFFCURVE",
"700 1200 OFFCURVE",
"460 1200 CURVE SMOOTH",
"220 1200 OFFCURVE",
"100 1077 OFFCURVE",
"100 830 CURVE SMOOTH",
"100 657 OFFCURVE",
"186 555 OFFCURVE",
"357 525 CURVE",
"410 637 LINE",
"317 664 OFFCURVE",
"270 729 OFFCURVE",
"270 830 CURVE SMOOTH",
"270 963 OFFCURVE",
"335 1030 OFFCURVE",
"465 1030 CURVE SMOOTH",
"595 1030 OFFCURVE",
"660 953 OFFCURVE",
"660 800 CURVE SMOOTH",
"660 735 OFFCURVE",
"655 671 OFFCURVE",
"645 606 CURVE",
"570 562 LINE SMOOTH",
"401 467 OFFCURVE",
"313 350 OFFCURVE",
"306 210 CURVE",
"313 70 OFFCURVE",
"380 0 OFFCURVE",
"507 0 CURVE SMOOTH"
);
},
{
closed = 1;
nodes = (
"477 151 OFFCURVE",
"462 171 OFFCURVE",
"462 210 CURVE SMOOTH",
"462 287 OFFCURVE",
"517 362 OFFCURVE",
"628 436 CURVE",
"617 358 OFFCURVE",
"601 291 OFFCURVE",
"581 235 CURVE SMOOTH",
"560 179 OFFCURVE",
"536 151 OFFCURVE",
"507 151 CURVE SMOOTH"
);
}
);
width = 1700;
},
{
layerId = "B424D511-FB10-4699-AE11-5105CBAA4600";
paths = (
{
closed = 1;
nodes = (
"605 280 OFFCURVE",
"564 201 OFFCURVE",
"507 201 CURVE SMOOTH",
"477 201 OFFCURVE",
"462 222 OFFCURVE",
"462 263 CURVE SMOOTH",
"462 304 OFFCURVE",
"517 362 OFFCURVE",
"628 436 CURVE"
);
},
{
closed = 1;
nodes = (
"820 1067 OFFCURVE",
"700 1200 OFFCURVE",
"460 1200 CURVE SMOOTH",
"220 1200 OFFCURVE",
"100 1077 OFFCURVE",
"100 830 CURVE SMOOTH",
"100 657 OFFCURVE",
"186 555 OFFCURVE",
"357 525 CURVE",
"410 637 LINE",
"317 664 OFFCURVE",
"270 729 OFFCURVE",
"270 830 CURVE SMOOTH",
"270 897 OFFCURVE",
"335 930 OFFCURVE",
"465 930 CURVE SMOOTH",
"562 930 OFFCURVE",
"618 892 OFFCURVE",
"635 817 CURVE SMOOTH",
"646 770 OFFCURVE",
"651 724 OFFCURVE",
"651 681 CURVE SMOOTH",
"651 655 OFFCURVE",
"649 630 OFFCURVE",
"645 606 CURVE",
"570 562 LINE SMOOTH",
"401 467 OFFCURVE",
"313 350 OFFCURVE",
"306 210 CURVE",
"313 70 OFFCURVE",
"380 0 OFFCURVE",
"507 0 CURVE SMOOTH",
"568 0 OFFCURVE",
"626 33 OFFCURVE",
"682 98 CURVE SMOOTH",
"738 163 OFFCURVE",
"776 294 OFFCURVE",
"796 491 CURVE",
"959 545 OFFCURVE",
"1047 658 OFFCURVE",
"1060 830 CURVE",
"1071 897 OFFCURVE",
"1134 930 OFFCURVE",
"1250 930 CURVE SMOOTH",
"1377 930 OFFCURVE",
"1440 900 OFFCURVE",
"1440 841 CURVE SMOOTH",
"1440 782 OFFCURVE",
"1399 730 OFFCURVE",
"1318 685 CURVE",
"1397 587 LINE",
"1532 670 OFFCURVE",
"1600 765 OFFCURVE",
"1600 870 CURVE SMOOTH",
"1600 1090 OFFCURVE",
"1483 1200 OFFCURVE",
"1250 1200 CURVE SMOOTH",
"1018 1200 OFFCURVE",
"901 1077 OFFCURVE",
"900 830 CURVE",
"887 746 OFFCURVE",
"859 695 OFFCURVE",
"817 677 CURVE",
"819 725 OFFCURVE",
"820 766 OFFCURVE",
"820 800 CURVE SMOOTH"
);
}
);
width = 1700;
}
);
note = uniAA0C;
unicode = AA0C;
},
{
glyphname = uniAA0D;
lastChange = "2016-12-13 16:41:45 +0000";
layers = (
{
layerId = "2D060796-9665-4FEC-A6D6-D718506F2B5F";
paths = (
{
closed = 1;
nodes = (
"568 0 OFFCURVE",
"626 33 OFFCURVE",
"682 98 CURVE SMOOTH",
"738 163 OFFCURVE",
"776 294 OFFCURVE",
"796 491 CURVE",
"959 545 OFFCURVE",
"1047 658 OFFCURVE",
"1060 830 CURVE SMOOTH",
"1071 963 OFFCURVE",
"1117 1030 OFFCURVE",
"1200 1030 CURVE SMOOTH",
"1282 1030 OFFCURVE",
"1323 977 OFFCURVE",
"1323 870 CURVE SMOOTH",
"1323 798 OFFCURVE",
"1285 724 OFFCURVE",
"1208 649 CURVE SMOOTH",
"1131 574 OFFCURVE",
"1093 467 OFFCURVE",
"1093 330 CURVE SMOOTH",
"1094 110 OFFCURVE",
"1208 0 OFFCURVE",
"1434 0 CURVE SMOOTH",
"1660 0 OFFCURVE",
"1773 121 OFFCURVE",
"1773 362 CURVE SMOOTH",
"1773 402 LINE",
"1831 431 LINE",
"1885 479 OFFCURVE",
"1912 531 OFFCURVE",
"1912 587 CURVE SMOOTH",
"1912 614 OFFCURVE",
"1906 643 OFFCURVE",
"1894 672 CURVE SMOOTH",
"1855 761 OFFCURVE",
"1836 832 OFFCURVE",
"1836 884 CURVE SMOOTH",
"1836 981 OFFCURVE",
"1898 1030 OFFCURVE",
"2021 1030 CURVE SMOOTH",
"2144 1030 OFFCURVE",
"2206 981 OFFCURVE",
"2206 884 CURVE SMOOTH",
"2206 823 OFFCURVE",
"2184 779 OFFCURVE",
"2140 754 CURVE",
"2195 648 LINE",
"2302 705 OFFCURVE",
"2356 784 OFFCURVE",
"2356 884 CURVE SMOOTH",
"2356 1095 OFFCURVE",
"2246 1200 OFFCURVE",
"2026 1200 CURVE SMOOTH",
"1793 1200 OFFCURVE",
"1676 1095 OFFCURVE",
"1676 884 CURVE SMOOTH",
"1676 797 OFFCURVE",
"1691 728 OFFCURVE",
"1720 677 CURVE SMOOTH",
"1731 658 OFFCURVE",
"1736 640 OFFCURVE",
"1736 625 CURVE SMOOTH",
"1736 599 OFFCURVE",
"1721 578 OFFCURVE",
"1691 563 CURVE",
"1671 592 OFFCURVE",
"1641 607 OFFCURVE",
"1602 607 CURVE SMOOTH",
"1587 607 OFFCURVE",
"1570 605 OFFCURVE",
"1553 601 CURVE SMOOTH",
"1502 588 OFFCURVE",
"1476 559 OFFCURVE",
"1476 514 CURVE SMOOTH",
"1476 502 OFFCURVE",
"1478 489 OFFCURVE",
"1481 475 CURVE SMOOTH",
"1498 407 OFFCURVE",
"1545 369 OFFCURVE",
"1623 362 CURVE",
"1623 221 OFFCURVE",
"1562 150 OFFCURVE",
"1441 150 CURVE SMOOTH",
"1320 150 OFFCURVE",
"1254 210 OFFCURVE",
"1243 330 CURVE",
"1243 430 OFFCURVE",
"1281 517 OFFCURVE",
"1358 591 CURVE SMOOTH",
"1435 665 OFFCURVE",
"1473 758 OFFCURVE",
"1473 870 CURVE SMOOTH",
"1473 1090 OFFCURVE",
"1382 1200 OFFCURVE",
"1200 1200 CURVE SMOOTH",
"1001 1200 OFFCURVE",
"901 1077 OFFCURVE",
"900 830 CURVE",
"887 746 OFFCURVE",
"859 695 OFFCURVE",
"817 677 CURVE",
"819 725 OFFCURVE",
"820 783 OFFCURVE",
"820 850 CURVE SMOOTH",
"820 1083 OFFCURVE",
"700 1200 OFFCURVE",
"460 1200 CURVE SMOOTH",
"220 1200 OFFCURVE",
"100 1077 OFFCURVE",
"100 830 CURVE SMOOTH",
"100 657 OFFCURVE",
"186 555 OFFCURVE",
"357 525 CURVE",
"410 637 LINE",
"317 664 OFFCURVE",
"270 729 OFFCURVE",
"270 830 CURVE SMOOTH",
"270 963 OFFCURVE",
"335 1030 OFFCURVE",
"465 1030 CURVE SMOOTH",
"595 1030 OFFCURVE",
"660 970 OFFCURVE",
"660 850 CURVE SMOOTH",
"660 752 OFFCURVE",
"655 671 OFFCURVE",
"645 606 CURVE",
"570 562 LINE SMOOTH",
"401 467 OFFCURVE",
"313 350 OFFCURVE",
"306 210 CURVE",
"313 70 OFFCURVE",
"380 0 OFFCURVE",
"507 0 CURVE SMOOTH"
);
},
{
closed = 1;
nodes = (
"477 151 OFFCURVE",
"462 171 OFFCURVE",
"462 210 CURVE SMOOTH",
"462 287 OFFCURVE",
"517 362 OFFCURVE",
"628 436 CURVE",
"617 358 OFFCURVE",
"601 291 OFFCURVE",
"581 235 CURVE SMOOTH",
"560 179 OFFCURVE",
"536 151 OFFCURVE",
"507 151 CURVE SMOOTH"
);
}
);
width = 2456;
},
{
layerId = "B424D511-FB10-4699-AE11-5105CBAA4600";
paths = (
{
closed = 1;
nodes = (
"605 280 OFFCURVE",
"564 201 OFFCURVE",
"507 201 CURVE SMOOTH",
"477 201 OFFCURVE",
"462 222 OFFCURVE",
"462 263 CURVE SMOOTH",
"462 304 OFFCURVE",
"517 362 OFFCURVE",
"628 436 CURVE"
);
},
{
closed = 1;
nodes = (
"1282 930 OFFCURVE",
"1323 902 OFFCURVE",
"1323 846 CURVE SMOOTH",
"1323 790 OFFCURVE",
"1285 724 OFFCURVE",
"1208 649 CURVE SMOOTH",
"1131 574 OFFCURVE",
"1093 467 OFFCURVE",
"1093 330 CURVE SMOOTH",
"1094 110 OFFCURVE",
"1208 0 OFFCURVE",
"1434 0 CURVE SMOOTH",
"1660 0 OFFCURVE",
"1773 121 OFFCURVE",
"1773 362 CURVE SMOOTH",
"1773 402 LINE",
"1831 431 LINE",
"1885 479 OFFCURVE",
"1912 531 OFFCURVE",
"1912 587 CURVE SMOOTH",
"1912 614 OFFCURVE",
"1906 643 OFFCURVE",
"1894 672 CURVE SMOOTH",
"1855 761 OFFCURVE",
"1836 827 OFFCURVE",
"1836 868 CURVE SMOOTH",
"1836 909 OFFCURVE",
"1898 930 OFFCURVE",
"2021 930 CURVE SMOOTH",
"2144 930 OFFCURVE",
"2206 907 OFFCURVE",
"2206 861 CURVE SMOOTH",
"2206 815 OFFCURVE",
"2184 779 OFFCURVE",
"2140 754 CURVE",
"2195 648 LINE",
"2302 705 OFFCURVE",
"2356 784 OFFCURVE",
"2356 884 CURVE SMOOTH",
"2356 1095 OFFCURVE",
"2246 1200 OFFCURVE",
"2026 1200 CURVE SMOOTH",
"1793 1200 OFFCURVE",
"1676 1095 OFFCURVE",
"1676 884 CURVE SMOOTH",
"1676 797 OFFCURVE",
"1691 728 OFFCURVE",
"1720 677 CURVE SMOOTH",
"1731 658 OFFCURVE",
"1736 640 OFFCURVE",
"1736 625 CURVE SMOOTH",
"1736 599 OFFCURVE",
"1721 578 OFFCURVE",
"1691 563 CURVE",
"1671 592 OFFCURVE",
"1641 607 OFFCURVE",
"1602 607 CURVE SMOOTH",
"1587 607 OFFCURVE",
"1570 605 OFFCURVE",
"1553 601 CURVE SMOOTH",
"1502 588 OFFCURVE",
"1476 559 OFFCURVE",
"1476 514 CURVE SMOOTH",
"1476 502 OFFCURVE",
"1478 489 OFFCURVE",
"1481 475 CURVE SMOOTH",
"1498 407 OFFCURVE",
"1545 369 OFFCURVE",
"1623 362 CURVE",
"1623 254 OFFCURVE",
"1562 200 OFFCURVE",
"1441 200 CURVE SMOOTH",
"1320 200 OFFCURVE",
"1254 243 OFFCURVE",
"1243 330 CURVE",
"1243 430 OFFCURVE",
"1281 517 OFFCURVE",
"1358 591 CURVE SMOOTH",
"1435 665 OFFCURVE",
"1473 758 OFFCURVE",
"1473 870 CURVE SMOOTH",
"1473 1090 OFFCURVE",
"1382 1200 OFFCURVE",
"1200 1200 CURVE SMOOTH",
"1001 1200 OFFCURVE",
"901 1077 OFFCURVE",
"900 830 CURVE",
"887 746 OFFCURVE",
"859 695 OFFCURVE",
"817 677 CURVE",
"819 725 OFFCURVE",
"820 783 OFFCURVE",
"820 850 CURVE SMOOTH",
"820 1083 OFFCURVE",
"700 1200 OFFCURVE",
"460 1200 CURVE SMOOTH",
"220 1200 OFFCURVE",
"100 1077 OFFCURVE",
"100 830 CURVE SMOOTH",
"100 657 OFFCURVE",
"186 555 OFFCURVE",
"357 525 CURVE",
"410 637 LINE",
"317 664 OFFCURVE",
"270 729 OFFCURVE",
"270 830 CURVE SMOOTH",
"270 897 OFFCURVE",
"335 930 OFFCURVE",
"465 930 CURVE SMOOTH",
"562 930 OFFCURVE",
"618 892 OFFCURVE",
"635 817 CURVE SMOOTH",
"646 770 OFFCURVE",
"651 724 OFFCURVE",
"651 681 CURVE SMOOTH",
"651 655 OFFCURVE",
"649 630 OFFCURVE",
"645 606 CURVE",
"570 562 LINE SMOOTH",
"401 467 OFFCURVE",
"313 350 OFFCURVE",
"306 210 CURVE",
"313 70 OFFCURVE",
"380 0 OFFCURVE",
"507 0 CURVE SMOOTH",
"568 0 OFFCURVE",
"626 33 OFFCURVE",
"682 98 CURVE SMOOTH",
"738 163 OFFCURVE",
"776 294 OFFCURVE",
"796 491 CURVE",
"959 545 OFFCURVE",
"1047 658 OFFCURVE",
"1060 830 CURVE",
"1071 897 OFFCURVE",
"1117 930 OFFCURVE",
"1200 930 CURVE SMOOTH"
);
}
);
width = 2456;
}
);
note = uniAA0D;
unicode = AA0D;
},
{
glyphname = uniAA0E;
lastChange = "2016-12-13 16:41:45 +0000";
layers = (
{
layerId = "2D060796-9665-4FEC-A6D6-D718506F2B5F";
paths = (
{
closed = 1;
nodes = (
"797 11 LINE",
"1082 102 OFFCURVE",
"1225 230 OFFCURVE",
"1225 396 CURVE SMOOTH",
"1225 451 OFFCURVE",
"1213 515 OFFCURVE",
"1188 588 CURVE SMOOTH",
"1163 661 OFFCURVE",
"1150 732 OFFCURVE",
"1150 800 CURVE SMOOTH",
"1150 953 OFFCURVE",
"1228 1030 OFFCURVE",
"1383 1030 CURVE SMOOTH",
"1531 1030 OFFCURVE",
"1622 963 OFFCURVE",
"1657 830 CURVE",
"1749 830 LINE",
"1792 963 OFFCURVE",
"1898 1030 OFFCURVE",
"2067 1030 CURVE SMOOTH",
"2236 1030 OFFCURVE",
"2320 953 OFFCURVE",
"2320 800 CURVE SMOOTH",
"2320 677 OFFCURVE",
"2277 583 OFFCURVE",
"2192 520 CURVE",
"2267 410 LINE",
"2409 496 OFFCURVE",
"2480 626 OFFCURVE",
"2480 800 CURVE SMOOTH",
"2480 1067 OFFCURVE",
"2346 1200 OFFCURVE",
"2077 1200 CURVE SMOOTH",
"1893 1200 OFFCURVE",
"1771 1140 OFFCURVE",
"1710 1021 CURVE",
"1651 1140 OFFCURVE",
"1537 1200 OFFCURVE",
"1367 1200 CURVE SMOOTH",
"1116 1200 OFFCURVE",
"990 1067 OFFCURVE",
"990 800 CURVE SMOOTH",
"990 727 OFFCURVE",
"1002 658 OFFCURVE",
"1026 595 CURVE SMOOTH",
"1049 532 OFFCURVE",
"1061 465 OFFCURVE",
"1061 396 CURVE SMOOTH",
"1061 326 OFFCURVE",
"992 261 OFFCURVE",
"853 202 CURVE",
"870 223 OFFCURVE",
"878 262 OFFCURVE",
"878 319 CURVE SMOOTH",
"878 433 OFFCURVE",
"823 519 OFFCURVE",
"714 577 CURVE",
"785 662 OFFCURVE",
"820 753 OFFCURVE",
"820 850 CURVE SMOOTH",
"820 1083 OFFCURVE",
"700 1200 OFFCURVE",
"460 1200 CURVE SMOOTH",
"220 1200 OFFCURVE",
"100 1077 OFFCURVE",
"100 830 CURVE SMOOTH",
"100 657 OFFCURVE",
"186 555 OFFCURVE",
"357 525 CURVE",
"410 637 LINE",
"317 664 OFFCURVE",
"270 729 OFFCURVE",
"270 830 CURVE SMOOTH",
"270 963 OFFCURVE",
"335 1030 OFFCURVE",
"465 1030 CURVE SMOOTH",
"595 1030 OFFCURVE",
"660 970 OFFCURVE",
"660 850 CURVE SMOOTH",
"660 757 OFFCURVE",
"612 678 OFFCURVE",
"516 612 CURVE",
"515 611 OFFCURVE",
"515 611 OFFCURVE",
"515 610 CURVE",
"519 511 LINE",
"662 458 OFFCURVE",
"734 389 OFFCURVE",
"734 302 CURVE SMOOTH",
"734 287 OFFCURVE",
"732 272 OFFCURVE",
"728 257 CURVE SMOOTH",
"713 198 OFFCURVE",
"690 144 OFFCURVE",
"661 95 CURVE",
"773 0 LINE"
);
}
);
width = 2580;
},
{
layerId = "B424D511-FB10-4699-AE11-5105CBAA4600";
paths = (
{
closed = 1;
nodes = (
"1225 451 OFFCURVE",
"1213 515 OFFCURVE",
"1188 588 CURVE SMOOTH",
"1163 661 OFFCURVE",
"1150 732 OFFCURVE",
"1150 800 CURVE SMOOTH",
"1150 887 OFFCURVE",
"1228 930 OFFCURVE",
"1383 930 CURVE SMOOTH",
"1531 930 OFFCURVE",
"1622 880 OFFCURVE",
"1657 780 CURVE",
"1749 780 LINE",
"1792 880 OFFCURVE",
"1898 930 OFFCURVE",
"2067 930 CURVE SMOOTH",
"2236 930 OFFCURVE",
"2320 887 OFFCURVE",
"2320 800 CURVE SMOOTH",
"2320 677 OFFCURVE",
"2277 583 OFFCURVE",
"2192 520 CURVE",
"2267 410 LINE",
"2409 496 OFFCURVE",
"2480 626 OFFCURVE",
"2480 800 CURVE SMOOTH",
"2480 1067 OFFCURVE",
"2346 1200 OFFCURVE",
"2077 1200 CURVE SMOOTH",
"1893 1200 OFFCURVE",
"1771 1140 OFFCURVE",
"1710 1021 CURVE",
"1651 1140 OFFCURVE",
"1537 1200 OFFCURVE",
"1367 1200 CURVE SMOOTH",
"1116 1200 OFFCURVE",
"990 1067 OFFCURVE",
"990 800 CURVE SMOOTH",
"990 727 OFFCURVE",
"1002 658 OFFCURVE",
"1026 595 CURVE SMOOTH",
"1049 532 OFFCURVE",
"1061 465 OFFCURVE",
"1061 396 CURVE SMOOTH",
"1061 326 OFFCURVE",
"992 261 OFFCURVE",
"853 202 CURVE",
"870 223 OFFCURVE",
"878 262 OFFCURVE",
"878 319 CURVE SMOOTH",
"878 433 OFFCURVE",
"823 519 OFFCURVE",
"714 577 CURVE",
"785 662 OFFCURVE",
"820 753 OFFCURVE",
"820 850 CURVE SMOOTH",
"820 1083 OFFCURVE",
"700 1200 OFFCURVE",
"460 1200 CURVE SMOOTH",
"220 1200 OFFCURVE",
"100 1077 OFFCURVE",
"100 830 CURVE SMOOTH",
"100 657 OFFCURVE",
"186 555 OFFCURVE",
"357 525 CURVE",
"410 637 LINE",
"317 664 OFFCURVE",
"270 729 OFFCURVE",
"270 830 CURVE SMOOTH",
"270 897 OFFCURVE",
"335 930 OFFCURVE",
"465 930 CURVE SMOOTH",
"595 930 OFFCURVE",
"660 894 OFFCURVE",
"660 821 CURVE SMOOTH",
"660 748 OFFCURVE",
"612 678 OFFCURVE",
"516 612 CURVE",
"515 611 OFFCURVE",
"515 611 OFFCURVE",
"515 610 CURVE SMOOTH",
"519 461 LINE",
"662 422 OFFCURVE",
"734 369 OFFCURVE",
"734 302 CURVE SMOOTH",
"734 287 OFFCURVE",
"732 272 OFFCURVE",
"728 257 CURVE SMOOTH",
"713 198 OFFCURVE",
"690 144 OFFCURVE",
"661 95 CURVE",
"773 0 LINE",
"797 11 LINE",
"1082 102 OFFCURVE",
"1225 230 OFFCURVE",
"1225 396 CURVE SMOOTH"
);
}
);
width = 2580;
}
);
note = uniAA0E;
unicode = AA0E;
},
{
glyphname = uniAA0F;
lastChange = "2016-12-13 16:41:45 +0000";
layers = (
{
layerId = "2D060796-9665-4FEC-A6D6-D718506F2B5F";
paths = (
{
closed = 1;
nodes = (
"105 0 LINE SMOOTH",
"385 0 OFFCURVE",
"525 153 OFFCURVE",
"525 460 CURVE SMOOTH",
"525 540 OFFCURVE",
"508 618 OFFCURVE",
"473 693 CURVE SMOOTH",
"438 768 OFFCURVE",
"421 832 OFFCURVE",
"421 884 CURVE SMOOTH",
"421 981 OFFCURVE",
"491 1030 OFFCURVE",
"631 1030 CURVE SMOOTH",
"771 1030 OFFCURVE",
"841 965 OFFCURVE",
"841 834 CURVE SMOOTH",
"841 756 OFFCURVE",
"808 661 OFFCURVE",
"742 549 CURVE",
"704 524 OFFCURVE",
"674 492 OFFCURVE",
"651 451 CURVE SMOOTH",
"624 402 OFFCURVE",
"610 352 OFFCURVE",
"610 300 CURVE SMOOTH",
"610 248 OFFCURVE",
"623 198 OFFCURVE",
"650 151 CURVE SMOOTH",
"702 55 OFFCURVE",
"806 0 OFFCURVE",
"910 0 CURVE SMOOTH",
"1015 0 LINE SMOOTH",
"1315 0 OFFCURVE",
"1465 153 OFFCURVE",
"1465 460 CURVE SMOOTH",
"1465 553 OFFCURVE",
"1444 634 OFFCURVE",
"1403 703 CURVE SMOOTH",
"1362 772 OFFCURVE",
"1341 832 OFFCURVE",
"1341 884 CURVE SMOOTH",
"1341 981 OFFCURVE",
"1406 1030 OFFCURVE",
"1536 1030 CURVE SMOOTH",
"1666 1030 OFFCURVE",
"1731 981 OFFCURVE",
"1731 884 CURVE SMOOTH",
"1731 823 OFFCURVE",
"1708 777 OFFCURVE",
"1661 746 CURVE",
"1724 655 LINE",
"1829 708 OFFCURVE",
"1881 784 OFFCURVE",
"1881 884 CURVE SMOOTH",
"1881 1095 OFFCURVE",
"1766 1200 OFFCURVE",
"1536 1200 CURVE SMOOTH",
"1306 1200 OFFCURVE",
"1191 1095 OFFCURVE",
"1191 884 CURVE SMOOTH",
"1191 797 OFFCURVE",
"1212 723 OFFCURVE",
"1253 662 CURVE SMOOTH",
"1294 601 OFFCURVE",
"1315 533 OFFCURVE",
"1315 460 CURVE SMOOTH",
"1315 291 OFFCURVE",
"1267 188 OFFCURVE",
"1171 151 CURVE",
"1197 198 OFFCURVE",
"1210 248 OFFCURVE",
"1210 300 CURVE SMOOTH",
"1210 352 OFFCURVE",
"1197 402 OFFCURVE",
"1170 451 CURVE SMOOTH",
"1143 499 OFFCURVE",
"1105 536 OFFCURVE",
"1057 562 CURVE SMOOTH",
"1009 587 OFFCURVE",
"960 600 OFFCURVE",
"910 600 CURVE",
"964 655 OFFCURVE",
"991 733 OFFCURVE",
"991 834 CURVE SMOOTH",
"991 1078 OFFCURVE",
"871 1200 OFFCURVE",
"631 1200 CURVE SMOOTH",
"391 1200 OFFCURVE",
"271 1095 OFFCURVE",
"271 884 CURVE SMOOTH",
"271 811 OFFCURVE",
"288 740 OFFCURVE",
"323 672 CURVE SMOOTH",
"358 604 OFFCURVE",
"375 533 OFFCURVE",
"375 460 CURVE SMOOTH",
"375 305 OFFCURVE",
"337 202 OFFCURVE",
"261 151 CURVE",
"287 198 OFFCURVE",
"300 248 OFFCURVE",
"300 300 CURVE SMOOTH",
"300 352 OFFCURVE",
"287 402 OFFCURVE",
"260 451 CURVE SMOOTH",
"233 499 OFFCURVE",
"195 536 OFFCURVE",
"147 562 CURVE SMOOTH",
"99 587 OFFCURVE",
"50 600 OFFCURVE",
"0 600 CURVE SMOOTH",
"-51 600 OFFCURVE",
"-100 587 OFFCURVE",
"-148 562 CURVE SMOOTH",
"-195 536 OFFCURVE",
"-233 499 OFFCURVE",
"-260 451 CURVE SMOOTH",
"-287 402 OFFCURVE",
"-300 352 OFFCURVE",
"-300 300 CURVE SMOOTH",
"-300 248 OFFCURVE",
"-287 198 OFFCURVE",
"-261 151 CURVE SMOOTH",
"-208 55 OFFCURVE",
"-104 0 OFFCURVE",
"0 0 CURVE SMOOTH"
);
},
{
closed = 1;
nodes = (
"-78 147 OFFCURVE",
"-153 221 OFFCURVE",
"-150 300 CURVE",
"-153 379 OFFCURVE",
"-76 454 OFFCURVE",
"0 450 CURVE",
"77 454 OFFCURVE",
"154 379 OFFCURVE",
"150 300 CURVE",
"153 221 OFFCURVE",
"78 147 OFFCURVE",
"0 150 CURVE"
);
},
{
closed = 1;
nodes = (
"831 147 OFFCURVE",
"757 221 OFFCURVE",
"760 300 CURVE",
"757 379 OFFCURVE",
"834 454 OFFCURVE",
"910 450 CURVE",
"987 454 OFFCURVE",
"1064 379 OFFCURVE",
"1060 300 CURVE",
"1063 221 OFFCURVE",
"988 147 OFFCURVE",
"910 150 CURVE"
);
}
);
width = 1981;
},
{
layerId = "B424D511-FB10-4699-AE11-5105CBAA4600";
paths = (
{
closed = 1;
nodes = (
"-150 355 OFFCURVE",
"-79 400 OFFCURVE",
"0 400 CURVE",
"77 403 OFFCURVE",
"154 353 OFFCURVE",
"150 300 CURVE",
"150 246 OFFCURVE",
"81 200 OFFCURVE",
"0 200 CURVE SMOOTH",
"-81 200 OFFCURVE",
"-150 246 OFFCURVE",
"-150 300 CURVE SMOOTH"
);
},
{
closed = 1;
nodes = (
"760 355 OFFCURVE",
"831 400 OFFCURVE",
"910 400 CURVE",
"987 403 OFFCURVE",
"1064 353 OFFCURVE",
"1060 300 CURVE",
"1060 246 OFFCURVE",
"991 200 OFFCURVE",
"910 200 CURVE SMOOTH",
"829 200 OFFCURVE",
"760 246 OFFCURVE",
"760 300 CURVE SMOOTH"
);
},
{
closed = 1;
nodes = (
"991 1078 OFFCURVE",
"871 1200 OFFCURVE",
"631 1200 CURVE SMOOTH",
"391 1200 OFFCURVE",
"271 1095 OFFCURVE",
"271 884 CURVE SMOOTH",
"271 811 OFFCURVE",
"288 740 OFFCURVE",
"323 672 CURVE SMOOTH",
"358 604 OFFCURVE",
"375 533 OFFCURVE",
"375 460 CURVE SMOOTH",
"375 305 OFFCURVE",
"337 202 OFFCURVE",
"261 151 CURVE",
"287 198 OFFCURVE",
"300 248 OFFCURVE",
"300 300 CURVE SMOOTH",
"300 352 OFFCURVE",
"287 402 OFFCURVE",
"260 451 CURVE SMOOTH",
"233 499 OFFCURVE",
"195 536 OFFCURVE",
"147 562 CURVE SMOOTH",
"99 587 OFFCURVE",
"50 600 OFFCURVE",
"0 600 CURVE SMOOTH",
"-51 600 OFFCURVE",
"-100 587 OFFCURVE",
"-148 562 CURVE SMOOTH",
"-195 536 OFFCURVE",
"-233 499 OFFCURVE",
"-260 451 CURVE SMOOTH",
"-287 402 OFFCURVE",
"-300 352 OFFCURVE",
"-300 300 CURVE SMOOTH",
"-300 248 OFFCURVE",
"-287 198 OFFCURVE",
"-261 151 CURVE SMOOTH",
"-208 55 OFFCURVE",
"-104 0 OFFCURVE",
"0 0 CURVE SMOOTH",
"105 0 LINE SMOOTH",
"385 0 OFFCURVE",
"525 153 OFFCURVE",
"525 460 CURVE SMOOTH",
"525 540 OFFCURVE",
"508 618 OFFCURVE",
"473 693 CURVE SMOOTH",
"438 768 OFFCURVE",
"421 827 OFFCURVE",
"421 868 CURVE SMOOTH",
"421 909 OFFCURVE",
"491 930 OFFCURVE",
"631 930 CURVE SMOOTH",
"771 930 OFFCURVE",
"841 895 OFFCURVE",
"841 824 CURVE SMOOTH",
"841 753 OFFCURVE",
"808 661 OFFCURVE",
"742 549 CURVE",
"704 524 OFFCURVE",
"674 492 OFFCURVE",
"651 451 CURVE SMOOTH",
"624 402 OFFCURVE",
"610 352 OFFCURVE",
"610 300 CURVE SMOOTH",
"610 248 OFFCURVE",
"623 198 OFFCURVE",
"650 151 CURVE SMOOTH",
"702 55 OFFCURVE",
"806 0 OFFCURVE",
"910 0 CURVE SMOOTH",
"1015 0 LINE SMOOTH",
"1315 0 OFFCURVE",
"1465 153 OFFCURVE",
"1465 460 CURVE SMOOTH",
"1465 553 OFFCURVE",
"1444 634 OFFCURVE",
"1403 703 CURVE SMOOTH",
"1362 772 OFFCURVE",
"1341 827 OFFCURVE",
"1341 868 CURVE SMOOTH",
"1341 909 OFFCURVE",
"1406 930 OFFCURVE",
"1536 930 CURVE SMOOTH",
"1666 930 OFFCURVE",
"1731 907 OFFCURVE",
"1731 861 CURVE SMOOTH",
"1731 815 OFFCURVE",
"1708 777 OFFCURVE",
"1661 746 CURVE",
"1724 655 LINE",
"1829 708 OFFCURVE",
"1881 784 OFFCURVE",
"1881 884 CURVE SMOOTH",
"1881 1095 OFFCURVE",
"1766 1200 OFFCURVE",
"1536 1200 CURVE SMOOTH",
"1306 1200 OFFCURVE",
"1191 1095 OFFCURVE",
"1191 884 CURVE SMOOTH",
"1191 797 OFFCURVE",
"1212 723 OFFCURVE",
"1253 662 CURVE SMOOTH",
"1294 601 OFFCURVE",
"1315 533 OFFCURVE",
"1315 460 CURVE SMOOTH",
"1315 291 OFFCURVE",
"1267 188 OFFCURVE",
"1171 151 CURVE",
"1197 198 OFFCURVE",
"1210 248 OFFCURVE",
"1210 300 CURVE SMOOTH",
"1210 352 OFFCURVE",
"1197 402 OFFCURVE",
"1170 451 CURVE SMOOTH",
"1143 499 OFFCURVE",
"1105 536 OFFCURVE",
"1057 562 CURVE SMOOTH",
"1009 587 OFFCURVE",
"960 600 OFFCURVE",
"910 600 CURVE",
"964 655 OFFCURVE",
"991 733 OFFCURVE",
"991 834 CURVE SMOOTH"
);
}
);
width = 1981;
}
);
note = uniAA0F;
unicode = AA0F;
},
{
glyphname = uniAA10;
lastChange = "2016-12-13 16:41:45 +0000";
layers = (
{
layerId = "2D060796-9665-4FEC-A6D6-D718506F2B5F";
paths = (
{
closed = 1;
nodes = (
"539 -1 OFFCURVE",
"561 0 OFFCURVE",
"584 3 CURVE",
"624 11 OFFCURVE",
"658 41 OFFCURVE",
"673 90 CURVE",
"677 106 OFFCURVE",
"679 121 OFFCURVE",
"679 135 CURVE SMOOTH",
"679 143 OFFCURVE",
"678 151 OFFCURVE",
"677 159 CURVE",
"669 203 OFFCURVE",
"640 240 OFFCURVE",
"600 255 CURVE",
"587 259 OFFCURVE",
"574 261 OFFCURVE",
"562 261 CURVE SMOOTH",
"555 261 OFFCURVE",
"548 260 OFFCURVE",
"541 259 CURVE",
"522 255 OFFCURVE",
"503 248 OFFCURVE",
"486 239 CURVE SMOOTH",
"468 229 OFFCURVE",
"456 207 OFFCURVE",
"449 173 CURVE",
"450 167 LINE",
"389 194 OFFCURVE",
"342 250 OFFCURVE",
"309 335 CURVE SMOOTH",
"276 420 OFFCURVE",
"260 517 OFFCURVE",
"260 627 CURVE SMOOTH",
"260 896 OFFCURVE",
"331 1030 OFFCURVE",
"474 1030 CURVE SMOOTH",
"550 1030 OFFCURVE",
"620 1010 OFFCURVE",
"685 970 CURVE SMOOTH",
"717 950 OFFCURVE",
"762 940 OFFCURVE",
"819 940 CURVE SMOOTH",
"878 940 OFFCURVE",
"923 950 OFFCURVE",
"955 970 CURVE SMOOTH",
"1020 1010 OFFCURVE",
"1093 1030 OFFCURVE",
"1174 1030 CURVE SMOOTH",
"1298 1030 OFFCURVE",
"1360 953 OFFCURVE",
"1360 800 CURVE SMOOTH",
"1360 735 OFFCURVE",
"1355 671 OFFCURVE",
"1345 606 CURVE",
"1270 562 LINE SMOOTH",
"1101 467 OFFCURVE",
"1013 350 OFFCURVE",
"1006 210 CURVE",
"1013 70 OFFCURVE",
"1080 0 OFFCURVE",
"1207 0 CURVE SMOOTH",
"1268 0 OFFCURVE",
"1326 33 OFFCURVE",
"1382 98 CURVE SMOOTH",
"1438 163 OFFCURVE",
"1476 294 OFFCURVE",
"1496 491 CURVE",
"1659 545 OFFCURVE",
"1747 658 OFFCURVE",
"1760 830 CURVE SMOOTH",
"1771 963 OFFCURVE",
"1834 1030 OFFCURVE",
"1950 1030 CURVE SMOOTH",
"2077 1030 OFFCURVE",
"2140 977 OFFCURVE",
"2140 870 CURVE SMOOTH",
"2140 791 OFFCURVE",
"2099 730 OFFCURVE",
"2018 685 CURVE",
"2097 587 LINE",
"2232 670 OFFCURVE",
"2300 765 OFFCURVE",
"2300 870 CURVE SMOOTH",
"2300 1090 OFFCURVE",
"2183 1200 OFFCURVE",
"1950 1200 CURVE SMOOTH",
"1718 1200 OFFCURVE",
"1601 1077 OFFCURVE",
"1600 830 CURVE",
"1587 746 OFFCURVE",
"1559 695 OFFCURVE",
"1517 677 CURVE",
"1519 725 OFFCURVE",
"1520 766 OFFCURVE",
"1520 800 CURVE SMOOTH",
"1520 1067 OFFCURVE",
"1405 1200 OFFCURVE",
"1174 1200 CURVE SMOOTH",
"1084 1200 OFFCURVE",
"1002 1177 OFFCURVE",
"929 1130 CURVE SMOOTH",
"892 1107 OFFCURVE",
"856 1095 OFFCURVE",
"819 1095 CURVE SMOOTH",
"783 1095 OFFCURVE",
"747 1107 OFFCURVE",
"711 1130 CURVE SMOOTH",
"638 1177 OFFCURVE",
"555 1200 OFFCURVE",
"464 1200 CURVE SMOOTH",
"453 1200 OFFCURVE",
"440 1199 OFFCURVE",
"423 1196 CURVE",
"208 1171 OFFCURVE",
"100 982 OFFCURVE",
"100 627 CURVE SMOOTH",
"100 481 OFFCURVE",
"129 349 OFFCURVE",
"186 230 CURVE SMOOTH",
"261 76 OFFCURVE",
"371 -1 OFFCURVE",
"518 -1 CURVE SMOOTH"
);
},
{
closed = 1;
nodes = (
"1177 151 OFFCURVE",
"1162 171 OFFCURVE",
"1162 210 CURVE SMOOTH",
"1162 287 OFFCURVE",
"1217 362 OFFCURVE",
"1328 436 CURVE",
"1317 358 OFFCURVE",
"1301 291 OFFCURVE",
"1281 235 CURVE SMOOTH",
"1260 179 OFFCURVE",
"1236 151 OFFCURVE",
"1207 151 CURVE SMOOTH"
);
}
);
width = 2400;
},
{
layerId = "B424D511-FB10-4699-AE11-5105CBAA4600";
paths = (
{
closed = 1;
nodes = (
"1305 280 OFFCURVE",
"1264 201 OFFCURVE",
"1207 201 CURVE SMOOTH",
"1177 201 OFFCURVE",
"1162 222 OFFCURVE",
"1162 263 CURVE SMOOTH",
"1162 304 OFFCURVE",
"1217 362 OFFCURVE",
"1328 436 CURVE"
);
},
{
closed = 1;
nodes = (
"260 829 OFFCURVE",
"331 930 OFFCURVE",
"474 930 CURVE SMOOTH",
"550 930 OFFCURVE",
"620 910 OFFCURVE",
"685 870 CURVE SMOOTH",
"717 850 OFFCURVE",
"762 840 OFFCURVE",
"819 840 CURVE SMOOTH",
"878 840 OFFCURVE",
"923 850 OFFCURVE",
"955 870 CURVE SMOOTH",
"1020 910 OFFCURVE",
"1093 930 OFFCURVE",
"1174 930 CURVE SMOOTH",
"1298 930 OFFCURVE",
"1360 887 OFFCURVE",
"1360 800 CURVE SMOOTH",
"1360 735 OFFCURVE",
"1355 671 OFFCURVE",
"1345 606 CURVE",
"1270 562 LINE SMOOTH",
"1101 467 OFFCURVE",
"1013 350 OFFCURVE",
"1006 210 CURVE",
"1013 70 OFFCURVE",
"1080 0 OFFCURVE",
"1207 0 CURVE SMOOTH",
"1268 0 OFFCURVE",
"1326 33 OFFCURVE",
"1382 98 CURVE SMOOTH",
"1438 163 OFFCURVE",
"1476 294 OFFCURVE",
"1496 491 CURVE",
"1659 545 OFFCURVE",
"1747 658 OFFCURVE",
"1760 830 CURVE",
"1771 897 OFFCURVE",
"1834 930 OFFCURVE",
"1950 930 CURVE SMOOTH",
"2077 930 OFFCURVE",
"2140 900 OFFCURVE",
"2140 841 CURVE SMOOTH",
"2140 782 OFFCURVE",
"2099 730 OFFCURVE",
"2018 685 CURVE",
"2097 587 LINE",
"2232 670 OFFCURVE",
"2300 765 OFFCURVE",
"2300 870 CURVE SMOOTH",
"2300 1090 OFFCURVE",
"2183 1200 OFFCURVE",
"1950 1200 CURVE SMOOTH",
"1718 1200 OFFCURVE",
"1601 1077 OFFCURVE",
"1600 830 CURVE",
"1587 746 OFFCURVE",
"1559 695 OFFCURVE",
"1517 677 CURVE",
"1519 725 OFFCURVE",
"1520 766 OFFCURVE",
"1520 800 CURVE SMOOTH",
"1520 1067 OFFCURVE",
"1405 1200 OFFCURVE",
"1174 1200 CURVE SMOOTH",
"1084 1200 OFFCURVE",
"1002 1177 OFFCURVE",
"929 1130 CURVE SMOOTH",
"892 1107 OFFCURVE",
"856 1095 OFFCURVE",
"819 1095 CURVE SMOOTH",
"783 1095 OFFCURVE",
"747 1107 OFFCURVE",
"711 1130 CURVE SMOOTH",
"638 1177 OFFCURVE",
"555 1200 OFFCURVE",
"464 1200 CURVE SMOOTH",
"453 1200 OFFCURVE",
"440 1199 OFFCURVE",
"423 1196 CURVE",
"208 1171 OFFCURVE",
"100 982 OFFCURVE",
"100 627 CURVE SMOOTH",
"100 481 OFFCURVE",
"129 349 OFFCURVE",
"186 230 CURVE SMOOTH",
"261 76 OFFCURVE",
"371 -1 OFFCURVE",
"518 -1 CURVE SMOOTH",
"539 -1 OFFCURVE",
"561 0 OFFCURVE",
"584 3 CURVE",
"624 11 OFFCURVE",
"658 41 OFFCURVE",
"673 90 CURVE",
"677 106 OFFCURVE",
"679 121 OFFCURVE",
"679 135 CURVE SMOOTH",
"679 143 OFFCURVE",
"678 151 OFFCURVE",
"677 159 CURVE",
"669 203 OFFCURVE",
"640 240 OFFCURVE",
"600 255 CURVE",
"587 259 OFFCURVE",
"574 261 OFFCURVE",
"562 261 CURVE SMOOTH",
"555 261 OFFCURVE",
"548 260 OFFCURVE",
"541 259 CURVE",
"522 255 OFFCURVE",
"503 248 OFFCURVE",
"486 239 CURVE SMOOTH",
"468 229 OFFCURVE",
"456 207 OFFCURVE",
"449 173 CURVE",
"450 167 LINE",
"389 194 OFFCURVE",
"342 250 OFFCURVE",
"309 335 CURVE SMOOTH",
"276 420 OFFCURVE",
"260 517 OFFCURVE",
"260 627 CURVE SMOOTH"
);
}
);
width = 2400;
}
);
note = uniAA10;
unicode = AA10;
},
{
glyphname = uniAA11;
lastChange = "2016-12-13 16:41:45 +0000";
layers = (
{
layerId = "2D060796-9665-4FEC-A6D6-D718506F2B5F";
paths = (
{
closed = 1;
nodes = (
"1287 -400 OFFCURVE",
"1378 -330 OFFCURVE",
"1430 -189 CURVE",
"1443 -143 OFFCURVE",
"1478 -120 OFFCURVE",
"1533 -120 CURVE SMOOTH",
"1568 -120 OFFCURVE",
"1585 -138 OFFCURVE",
"1585 -174 CURVE SMOOTH",
"1585 -210 OFFCURVE",
"1554 -261 OFFCURVE",
"1492 -326 CURVE",
"1592 -394 LINE",
"1681 -310 OFFCURVE",
"1725 -233 OFFCURVE",
"1725 -164 CURVE SMOOTH",
"1725 -55 OFFCURVE",
"1661 0 OFFCURVE",
"1533 0 CURVE SMOOTH",
"1418 0 OFFCURVE",
"1342 -50 OFFCURVE",
"1304 -150 CURVE SMOOTH",
"1279 -223 OFFCURVE",
"1230 -260 OFFCURVE",
"1156 -260 CURVE SMOOTH",
"1089 -260 OFFCURVE",
"1055 -240 OFFCURVE",
"1055 -200 CURVE SMOOTH",
"1055 -143 OFFCURVE",
"1102 -77 OFFCURVE",
"1197 0 CURVE",
"1207 0 LINE SMOOTH",
"1268 0 OFFCURVE",
"1326 33 OFFCURVE",
"1382 98 CURVE SMOOTH",
"1438 163 OFFCURVE",
"1476 294 OFFCURVE",
"1496 491 CURVE",
"1659 545 OFFCURVE",
"1747 658 OFFCURVE",
"1760 830 CURVE SMOOTH",
"1771 963 OFFCURVE",
"1834 1030 OFFCURVE",
"1950 1030 CURVE SMOOTH",
"2077 1030 OFFCURVE",
"2140 977 OFFCURVE",
"2140 870 CURVE SMOOTH",
"2140 791 OFFCURVE",
"2099 730 OFFCURVE",
"2018 685 CURVE",
"2097 587 LINE",
"2232 670 OFFCURVE",
"2300 765 OFFCURVE",
"2300 870 CURVE SMOOTH",
"2300 1090 OFFCURVE",
"2183 1200 OFFCURVE",
"1950 1200 CURVE SMOOTH",
"1718 1200 OFFCURVE",
"1601 1077 OFFCURVE",
"1600 830 CURVE",
"1587 746 OFFCURVE",
"1559 695 OFFCURVE",
"1517 677 CURVE",
"1519 725 OFFCURVE",
"1520 766 OFFCURVE",
"1520 800 CURVE SMOOTH",
"1520 1067 OFFCURVE",
"1405 1200 OFFCURVE",
"1174 1200 CURVE SMOOTH",
"1084 1200 OFFCURVE",
"1002 1177 OFFCURVE",
"929 1130 CURVE SMOOTH",
"892 1107 OFFCURVE",
"856 1095 OFFCURVE",
"819 1095 CURVE SMOOTH",
"783 1095 OFFCURVE",
"747 1107 OFFCURVE",
"711 1130 CURVE SMOOTH",
"638 1177 OFFCURVE",
"555 1200 OFFCURVE",
"464 1200 CURVE SMOOTH",
"453 1200 OFFCURVE",
"440 1199 OFFCURVE",
"423 1196 CURVE",
"208 1171 OFFCURVE",
"100 982 OFFCURVE",
"100 627 CURVE SMOOTH",
"100 481 OFFCURVE",
"129 349 OFFCURVE",
"186 230 CURVE SMOOTH",
"261 76 OFFCURVE",
"371 -1 OFFCURVE",
"518 -1 CURVE SMOOTH",
"539 -1 OFFCURVE",
"561 0 OFFCURVE",
"584 3 CURVE",
"624 11 OFFCURVE",
"658 41 OFFCURVE",
"673 90 CURVE",
"677 106 OFFCURVE",
"679 121 OFFCURVE",
"679 135 CURVE SMOOTH",
"679 143 OFFCURVE",
"678 151 OFFCURVE",
"677 159 CURVE",
"669 203 OFFCURVE",
"640 240 OFFCURVE",
"600 255 CURVE",
"587 259 OFFCURVE",
"574 261 OFFCURVE",
"562 261 CURVE SMOOTH",
"555 261 OFFCURVE",
"548 260 OFFCURVE",
"541 259 CURVE",
"522 255 OFFCURVE",
"503 248 OFFCURVE",
"486 239 CURVE SMOOTH",
"468 229 OFFCURVE",
"456 207 OFFCURVE",
"449 173 CURVE",
"450 167 LINE",
"389 194 OFFCURVE",
"342 250 OFFCURVE",
"309 335 CURVE SMOOTH",
"276 420 OFFCURVE",
"260 517 OFFCURVE",
"260 627 CURVE SMOOTH",
"260 896 OFFCURVE",
"331 1030 OFFCURVE",
"474 1030 CURVE SMOOTH",
"550 1030 OFFCURVE",
"620 1010 OFFCURVE",
"685 970 CURVE SMOOTH",
"717 950 OFFCURVE",
"762 940 OFFCURVE",
"819 940 CURVE SMOOTH",
"878 940 OFFCURVE",
"923 950 OFFCURVE",
"955 970 CURVE SMOOTH",
"1020 1010 OFFCURVE",
"1093 1030 OFFCURVE",
"1174 1030 CURVE SMOOTH",
"1298 1030 OFFCURVE",
"1360 953 OFFCURVE",
"1360 800 CURVE SMOOTH",
"1360 735 OFFCURVE",
"1355 671 OFFCURVE",
"1345 606 CURVE",
"1270 562 LINE SMOOTH",
"1101 467 OFFCURVE",
"1013 350 OFFCURVE",
"1006 210 CURVE",
"1009 151 OFFCURVE",
"1022 104 OFFCURVE",
"1047 69 CURVE",
"952 -22 OFFCURVE",
"905 -111 OFFCURVE",
"905 -200 CURVE SMOOTH",
"905 -333 OFFCURVE",
"989 -400 OFFCURVE",
"1156 -400 CURVE SMOOTH"
);
},
{
closed = 1;
nodes = (
"1177 151 OFFCURVE",
"1162 171 OFFCURVE",
"1162 210 CURVE SMOOTH",
"1162 287 OFFCURVE",
"1217 362 OFFCURVE",
"1328 436 CURVE",
"1317 358 OFFCURVE",
"1301 291 OFFCURVE",
"1281 235 CURVE SMOOTH",
"1260 179 OFFCURVE",
"1236 151 OFFCURVE",
"1207 151 CURVE SMOOTH"
);
}
);
width = 2400;
},
{
layerId = "B424D511-FB10-4699-AE11-5105CBAA4600";
paths = (
{
closed = 1;
nodes = (
"1305 280 OFFCURVE",
"1264 201 OFFCURVE",
"1207 201 CURVE SMOOTH",
"1177 201 OFFCURVE",
"1162 222 OFFCURVE",
"1162 263 CURVE SMOOTH",
"1162 304 OFFCURVE",
"1217 362 OFFCURVE",
"1328 436 CURVE"
);
},
{
closed = 1;
nodes = (
"952 -22 OFFCURVE",
"905 -111 OFFCURVE",
"905 -200 CURVE SMOOTH",
"905 -333 OFFCURVE",
"989 -400 OFFCURVE",
"1156 -400 CURVE SMOOTH",
"1287 -400 OFFCURVE",
"1378 -330 OFFCURVE",
"1430 -189 CURVE",
"1443 -143 OFFCURVE",
"1478 -120 OFFCURVE",
"1533 -120 CURVE SMOOTH",
"1568 -120 OFFCURVE",
"1585 -138 OFFCURVE",
"1585 -174 CURVE SMOOTH",
"1585 -210 OFFCURVE",
"1554 -261 OFFCURVE",
"1492 -326 CURVE",
"1592 -394 LINE",
"1681 -310 OFFCURVE",
"1725 -233 OFFCURVE",
"1725 -164 CURVE SMOOTH",
"1725 -21 OFFCURVE",
"1661 50 OFFCURVE",
"1533 50 CURVE SMOOTH",
"1418 50 OFFCURVE",
"1345 7 OFFCURVE",
"1314 -80 CURVE SMOOTH",
"1283 -167 OFFCURVE",
"1230 -210 OFFCURVE",
"1156 -210 CURVE SMOOTH",
"1089 -210 OFFCURVE",
"1055 -194 OFFCURVE",
"1055 -162 CURVE SMOOTH",
"1055 -131 OFFCURVE",
"1102 -77 OFFCURVE",
"1197 0 CURVE",
"1207 0 LINE SMOOTH",
"1268 0 OFFCURVE",
"1326 33 OFFCURVE",
"1382 98 CURVE SMOOTH",
"1438 163 OFFCURVE",
"1476 294 OFFCURVE",
"1496 491 CURVE",
"1659 545 OFFCURVE",
"1747 658 OFFCURVE",
"1760 830 CURVE",
"1771 897 OFFCURVE",
"1834 930 OFFCURVE",
"1950 930 CURVE SMOOTH",
"2077 930 OFFCURVE",
"2140 900 OFFCURVE",
"2140 841 CURVE SMOOTH",
"2140 782 OFFCURVE",
"2099 730 OFFCURVE",
"2018 685 CURVE",
"2097 587 LINE",
"2232 670 OFFCURVE",
"2300 765 OFFCURVE",
"2300 870 CURVE SMOOTH",
"2300 1090 OFFCURVE",
"2183 1200 OFFCURVE",
"1950 1200 CURVE SMOOTH",
"1718 1200 OFFCURVE",
"1601 1077 OFFCURVE",
"1600 830 CURVE",
"1587 746 OFFCURVE",
"1559 695 OFFCURVE",
"1517 677 CURVE",
"1519 725 OFFCURVE",
"1520 766 OFFCURVE",
"1520 800 CURVE SMOOTH",
"1520 1067 OFFCURVE",
"1405 1200 OFFCURVE",
"1174 1200 CURVE SMOOTH",
"1084 1200 OFFCURVE",
"1002 1177 OFFCURVE",
"929 1130 CURVE SMOOTH",
"892 1107 OFFCURVE",
"856 1095 OFFCURVE",
"819 1095 CURVE SMOOTH",
"783 1095 OFFCURVE",
"747 1107 OFFCURVE",
"711 1130 CURVE SMOOTH",
"638 1177 OFFCURVE",
"555 1200 OFFCURVE",
"464 1200 CURVE SMOOTH",
"453 1200 OFFCURVE",
"440 1199 OFFCURVE",
"423 1196 CURVE",
"208 1171 OFFCURVE",
"100 982 OFFCURVE",
"100 627 CURVE SMOOTH",
"100 481 OFFCURVE",
"129 349 OFFCURVE",
"186 230 CURVE SMOOTH",
"261 76 OFFCURVE",
"371 -1 OFFCURVE",
"518 -1 CURVE SMOOTH",
"539 -1 OFFCURVE",
"561 0 OFFCURVE",
"584 3 CURVE",
"624 11 OFFCURVE",
"658 41 OFFCURVE",
"673 90 CURVE",
"677 106 OFFCURVE",
"679 121 OFFCURVE",
"679 135 CURVE SMOOTH",
"679 143 OFFCURVE",
"678 151 OFFCURVE",
"677 159 CURVE",
"669 203 OFFCURVE",
"640 240 OFFCURVE",
"600 255 CURVE",
"587 259 OFFCURVE",
"574 261 OFFCURVE",
"562 261 CURVE SMOOTH",
"555 261 OFFCURVE",
"548 260 OFFCURVE",
"541 259 CURVE",
"522 255 OFFCURVE",
"503 248 OFFCURVE",
"486 239 CURVE SMOOTH",
"468 229 OFFCURVE",
"456 207 OFFCURVE",
"449 173 CURVE",
"450 167 LINE",
"389 194 OFFCURVE",
"342 250 OFFCURVE",
"309 335 CURVE SMOOTH",
"276 420 OFFCURVE",
"260 517 OFFCURVE",
"260 627 CURVE SMOOTH",
"260 829 OFFCURVE",
"331 930 OFFCURVE",
"474 930 CURVE SMOOTH",
"550 930 OFFCURVE",
"620 910 OFFCURVE",
"685 870 CURVE SMOOTH",
"717 850 OFFCURVE",
"762 840 OFFCURVE",
"819 840 CURVE SMOOTH",
"878 840 OFFCURVE",
"923 850 OFFCURVE",
"955 870 CURVE SMOOTH",
"1020 910 OFFCURVE",
"1093 930 OFFCURVE",
"1174 930 CURVE SMOOTH",
"1298 930 OFFCURVE",
"1360 887 OFFCURVE",
"1360 800 CURVE SMOOTH",
"1360 735 OFFCURVE",
"1355 671 OFFCURVE",
"1345 606 CURVE",
"1270 562 LINE SMOOTH",
"1101 467 OFFCURVE",
"1013 350 OFFCURVE",
"1006 210 CURVE",
"1009 151 OFFCURVE",
"1022 104 OFFCURVE",
"1047 69 CURVE"
);
}
);
width = 2400;
}
);
note = uniAA11;
unicode = AA11;
},
{
glyphname = uniAA12;
lastChange = "2016-12-13 16:41:45 +0000";
layers = (
{
layerId = "2D060796-9665-4FEC-A6D6-D718506F2B5F";
paths = (
{
closed = 1;
nodes = (
"812 -400 OFFCURVE",
"844 -388 OFFCURVE",
"879 -364 CURVE SMOOTH",
"914 -340 OFFCURVE",
"931 -294 OFFCURVE",
"931 -225 CURVE SMOOTH",
"931 -156 OFFCURVE",
"944 -104 OFFCURVE",
"971 -67 CURVE SMOOTH",
"993 -36 OFFCURVE",
"1042 -8 OFFCURVE",
"1119 18 CURVE",
"1056 -55 OFFCURVE",
"1025 -128 OFFCURVE",
"1025 -200 CURVE SMOOTH",
"1025 -333 OFFCURVE",
"1109 -400 OFFCURVE",
"1276 -400 CURVE SMOOTH",
"1407 -400 OFFCURVE",
"1498 -330 OFFCURVE",
"1550 -189 CURVE",
"1563 -143 OFFCURVE",
"1598 -120 OFFCURVE",
"1653 -120 CURVE SMOOTH",
"1688 -120 OFFCURVE",
"1705 -138 OFFCURVE",
"1705 -174 CURVE SMOOTH",
"1705 -210 OFFCURVE",
"1674 -261 OFFCURVE",
"1612 -326 CURVE",
"1712 -394 LINE",
"1801 -310 OFFCURVE",
"1845 -233 OFFCURVE",
"1845 -164 CURVE SMOOTH",
"1845 -55 OFFCURVE",
"1781 0 OFFCURVE",
"1653 0 CURVE SMOOTH",
"1538 0 OFFCURVE",
"1462 -50 OFFCURVE",
"1424 -150 CURVE SMOOTH",
"1399 -223 OFFCURVE",
"1350 -260 OFFCURVE",
"1276 -260 CURVE SMOOTH",
"1209 -260 OFFCURVE",
"1175 -240 OFFCURVE",
"1175 -200 CURVE SMOOTH",
"1175 -150 OFFCURVE",
"1225 -69 OFFCURVE",
"1325 43 CURVE",
"1344 58 OFFCURVE",
"1363 76 OFFCURVE",
"1382 98 CURVE SMOOTH",
"1438 163 OFFCURVE",
"1476 294 OFFCURVE",
"1496 491 CURVE",
"1659 545 OFFCURVE",
"1747 658 OFFCURVE",
"1760 830 CURVE SMOOTH",
"1771 963 OFFCURVE",
"1834 1030 OFFCURVE",
"1950 1030 CURVE SMOOTH",
"2077 1030 OFFCURVE",
"2140 977 OFFCURVE",
"2140 870 CURVE SMOOTH",
"2140 791 OFFCURVE",
"2099 730 OFFCURVE",
"2018 685 CURVE",
"2097 587 LINE",
"2232 670 OFFCURVE",
"2300 765 OFFCURVE",
"2300 870 CURVE SMOOTH",
"2300 1090 OFFCURVE",
"2183 1200 OFFCURVE",
"1950 1200 CURVE SMOOTH",
"1718 1200 OFFCURVE",
"1601 1077 OFFCURVE",
"1600 830 CURVE",
"1587 746 OFFCURVE",
"1559 695 OFFCURVE",
"1517 677 CURVE",
"1519 725 OFFCURVE",
"1520 766 OFFCURVE",
"1520 800 CURVE SMOOTH",
"1520 1067 OFFCURVE",
"1405 1200 OFFCURVE",
"1174 1200 CURVE SMOOTH",
"1084 1200 OFFCURVE",
"1002 1177 OFFCURVE",
"929 1130 CURVE SMOOTH",
"892 1107 OFFCURVE",
"856 1095 OFFCURVE",
"819 1095 CURVE SMOOTH",
"783 1095 OFFCURVE",
"747 1107 OFFCURVE",
"711 1130 CURVE SMOOTH",
"638 1177 OFFCURVE",
"555 1200 OFFCURVE",
"464 1200 CURVE SMOOTH",
"453 1200 OFFCURVE",
"440 1199 OFFCURVE",
"423 1196 CURVE",
"208 1171 OFFCURVE",
"100 982 OFFCURVE",
"100 627 CURVE SMOOTH",
"100 481 OFFCURVE",
"129 349 OFFCURVE",
"186 230 CURVE SMOOTH",
"261 76 OFFCURVE",
"371 -1 OFFCURVE",
"518 -1 CURVE SMOOTH",
"539 -1 OFFCURVE",
"561 0 OFFCURVE",
"584 3 CURVE",
"624 11 OFFCURVE",
"658 41 OFFCURVE",
"673 90 CURVE",
"677 106 OFFCURVE",
"679 121 OFFCURVE",
"679 135 CURVE SMOOTH",
"679 143 OFFCURVE",
"678 151 OFFCURVE",
"677 159 CURVE",
"669 203 OFFCURVE",
"640 240 OFFCURVE",
"600 255 CURVE",
"587 259 OFFCURVE",
"574 261 OFFCURVE",
"562 261 CURVE SMOOTH",
"555 261 OFFCURVE",
"548 260 OFFCURVE",
"541 259 CURVE",
"522 255 OFFCURVE",
"503 248 OFFCURVE",
"486 239 CURVE SMOOTH",
"468 229 OFFCURVE",
"456 207 OFFCURVE",
"449 173 CURVE",
"450 167 LINE",
"389 194 OFFCURVE",
"342 250 OFFCURVE",
"309 335 CURVE SMOOTH",
"276 420 OFFCURVE",
"260 517 OFFCURVE",
"260 627 CURVE SMOOTH",
"260 896 OFFCURVE",
"331 1030 OFFCURVE",
"474 1030 CURVE SMOOTH",
"550 1030 OFFCURVE",
"620 1010 OFFCURVE",
"685 970 CURVE SMOOTH",
"717 950 OFFCURVE",
"762 940 OFFCURVE",
"819 940 CURVE SMOOTH",
"878 940 OFFCURVE",
"923 950 OFFCURVE",
"955 970 CURVE SMOOTH",
"1020 1010 OFFCURVE",
"1093 1030 OFFCURVE",
"1174 1030 CURVE SMOOTH",
"1298 1030 OFFCURVE",
"1360 953 OFFCURVE",
"1360 800 CURVE SMOOTH",
"1360 735 OFFCURVE",
"1355 671 OFFCURVE",
"1345 606 CURVE",
"1270 562 LINE SMOOTH",
"1101 467 OFFCURVE",
"1013 350 OFFCURVE",
"1006 210 CURVE",
"1007 175 OFFCURVE",
"1013 144 OFFCURVE",
"1022 117 CURVE",
"931 85 OFFCURVE",
"870 49 OFFCURVE",
"840 8 CURVE SMOOTH",
"807 -37 OFFCURVE",
"790 -83 OFFCURVE",
"790 -128 CURVE SMOOTH",
"790 -220 OFFCURVE",
"773 -269 OFFCURVE",
"700 -294 CURVE",
"716 -394 LINE",
"733 -398 OFFCURVE",
"755 -400 OFFCURVE",
"783 -400 CURVE SMOOTH"
);
},
{
closed = 1;
nodes = (
"1177 151 OFFCURVE",
"1162 171 OFFCURVE",
"1162 210 CURVE SMOOTH",
"1162 287 OFFCURVE",
"1217 362 OFFCURVE",
"1328 436 CURVE",
"1317 358 OFFCURVE",
"1301 291 OFFCURVE",
"1281 235 CURVE SMOOTH",
"1260 179 OFFCURVE",
"1236 151 OFFCURVE",
"1207 151 CURVE SMOOTH"
);
}
);
width = 2400;
},
{
layerId = "B424D511-FB10-4699-AE11-5105CBAA4600";
paths = (
{
closed = 1;
nodes = (
"1317 358 OFFCURVE",
"1301 291 OFFCURVE",
"1281 235 CURVE SMOOTH",
"1260 179 OFFCURVE",
"1236 151 OFFCURVE",
"1207 151 CURVE SMOOTH",
"1177 151 OFFCURVE",
"1162 180 OFFCURVE",
"1162 238 CURVE SMOOTH",
"1162 296 OFFCURVE",
"1217 362 OFFCURVE",
"1328 436 CURVE"
);
},
{
closed = 1;
nodes = (
"1344 58 OFFCURVE",
"1363 76 OFFCURVE",
"1382 98 CURVE SMOOTH",
"1438 163 OFFCURVE",
"1476 294 OFFCURVE",
"1496 491 CURVE",
"1659 545 OFFCURVE",
"1747 658 OFFCURVE",
"1760 830 CURVE",
"1771 897 OFFCURVE",
"1834 930 OFFCURVE",
"1950 930 CURVE SMOOTH",
"2077 930 OFFCURVE",
"2140 900 OFFCURVE",
"2140 841 CURVE SMOOTH",
"2140 782 OFFCURVE",
"2099 730 OFFCURVE",
"2018 685 CURVE",
"2097 587 LINE",
"2232 670 OFFCURVE",
"2300 765 OFFCURVE",
"2300 870 CURVE SMOOTH",
"2300 1090 OFFCURVE",
"2183 1200 OFFCURVE",
"1950 1200 CURVE SMOOTH",
"1718 1200 OFFCURVE",
"1601 1077 OFFCURVE",
"1600 830 CURVE",
"1587 746 OFFCURVE",
"1559 695 OFFCURVE",
"1517 677 CURVE",
"1519 725 OFFCURVE",
"1520 766 OFFCURVE",
"1520 800 CURVE SMOOTH",
"1520 1067 OFFCURVE",
"1405 1200 OFFCURVE",
"1174 1200 CURVE SMOOTH",
"1084 1200 OFFCURVE",
"1002 1177 OFFCURVE",
"929 1130 CURVE SMOOTH",
"892 1107 OFFCURVE",
"856 1095 OFFCURVE",
"819 1095 CURVE SMOOTH",
"783 1095 OFFCURVE",
"747 1107 OFFCURVE",
"711 1130 CURVE SMOOTH",
"638 1177 OFFCURVE",
"555 1200 OFFCURVE",
"464 1200 CURVE SMOOTH",
"453 1200 OFFCURVE",
"440 1199 OFFCURVE",
"423 1196 CURVE",
"208 1171 OFFCURVE",
"100 982 OFFCURVE",
"100 627 CURVE SMOOTH",
"100 481 OFFCURVE",
"129 349 OFFCURVE",
"186 230 CURVE SMOOTH",
"261 76 OFFCURVE",
"371 -1 OFFCURVE",
"518 -1 CURVE SMOOTH",
"539 -1 OFFCURVE",
"561 0 OFFCURVE",
"584 3 CURVE",
"624 11 OFFCURVE",
"658 41 OFFCURVE",
"673 90 CURVE",
"677 106 OFFCURVE",
"679 121 OFFCURVE",
"679 135 CURVE SMOOTH",
"679 143 OFFCURVE",
"678 151 OFFCURVE",
"677 159 CURVE",
"669 203 OFFCURVE",
"640 240 OFFCURVE",
"600 255 CURVE",
"587 259 OFFCURVE",
"574 261 OFFCURVE",
"562 261 CURVE SMOOTH",
"555 261 OFFCURVE",
"548 260 OFFCURVE",
"541 259 CURVE",
"522 255 OFFCURVE",
"503 248 OFFCURVE",
"486 239 CURVE SMOOTH",
"468 229 OFFCURVE",
"456 207 OFFCURVE",
"449 173 CURVE",
"450 167 LINE",
"389 194 OFFCURVE",
"342 250 OFFCURVE",
"309 335 CURVE SMOOTH",
"276 420 OFFCURVE",
"260 517 OFFCURVE",
"260 627 CURVE SMOOTH",
"260 829 OFFCURVE",
"331 930 OFFCURVE",
"474 930 CURVE SMOOTH",
"550 930 OFFCURVE",
"620 910 OFFCURVE",
"685 870 CURVE SMOOTH",
"717 850 OFFCURVE",
"762 840 OFFCURVE",
"819 840 CURVE SMOOTH",
"878 840 OFFCURVE",
"923 850 OFFCURVE",
"955 870 CURVE SMOOTH",
"1020 910 OFFCURVE",
"1093 930 OFFCURVE",
"1174 930 CURVE SMOOTH",
"1298 930 OFFCURVE",
"1360 887 OFFCURVE",
"1360 800 CURVE SMOOTH",
"1360 735 OFFCURVE",
"1355 671 OFFCURVE",
"1345 606 CURVE",
"1270 562 LINE SMOOTH",
"1101 467 OFFCURVE",
"1013 350 OFFCURVE",
"1006 210 CURVE",
"1007 175 OFFCURVE",
"1013 144 OFFCURVE",
"1022 117 CURVE",
"931 85 OFFCURVE",
"870 49 OFFCURVE",
"840 8 CURVE SMOOTH",
"807 -37 OFFCURVE",
"790 -83 OFFCURVE",
"790 -128 CURVE SMOOTH",
"790 -220 OFFCURVE",
"773 -269 OFFCURVE",
"700 -294 CURVE",
"716 -394 LINE",
"733 -398 OFFCURVE",
"755 -400 OFFCURVE",
"783 -400 CURVE SMOOTH",
"812 -400 OFFCURVE",
"844 -388 OFFCURVE",
"879 -364 CURVE SMOOTH",
"914 -340 OFFCURVE",
"931 -294 OFFCURVE",
"931 -225 CURVE SMOOTH",
"931 -156 OFFCURVE",
"944 -104 OFFCURVE",
"971 -67 CURVE SMOOTH",
"993 -36 OFFCURVE",
"1042 -8 OFFCURVE",
"1119 18 CURVE",
"1056 -55 OFFCURVE",
"1025 -128 OFFCURVE",
"1025 -200 CURVE SMOOTH",
"1025 -333 OFFCURVE",
"1109 -400 OFFCURVE",
"1276 -400 CURVE SMOOTH",
"1407 -400 OFFCURVE",
"1498 -330 OFFCURVE",
"1550 -189 CURVE",
"1563 -143 OFFCURVE",
"1598 -120 OFFCURVE",
"1653 -120 CURVE SMOOTH",
"1688 -120 OFFCURVE",
"1705 -138 OFFCURVE",
"1705 -174 CURVE SMOOTH",
"1705 -210 OFFCURVE",
"1674 -261 OFFCURVE",
"1612 -326 CURVE",
"1712 -394 LINE",
"1801 -310 OFFCURVE",
"1845 -233 OFFCURVE",
"1845 -164 CURVE SMOOTH",
"1845 -21 OFFCURVE",
"1781 50 OFFCURVE",
"1653 50 CURVE SMOOTH",
"1538 50 OFFCURVE",
"1465 7 OFFCURVE",
"1434 -80 CURVE SMOOTH",
"1403 -167 OFFCURVE",
"1350 -210 OFFCURVE",
"1276 -210 CURVE SMOOTH",
"1209 -210 OFFCURVE",
"1175 -196 OFFCURVE",
"1175 -167 CURVE SMOOTH",
"1175 -139 OFFCURVE",
"1225 -69 OFFCURVE",
"1325 43 CURVE"
);
}
);
width = 2400;
}
);
note = uniAA12;
unicode = AA12;
},
{
glyphname = uniAA13;
lastChange = "2016-12-13 16:41:45 +0000";
layers = (
{
layerId = "2D060796-9665-4FEC-A6D6-D718506F2B5F";
paths = (
{
closed = 1;
nodes = (
"631 0 OFFCURVE",
"689 15 OFFCURVE",
"745 46 CURVE SMOOTH",
"800 77 OFFCURVE",
"843 120 OFFCURVE",
"874 176 CURVE SMOOTH",
"905 231 OFFCURVE",
"920 289 OFFCURVE",
"920 350 CURVE SMOOTH",
"920 411 OFFCURVE",
"904 469 OFFCURVE",
"873 526 CURVE SMOOTH",
"841 582 OFFCURVE",
"797 625 OFFCURVE",
"742 655 CURVE SMOOTH",
"686 685 OFFCURVE",
"629 700 OFFCURVE",
"570 700 CURVE SMOOTH",
"451 700 OFFCURVE",
"353 655 OFFCURVE",
"277 556 CURVE",
"266 611 OFFCURVE",
"260 665 OFFCURVE",
"260 720 CURVE SMOOTH",
"260 927 OFFCURVE",
"338 1030 OFFCURVE",
"493 1030 CURVE SMOOTH",
"641 1030 OFFCURVE",
"732 963 OFFCURVE",
"767 830 CURVE",
"859 830 LINE",
"902 963 OFFCURVE",
"1008 1030 OFFCURVE",
"1177 1030 CURVE SMOOTH",
"1352 1030 OFFCURVE",
"1440 953 OFFCURVE",
"1440 800 CURVE SMOOTH",
"1440 677 OFFCURVE",
"1397 583 OFFCURVE",
"1312 520 CURVE",
"1387 410 LINE",
"1529 496 OFFCURVE",
"1600 626 OFFCURVE",
"1600 800 CURVE SMOOTH",
"1600 1067 OFFCURVE",
"1462 1200 OFFCURVE",
"1187 1200 CURVE SMOOTH",
"1003 1200 OFFCURVE",
"881 1140 OFFCURVE",
"820 1021 CURVE",
"761 1140 OFFCURVE",
"647 1200 OFFCURVE",
"477 1200 CURVE SMOOTH",
"226 1200 OFFCURVE",
"100 1040 OFFCURVE",
"100 720 CURVE SMOOTH",
"100 606 OFFCURVE",
"125 464 OFFCURVE",
"176 293 CURVE",
"220 172 OFFCURVE",
"273 93 OFFCURVE",
"336 56 CURVE SMOOTH",
"398 19 OFFCURVE",
"476 0 OFFCURVE",
"570 0 CURVE SMOOTH"
);
},
{
closed = 1;
nodes = (
"465 145 OFFCURVE",
"365 245 OFFCURVE",
"370 350 CURVE",
"365 456 OFFCURVE",
"469 555 OFFCURVE",
"570 550 CURVE",
"671 555 OFFCURVE",
"775 456 OFFCURVE",
"770 350 CURVE",
"775 245 OFFCURVE",
"675 145 OFFCURVE",
"570 150 CURVE"
);
}
);
width = 1700;
},
{
layerId = "B424D511-FB10-4699-AE11-5105CBAA4600";
paths = (
{
closed = 1;
nodes = (
"365 429 OFFCURVE",
"469 504 OFFCURVE",
"570 500 CURVE",
"671 504 OFFCURVE",
"775 429 OFFCURVE",
"770 350 CURVE",
"775 272 OFFCURVE",
"675 197 OFFCURVE",
"570 200 CURVE",
"465 197 OFFCURVE",
"365 272 OFFCURVE",
"370 350 CURVE"
);
},
{
closed = 1;
nodes = (
"220 172 OFFCURVE",
"273 93 OFFCURVE",
"336 56 CURVE SMOOTH",
"398 19 OFFCURVE",
"476 0 OFFCURVE",
"570 0 CURVE SMOOTH",
"631 0 OFFCURVE",
"689 15 OFFCURVE",
"745 46 CURVE SMOOTH",
"800 77 OFFCURVE",
"843 120 OFFCURVE",
"874 176 CURVE SMOOTH",
"905 231 OFFCURVE",
"920 289 OFFCURVE",
"920 350 CURVE SMOOTH",
"920 411 OFFCURVE",
"904 469 OFFCURVE",
"873 526 CURVE SMOOTH",
"841 582 OFFCURVE",
"797 625 OFFCURVE",
"742 655 CURVE SMOOTH",
"686 685 OFFCURVE",
"629 700 OFFCURVE",
"570 700 CURVE SMOOTH",
"451 700 OFFCURVE",
"353 655 OFFCURVE",
"277 556 CURVE",
"266 611 OFFCURVE",
"260 665 OFFCURVE",
"260 720 CURVE SMOOTH",
"260 860 OFFCURVE",
"338 930 OFFCURVE",
"493 930 CURVE SMOOTH",
"641 930 OFFCURVE",
"732 880 OFFCURVE",
"767 780 CURVE",
"859 780 LINE",
"902 880 OFFCURVE",
"1008 930 OFFCURVE",
"1177 930 CURVE SMOOTH",
"1352 930 OFFCURVE",
"1440 878 OFFCURVE",
"1440 773 CURVE SMOOTH",
"1440 668 OFFCURVE",
"1397 583 OFFCURVE",
"1312 520 CURVE",
"1387 410 LINE",
"1529 496 OFFCURVE",
"1600 626 OFFCURVE",
"1600 800 CURVE SMOOTH",
"1600 1067 OFFCURVE",
"1462 1200 OFFCURVE",
"1187 1200 CURVE SMOOTH",
"1003 1200 OFFCURVE",
"881 1140 OFFCURVE",
"820 1021 CURVE",
"761 1140 OFFCURVE",
"647 1200 OFFCURVE",
"477 1200 CURVE SMOOTH",
"226 1200 OFFCURVE",
"100 1040 OFFCURVE",
"100 720 CURVE SMOOTH",
"100 606 OFFCURVE",
"125 464 OFFCURVE",
"176 293 CURVE"
);
}
);
width = 1700;
}
);
note = uniAA13;
unicode = AA13;
},
{
glyphname = uniAA14;
lastChange = "2016-12-13 16:41:45 +0000";
layers = (
{
layerId = "2D060796-9665-4FEC-A6D6-D718506F2B5F";
paths = (
{
closed = 1;
nodes = (
"980 0 OFFCURVE",
"1093 121 OFFCURVE",
"1093 362 CURVE SMOOTH",
"1093 402 LINE",
"1151 431 LINE",
"1205 479 OFFCURVE",
"1232 531 OFFCURVE",
"1232 587 CURVE SMOOTH",
"1232 614 OFFCURVE",
"1226 643 OFFCURVE",
"1214 672 CURVE SMOOTH",
"1175 761 OFFCURVE",
"1156 832 OFFCURVE",
"1156 884 CURVE SMOOTH",
"1156 981 OFFCURVE",
"1218 1030 OFFCURVE",
"1341 1030 CURVE SMOOTH",
"1464 1030 OFFCURVE",
"1526 981 OFFCURVE",
"1526 884 CURVE SMOOTH",
"1526 823 OFFCURVE",
"1504 779 OFFCURVE",
"1460 754 CURVE",
"1515 648 LINE",
"1622 705 OFFCURVE",
"1676 784 OFFCURVE",
"1676 884 CURVE SMOOTH",
"1676 1095 OFFCURVE",
"1566 1200 OFFCURVE",
"1346 1200 CURVE SMOOTH",
"1113 1200 OFFCURVE",
"996 1095 OFFCURVE",
"996 884 CURVE SMOOTH",
"996 797 OFFCURVE",
"1011 728 OFFCURVE",
"1040 677 CURVE SMOOTH",
"1051 658 OFFCURVE",
"1056 640 OFFCURVE",
"1056 625 CURVE SMOOTH",
"1056 599 OFFCURVE",
"1041 578 OFFCURVE",
"1011 563 CURVE",
"991 592 OFFCURVE",
"961 607 OFFCURVE",
"922 607 CURVE SMOOTH",
"907 607 OFFCURVE",
"890 605 OFFCURVE",
"873 601 CURVE SMOOTH",
"822 588 OFFCURVE",
"796 559 OFFCURVE",
"796 514 CURVE SMOOTH",
"796 502 OFFCURVE",
"798 489 OFFCURVE",
"801 475 CURVE SMOOTH",
"818 407 OFFCURVE",
"865 369 OFFCURVE",
"943 362 CURVE",
"943 221 OFFCURVE",
"882 150 OFFCURVE",
"761 150 CURVE SMOOTH",
"660 150 OFFCURVE",
"604 203 OFFCURVE",
"593 310 CURVE",
"593 390 OFFCURVE",
"628 479 OFFCURVE",
"697 576 CURVE SMOOTH",
"766 673 OFFCURVE",
"800 771 OFFCURVE",
"800 870 CURVE SMOOTH",
"800 1090 OFFCURVE",
"687 1200 OFFCURVE",
"460 1200 CURVE SMOOTH",
"220 1200 OFFCURVE",
"100 1077 OFFCURVE",
"100 830 CURVE SMOOTH",
"100 677 OFFCURVE",
"179 588 OFFCURVE",
"337 565 CURVE",
"390 677 LINE",
"310 698 OFFCURVE",
"270 749 OFFCURVE",
"270 830 CURVE SMOOTH",
"270 963 OFFCURVE",
"335 1030 OFFCURVE",
"465 1030 CURVE SMOOTH",
"582 1030 OFFCURVE",
"640 977 OFFCURVE",
"640 870 CURVE SMOOTH",
"640 811 OFFCURVE",
"607 733 OFFCURVE",
"542 634 CURVE SMOOTH",
"476 535 OFFCURVE",
"443 427 OFFCURVE",
"443 310 CURVE SMOOTH",
"444 103 OFFCURVE",
"548 0 OFFCURVE",
"754 0 CURVE SMOOTH"
);
}
);
width = 1776;
},
{
layerId = "B424D511-FB10-4699-AE11-5105CBAA4600";
paths = (
{
closed = 1;
nodes = (
"640 807 OFFCURVE",
"607 733 OFFCURVE",
"542 634 CURVE SMOOTH",
"476 535 OFFCURVE",
"443 427 OFFCURVE",
"443 310 CURVE SMOOTH",
"444 103 OFFCURVE",
"548 0 OFFCURVE",
"754 0 CURVE SMOOTH",
"980 0 OFFCURVE",
"1093 121 OFFCURVE",
"1093 362 CURVE SMOOTH",
"1093 402 LINE",
"1151 431 LINE",
"1205 479 OFFCURVE",
"1232 531 OFFCURVE",
"1232 587 CURVE SMOOTH",
"1232 614 OFFCURVE",
"1226 643 OFFCURVE",
"1214 672 CURVE SMOOTH",
"1175 761 OFFCURVE",
"1156 827 OFFCURVE",
"1156 868 CURVE SMOOTH",
"1156 909 OFFCURVE",
"1218 930 OFFCURVE",
"1341 930 CURVE SMOOTH",
"1464 930 OFFCURVE",
"1526 907 OFFCURVE",
"1526 861 CURVE SMOOTH",
"1526 815 OFFCURVE",
"1504 779 OFFCURVE",
"1460 754 CURVE",
"1515 648 LINE",
"1622 705 OFFCURVE",
"1676 784 OFFCURVE",
"1676 884 CURVE SMOOTH",
"1676 1095 OFFCURVE",
"1566 1200 OFFCURVE",
"1346 1200 CURVE SMOOTH",
"1113 1200 OFFCURVE",
"996 1095 OFFCURVE",
"996 884 CURVE SMOOTH",
"996 797 OFFCURVE",
"1011 728 OFFCURVE",
"1040 677 CURVE SMOOTH",
"1051 658 OFFCURVE",
"1056 640 OFFCURVE",
"1056 625 CURVE SMOOTH",
"1056 599 OFFCURVE",
"1041 578 OFFCURVE",
"1011 563 CURVE",
"991 592 OFFCURVE",
"961 607 OFFCURVE",
"922 607 CURVE SMOOTH",
"907 607 OFFCURVE",
"890 605 OFFCURVE",
"873 601 CURVE SMOOTH",
"822 588 OFFCURVE",
"796 559 OFFCURVE",
"796 514 CURVE SMOOTH",
"796 502 OFFCURVE",
"798 489 OFFCURVE",
"801 475 CURVE SMOOTH",
"818 407 OFFCURVE",
"865 369 OFFCURVE",
"943 362 CURVE",
"943 254 OFFCURVE",
"882 200 OFFCURVE",
"761 200 CURVE SMOOTH",
"660 200 OFFCURVE",
"604 237 OFFCURVE",
"593 310 CURVE",
"593 390 OFFCURVE",
"628 479 OFFCURVE",
"697 576 CURVE SMOOTH",
"766 673 OFFCURVE",
"800 771 OFFCURVE",
"800 870 CURVE SMOOTH",
"800 1090 OFFCURVE",
"687 1200 OFFCURVE",
"460 1200 CURVE SMOOTH",
"220 1200 OFFCURVE",
"100 1077 OFFCURVE",
"100 830 CURVE SMOOTH",
"100 677 OFFCURVE",
"179 588 OFFCURVE",
"337 565 CURVE",
"390 677 LINE",
"310 698 OFFCURVE",
"270 745 OFFCURVE",
"270 819 CURVE SMOOTH",
"270 893 OFFCURVE",
"335 930 OFFCURVE",
"465 930 CURVE SMOOTH",
"582 930 OFFCURVE",
"640 905 OFFCURVE",
"640 856 CURVE SMOOTH"
);
}
);
width = 1776;
}
);
note = uniAA14;
unicode = AA14;
},
{
glyphname = uniAA15;
lastChange = "2016-12-13 16:41:45 +0000";
layers = (
{
layerId = "2D060796-9665-4FEC-A6D6-D718506F2B5F";
paths = (
{
closed = 1;
nodes = (
"797 11 LINE",
"1082 102 OFFCURVE",
"1225 251 OFFCURVE",
"1225 460 CURVE SMOOTH",
"1225 553 OFFCURVE",
"1209 634 OFFCURVE",
"1178 703 CURVE SMOOTH",
"1147 772 OFFCURVE",
"1131 832 OFFCURVE",
"1131 884 CURVE SMOOTH",
"1131 981 OFFCURVE",
"1196 1030 OFFCURVE",
"1326 1030 CURVE SMOOTH",
"1456 1030 OFFCURVE",
"1521 981 OFFCURVE",
"1521 884 CURVE SMOOTH",
"1521 823 OFFCURVE",
"1498 777 OFFCURVE",
"1451 746 CURVE",
"1514 655 LINE",
"1619 708 OFFCURVE",
"1671 784 OFFCURVE",
"1671 884 CURVE SMOOTH",
"1671 1095 OFFCURVE",
"1556 1200 OFFCURVE",
"1326 1200 CURVE SMOOTH",
"1096 1200 OFFCURVE",
"981 1095 OFFCURVE",
"981 884 CURVE SMOOTH",
"981 797 OFFCURVE",
"997 723 OFFCURVE",
"1028 662 CURVE SMOOTH",
"1059 601 OFFCURVE",
"1075 533 OFFCURVE",
"1075 460 CURVE SMOOTH",
"1075 347 OFFCURVE",
"1001 261 OFFCURVE",
"853 202 CURVE",
"870 223 OFFCURVE",
"878 262 OFFCURVE",
"878 319 CURVE SMOOTH",
"878 433 OFFCURVE",
"823 519 OFFCURVE",
"714 577 CURVE",
"785 662 OFFCURVE",
"820 753 OFFCURVE",
"820 850 CURVE SMOOTH",
"820 1083 OFFCURVE",
"700 1200 OFFCURVE",
"460 1200 CURVE SMOOTH",
"220 1200 OFFCURVE",
"100 1077 OFFCURVE",
"100 830 CURVE SMOOTH",
"100 657 OFFCURVE",
"186 555 OFFCURVE",
"357 525 CURVE",
"410 637 LINE",
"317 664 OFFCURVE",
"270 729 OFFCURVE",
"270 830 CURVE SMOOTH",
"270 963 OFFCURVE",
"335 1030 OFFCURVE",
"465 1030 CURVE SMOOTH",
"595 1030 OFFCURVE",
"660 970 OFFCURVE",
"660 850 CURVE SMOOTH",
"660 757 OFFCURVE",
"612 678 OFFCURVE",
"516 612 CURVE",
"515 611 OFFCURVE",
"515 611 OFFCURVE",
"515 610 CURVE",
"519 511 LINE",
"662 458 OFFCURVE",
"734 389 OFFCURVE",
"734 302 CURVE SMOOTH",
"734 287 OFFCURVE",
"732 272 OFFCURVE",
"728 257 CURVE SMOOTH",
"713 198 OFFCURVE",
"690 144 OFFCURVE",
"661 95 CURVE",
"773 0 LINE"
);
}
);
width = 1771;
},
{
layerId = "B424D511-FB10-4699-AE11-5105CBAA4600";
paths = (
{
closed = 1;
nodes = (
"1225 553 OFFCURVE",
"1209 634 OFFCURVE",
"1178 703 CURVE SMOOTH",
"1147 772 OFFCURVE",
"1131 827 OFFCURVE",
"1131 868 CURVE SMOOTH",
"1131 909 OFFCURVE",
"1196 930 OFFCURVE",
"1326 930 CURVE SMOOTH",
"1456 930 OFFCURVE",
"1521 907 OFFCURVE",
"1521 861 CURVE SMOOTH",
"1521 815 OFFCURVE",
"1498 777 OFFCURVE",
"1451 746 CURVE",
"1514 655 LINE",
"1619 708 OFFCURVE",
"1671 784 OFFCURVE",
"1671 884 CURVE SMOOTH",
"1671 1095 OFFCURVE",
"1556 1200 OFFCURVE",
"1326 1200 CURVE SMOOTH",
"1096 1200 OFFCURVE",
"981 1095 OFFCURVE",
"981 884 CURVE SMOOTH",
"981 797 OFFCURVE",
"997 723 OFFCURVE",
"1028 662 CURVE SMOOTH",
"1059 601 OFFCURVE",
"1075 533 OFFCURVE",
"1075 460 CURVE SMOOTH",
"1075 347 OFFCURVE",
"1001 261 OFFCURVE",
"853 202 CURVE",
"870 223 OFFCURVE",
"878 262 OFFCURVE",
"878 319 CURVE SMOOTH",
"878 433 OFFCURVE",
"823 519 OFFCURVE",
"714 577 CURVE",
"785 662 OFFCURVE",
"820 753 OFFCURVE",
"820 850 CURVE SMOOTH",
"820 1083 OFFCURVE",
"700 1200 OFFCURVE",
"460 1200 CURVE SMOOTH",
"220 1200 OFFCURVE",
"100 1077 OFFCURVE",
"100 830 CURVE SMOOTH",
"100 657 OFFCURVE",
"186 555 OFFCURVE",
"357 525 CURVE",
"410 637 LINE",
"317 664 OFFCURVE",
"270 720 OFFCURVE",
"270 804 CURVE SMOOTH",
"270 888 OFFCURVE",
"335 930 OFFCURVE",
"465 930 CURVE SMOOTH",
"595 930 OFFCURVE",
"660 894 OFFCURVE",
"660 821 CURVE SMOOTH",
"660 748 OFFCURVE",
"612 678 OFFCURVE",
"516 612 CURVE",
"515 611 OFFCURVE",
"515 611 OFFCURVE",
"515 610 CURVE SMOOTH",
"519 461 LINE",
"662 408 OFFCURVE",
"734 355 OFFCURVE",
"734 302 CURVE SMOOTH",
"734 287 OFFCURVE",
"732 272 OFFCURVE",
"728 257 CURVE SMOOTH",
"713 198 OFFCURVE",
"690 144 OFFCURVE",
"661 95 CURVE",
"773 0 LINE",
"797 11 LINE",
"1082 102 OFFCURVE",
"1225 251 OFFCURVE",
"1225 460 CURVE SMOOTH"
);
}
);
width = 1771;
}
);
note = uniAA15;
unicode = AA15;
},
{
glyphname = uniAA16;
lastChange = "2016-12-13 16:41:45 +0000";
layers = (
{
layerId = "2D060796-9665-4FEC-A6D6-D718506F2B5F";
paths = (
{
closed = 1;
nodes = (
"1026 92 LINE",
"1008 109 OFFCURVE",
"999 152 OFFCURVE",
"999 223 CURVE SMOOTH",
"999 275 OFFCURVE",
"1028 330 OFFCURVE",
"1087 387 CURVE SMOOTH",
"1146 444 OFFCURVE",
"1175 515 OFFCURVE",
"1175 600 CURVE SMOOTH",
"1175 673 OFFCURVE",
"1159 734 OFFCURVE",
"1128 783 CURVE SMOOTH",
"1097 832 OFFCURVE",
"1081 879 OFFCURVE",
"1081 924 CURVE SMOOTH",
"1081 995 OFFCURVE",
"1146 1030 OFFCURVE",
"1276 1030 CURVE SMOOTH",
"1406 1030 OFFCURVE",
"1471 981 OFFCURVE",
"1471 884 CURVE SMOOTH",
"1471 823 OFFCURVE",
"1448 777 OFFCURVE",
"1401 746 CURVE",
"1464 655 LINE",
"1569 708 OFFCURVE",
"1621 784 OFFCURVE",
"1621 884 CURVE SMOOTH",
"1621 1095 OFFCURVE",
"1506 1200 OFFCURVE",
"1276 1200 CURVE SMOOTH",
"1046 1200 OFFCURVE",
"931 1108 OFFCURVE",
"931 924 CURVE SMOOTH",
"931 857 OFFCURVE",
"947 800 OFFCURVE",
"978 752 CURVE SMOOTH",
"1009 704 OFFCURVE",
"1025 653 OFFCURVE",
"1025 600 CURVE SMOOTH",
"1025 544 OFFCURVE",
"989 484 OFFCURVE",
"918 419 CURVE SMOOTH",
"865 370 OFFCURVE",
"838 311 OFFCURVE",
"838 240 CURVE SMOOTH",
"838 216 OFFCURVE",
"841 191 OFFCURVE",
"847 165 CURVE",
"723 203 OFFCURVE",
"654 281 OFFCURVE",
"641 400 CURVE",
"641 478 OFFCURVE",
"654 548 OFFCURVE",
"681 611 CURVE SMOOTH",
"707 674 OFFCURVE",
"730 750 OFFCURVE",
"750 840 CURVE",
"751 854 OFFCURVE",
"751 867 OFFCURVE",
"751 880 CURVE SMOOTH",
"751 1091 OFFCURVE",
"639 1197 OFFCURVE",
"416 1197 CURVE SMOOTH",
"205 1197 OFFCURVE",
"100 1075 OFFCURVE",
"100 830 CURVE SMOOTH",
"100 657 OFFCURVE",
"159 554 OFFCURVE",
"278 523 CURVE",
"356 618 LINE",
"292 645 OFFCURVE",
"260 715 OFFCURVE",
"260 830 CURVE SMOOTH",
"260 953 OFFCURVE",
"315 1020 OFFCURVE",
"425 1029 CURVE",
"536 1022 OFFCURVE",
"592 969 OFFCURVE",
"592 871 CURVE SMOOTH",
"592 861 OFFCURVE",
"591 851 OFFCURVE",
"590 840 CURVE",
"570 754 OFFCURVE",
"547 678 OFFCURVE",
"521 612 CURVE SMOOTH",
"494 546 OFFCURVE",
"481 475 OFFCURVE",
"481 400 CURVE",
"494 180 OFFCURVE",
"659 47 OFFCURVE",
"975 0 CURVE"
);
}
);
width = 1721;
},
{
layerId = "B424D511-FB10-4699-AE11-5105CBAA4600";
paths = (
{
closed = 1;
nodes = (
"1175 653 OFFCURVE",
"1159 703 OFFCURVE",
"1128 748 CURVE SMOOTH",
"1097 793 OFFCURVE",
"1081 835 OFFCURVE",
"1081 873 CURVE SMOOTH",
"1081 911 OFFCURVE",
"1146 930 OFFCURVE",
"1276 930 CURVE SMOOTH",
"1406 930 OFFCURVE",
"1471 907 OFFCURVE",
"1471 861 CURVE SMOOTH",
"1471 815 OFFCURVE",
"1448 777 OFFCURVE",
"1401 746 CURVE",
"1464 655 LINE",
"1569 708 OFFCURVE",
"1621 784 OFFCURVE",
"1621 884 CURVE SMOOTH",
"1621 1095 OFFCURVE",
"1506 1200 OFFCURVE",
"1276 1200 CURVE SMOOTH",
"1046 1200 OFFCURVE",
"931 1108 OFFCURVE",
"931 924 CURVE SMOOTH",
"931 857 OFFCURVE",
"947 800 OFFCURVE",
"978 752 CURVE SMOOTH",
"1009 704 OFFCURVE",
"1025 653 OFFCURVE",
"1025 600 CURVE SMOOTH",
"1025 544 OFFCURVE",
"1001 496 OFFCURVE",
"953 455 CURVE SMOOTH",
"904 414 OFFCURVE",
"873 370 OFFCURVE",
"859 324 CURVE SMOOTH",
"849 291 OFFCURVE",
"844 264 OFFCURVE",
"844 241 CURVE SMOOTH",
"844 232 OFFCURVE",
"845 223 OFFCURVE",
"847 215 CURVE",
"723 253 OFFCURVE",
"654 315 OFFCURVE",
"641 400 CURVE",
"641 478 OFFCURVE",
"654 548 OFFCURVE",
"681 611 CURVE SMOOTH",
"707 674 OFFCURVE",
"730 750 OFFCURVE",
"750 840 CURVE",
"751 854 OFFCURVE",
"751 867 OFFCURVE",
"751 880 CURVE SMOOTH",
"751 1091 OFFCURVE",
"639 1197 OFFCURVE",
"416 1197 CURVE SMOOTH",
"205 1197 OFFCURVE",
"100 1075 OFFCURVE",
"100 830 CURVE SMOOTH",
"100 657 OFFCURVE",
"159 554 OFFCURVE",
"278 523 CURVE",
"356 618 LINE",
"292 645 OFFCURVE",
"260 701 OFFCURVE",
"260 787 CURVE SMOOTH",
"260 872 OFFCURVE",
"315 920 OFFCURVE",
"425 929 CURVE",
"526 922 OFFCURVE",
"577 890 OFFCURVE",
"577 832 CURVE SMOOTH",
"577 827 OFFCURVE",
"577 821 OFFCURVE",
"576 815 CURVE SMOOTH",
"565 746 OFFCURVE",
"547 678 OFFCURVE",
"521 612 CURVE SMOOTH",
"494 546 OFFCURVE",
"481 475 OFFCURVE",
"481 400 CURVE",
"494 180 OFFCURVE",
"659 47 OFFCURVE",
"975 0 CURVE",
"1026 92 LINE",
"1008 109 OFFCURVE",
"999 152 OFFCURVE",
"999 223 CURVE SMOOTH",
"999 275 OFFCURVE",
"1028 330 OFFCURVE",
"1087 387 CURVE SMOOTH",
"1146 444 OFFCURVE",
"1175 515 OFFCURVE",
"1175 600 CURVE SMOOTH"
);
}
);
width = 1721;
}
);
note = uniAA16;
unicode = AA16;
},
{
glyphname = uniAA17;
lastChange = "2016-12-13 16:41:45 +0000";
layers = (
{
layerId = "2D060796-9665-4FEC-A6D6-D718506F2B5F";
paths = (
{
closed = 1;
nodes = (
"568 0 OFFCURVE",
"626 33 OFFCURVE",
"682 98 CURVE SMOOTH",
"733 157 OFFCURVE",
"769 267 OFFCURVE",
"788 428 CURVE",
"853 382 OFFCURVE",
"896 320 OFFCURVE",
"919 241 CURVE",
"1016 192 LINE",
"1100 253 OFFCURVE",
"1151 326 OFFCURVE",
"1168 409 CURVE",
"1170 421 OFFCURVE",
"1171 434 OFFCURVE",
"1171 448 CURVE SMOOTH",
"1171 485 OFFCURVE",
"1162 526 OFFCURVE",
"1144 573 CURVE",
"1128 610 OFFCURVE",
"1120 682 OFFCURVE",
"1120 790 CURVE SMOOTH",
"1120 950 OFFCURVE",
"1183 1030 OFFCURVE",
"1310 1030 CURVE SMOOTH",
"1430 1030 OFFCURVE",
"1490 977 OFFCURVE",
"1490 870 CURVE SMOOTH",
"1490 765 OFFCURVE",
"1463 687 OFFCURVE",
"1410 637 CURVE",
"1516 562 LINE",
"1612 649 OFFCURVE",
"1660 751 OFFCURVE",
"1660 870 CURVE SMOOTH",
"1660 1090 OFFCURVE",
"1543 1200 OFFCURVE",
"1310 1200 CURVE SMOOTH",
"1077 1200 OFFCURVE",
"960 1063 OFFCURVE",
"960 790 CURVE SMOOTH",
"960 681 OFFCURVE",
"974 594 OFFCURVE",
"1002 529 CURVE",
"1017 499 OFFCURVE",
"1024 469 OFFCURVE",
"1024 439 CURVE SMOOTH",
"1024 425 OFFCURVE",
"1017 405 OFFCURVE",
"1003 379 CURVE",
"982 432 OFFCURVE",
"952 481 OFFCURVE",
"914 524 CURVE SMOOTH",
"883 559 OFFCURVE",
"847 580 OFFCURVE",
"804 588 CURVE",
"815 703 OFFCURVE",
"820 774 OFFCURVE",
"820 800 CURVE SMOOTH",
"820 1067 OFFCURVE",
"700 1200 OFFCURVE",
"460 1200 CURVE SMOOTH",
"220 1200 OFFCURVE",
"100 1077 OFFCURVE",
"100 830 CURVE SMOOTH",
"100 657 OFFCURVE",
"186 555 OFFCURVE",
"357 525 CURVE",
"410 637 LINE",
"317 664 OFFCURVE",
"270 729 OFFCURVE",
"270 830 CURVE SMOOTH",
"270 963 OFFCURVE",
"335 1030 OFFCURVE",
"465 1030 CURVE SMOOTH",
"595 1030 OFFCURVE",
"660 953 OFFCURVE",
"660 800 CURVE SMOOTH",
"660 735 OFFCURVE",
"655 671 OFFCURVE",
"645 606 CURVE",
"570 562 LINE SMOOTH",
"401 467 OFFCURVE",
"313 350 OFFCURVE",
"306 210 CURVE",
"313 70 OFFCURVE",
"380 0 OFFCURVE",
"507 0 CURVE SMOOTH"
);
},
{
closed = 1;
nodes = (
"477 151 OFFCURVE",
"462 171 OFFCURVE",
"462 210 CURVE SMOOTH",
"462 287 OFFCURVE",
"517 362 OFFCURVE",
"628 436 CURVE",
"617 358 OFFCURVE",
"601 291 OFFCURVE",
"581 235 CURVE SMOOTH",
"560 179 OFFCURVE",
"536 151 OFFCURVE",
"507 151 CURVE SMOOTH"
);
}
);
width = 1760;
},
{
layerId = "B424D511-FB10-4699-AE11-5105CBAA4600";
paths = (
{
closed = 1;
nodes = (
"605 280 OFFCURVE",
"564 201 OFFCURVE",
"507 201 CURVE SMOOTH",
"477 201 OFFCURVE",
"462 222 OFFCURVE",
"462 263 CURVE SMOOTH",
"462 304 OFFCURVE",
"517 362 OFFCURVE",
"628 436 CURVE"
);
},
{
closed = 1;
nodes = (
"853 382 OFFCURVE",
"896 320 OFFCURVE",
"919 241 CURVE",
"1016 192 LINE",
"1100 253 OFFCURVE",
"1151 326 OFFCURVE",
"1168 409 CURVE",
"1170 421 OFFCURVE",
"1171 434 OFFCURVE",
"1171 448 CURVE SMOOTH",
"1171 485 OFFCURVE",
"1162 526 OFFCURVE",
"1144 573 CURVE",
"1128 610 OFFCURVE",
"1120 682 OFFCURVE",
"1120 790 CURVE SMOOTH",
"1120 883 OFFCURVE",
"1183 930 OFFCURVE",
"1310 930 CURVE SMOOTH",
"1430 930 OFFCURVE",
"1490 894 OFFCURVE",
"1490 821 CURVE SMOOTH",
"1490 748 OFFCURVE",
"1463 687 OFFCURVE",
"1410 637 CURVE",
"1516 562 LINE",
"1612 649 OFFCURVE",
"1660 751 OFFCURVE",
"1660 870 CURVE SMOOTH",
"1660 1090 OFFCURVE",
"1543 1200 OFFCURVE",
"1310 1200 CURVE SMOOTH",
"1077 1200 OFFCURVE",
"960 1063 OFFCURVE",
"960 790 CURVE SMOOTH",
"960 681 OFFCURVE",
"974 594 OFFCURVE",
"1002 529 CURVE",
"1017 499 OFFCURVE",
"1024 469 OFFCURVE",
"1024 439 CURVE SMOOTH",
"1024 425 OFFCURVE",
"1017 405 OFFCURVE",
"1003 379 CURVE",
"982 432 OFFCURVE",
"952 481 OFFCURVE",
"914 524 CURVE SMOOTH",
"883 559 OFFCURVE",
"847 580 OFFCURVE",
"804 588 CURVE",
"815 703 OFFCURVE",
"820 774 OFFCURVE",
"820 800 CURVE SMOOTH",
"820 1067 OFFCURVE",
"700 1200 OFFCURVE",
"460 1200 CURVE SMOOTH",
"220 1200 OFFCURVE",
"100 1077 OFFCURVE",
"100 830 CURVE SMOOTH",
"100 657 OFFCURVE",
"186 555 OFFCURVE",
"357 525 CURVE",
"410 637 LINE",
"317 664 OFFCURVE",
"270 720 OFFCURVE",
"270 804 CURVE SMOOTH",
"270 888 OFFCURVE",
"335 930 OFFCURVE",
"465 930 CURVE SMOOTH",
"595 930 OFFCURVE",
"660 887 OFFCURVE",
"660 800 CURVE SMOOTH",
"660 735 OFFCURVE",
"655 671 OFFCURVE",
"645 606 CURVE",
"570 562 LINE SMOOTH",
"401 467 OFFCURVE",
"313 350 OFFCURVE",
"306 210 CURVE",
"313 70 OFFCURVE",
"380 0 OFFCURVE",
"507 0 CURVE SMOOTH",
"568 0 OFFCURVE",
"626 33 OFFCURVE",
"682 98 CURVE SMOOTH",
"733 157 OFFCURVE",
"769 267 OFFCURVE",
"788 428 CURVE"
);
}
);
width = 1760;
}
);
note = uniAA17;
unicode = AA17;
},
{
glyphname = uniAA18;
lastChange = "2016-12-13 16:41:45 +0000";
layers = (
{
layerId = "2D060796-9665-4FEC-A6D6-D718506F2B5F";
paths = (
{
closed = 1;
nodes = (
"955 -403 OFFCURVE",
"977 -400 OFFCURVE",
"1001 -394 CURVE SMOOTH",
"1120 -362 OFFCURVE",
"1199 -286 OFFCURVE",
"1238 -165 CURVE SMOOTH",
"1277 -44 OFFCURVE",
"1319 25 OFFCURVE",
"1362 44 CURVE",
"1367 46 OFFCURVE",
"1371 48 OFFCURVE",
"1376 49 CURVE",
"1384 51 OFFCURVE",
"1391 52 OFFCURVE",
"1398 52 CURVE SMOOTH",
"1426 52 OFFCURVE",
"1445 35 OFFCURVE",
"1454 0 CURVE",
"1454 -2 LINE",
"1459 -22 OFFCURVE",
"1462 -43 OFFCURVE",
"1462 -65 CURVE SMOOTH",
"1462 -107 OFFCURVE",
"1453 -154 OFFCURVE",
"1435 -205 CURVE",
"1567 -219 LINE",
"1590 -156 OFFCURVE",
"1601 -95 OFFCURVE",
"1601 -37 CURVE SMOOTH",
"1601 0 OFFCURVE",
"1596 37 OFFCURVE",
"1587 72 CURVE SMOOTH",
"1581 94 OFFCURVE",
"1573 117 OFFCURVE",
"1563 141 CURVE SMOOTH",
"1536 205 OFFCURVE",
"1490 237 OFFCURVE",
"1423 237 CURVE SMOOTH",
"1401 237 OFFCURVE",
"1377 234 OFFCURVE",
"1350 227 CURVE SMOOTH",
"1263 204 OFFCURVE",
"1196 125 OFFCURVE",
"1147 -9 CURVE SMOOTH",
"1098 -142 OFFCURVE",
"1035 -219 OFFCURVE",
"960 -239 CURVE",
"955 -240 OFFCURVE",
"951 -241 OFFCURVE",
"946 -241 CURVE SMOOTH",
"910 -241 OFFCURVE",
"881 -201 OFFCURVE",
"860 -121 CURVE",
"857 -112 OFFCURVE",
"856 -102 OFFCURVE",
"856 -91 CURVE SMOOTH",
"856 -30 OFFCURVE",
"901 48 OFFCURVE",
"990 142 CURVE SMOOTH",
"1068 224 LINE SMOOTH",
"1120 278 OFFCURVE",
"1153 340 OFFCURVE",
"1168 409 CURVE",
"1170 421 OFFCURVE",
"1171 434 OFFCURVE",
"1171 448 CURVE SMOOTH",
"1171 485 OFFCURVE",
"1162 526 OFFCURVE",
"1144 573 CURVE",
"1128 610 OFFCURVE",
"1120 682 OFFCURVE",
"1120 790 CURVE SMOOTH",
"1120 950 OFFCURVE",
"1183 1030 OFFCURVE",
"1310 1030 CURVE SMOOTH",
"1430 1030 OFFCURVE",
"1490 977 OFFCURVE",
"1490 870 CURVE SMOOTH",
"1490 765 OFFCURVE",
"1463 687 OFFCURVE",
"1410 637 CURVE",
"1516 562 LINE",
"1612 649 OFFCURVE",
"1660 751 OFFCURVE",
"1660 870 CURVE SMOOTH",
"1660 1090 OFFCURVE",
"1543 1200 OFFCURVE",
"1310 1200 CURVE SMOOTH",
"1077 1200 OFFCURVE",
"960 1063 OFFCURVE",
"960 790 CURVE SMOOTH",
"960 681 OFFCURVE",
"974 594 OFFCURVE",
"1002 529 CURVE",
"1017 499 OFFCURVE",
"1024 469 OFFCURVE",
"1024 439 CURVE SMOOTH",
"1024 425 OFFCURVE",
"1017 405 OFFCURVE",
"1003 379 CURVE",
"982 432 OFFCURVE",
"952 481 OFFCURVE",
"914 524 CURVE SMOOTH",
"883 559 OFFCURVE",
"847 580 OFFCURVE",
"804 588 CURVE",
"815 703 OFFCURVE",
"820 774 OFFCURVE",
"820 800 CURVE SMOOTH",
"820 1067 OFFCURVE",
"700 1200 OFFCURVE",
"460 1200 CURVE SMOOTH",
"220 1200 OFFCURVE",
"100 1077 OFFCURVE",
"100 830 CURVE SMOOTH",
"100 657 OFFCURVE",
"186 555 OFFCURVE",
"357 525 CURVE",
"410 637 LINE",
"317 664 OFFCURVE",
"270 729 OFFCURVE",
"270 830 CURVE SMOOTH",
"270 963 OFFCURVE",
"335 1030 OFFCURVE",
"465 1030 CURVE SMOOTH",
"595 1030 OFFCURVE",
"660 953 OFFCURVE",
"660 800 CURVE SMOOTH",
"660 735 OFFCURVE",
"655 671 OFFCURVE",
"645 606 CURVE",
"570 562 LINE SMOOTH",
"401 467 OFFCURVE",
"313 350 OFFCURVE",
"306 210 CURVE",
"313 70 OFFCURVE",
"380 0 OFFCURVE",
"507 0 CURVE SMOOTH",
"568 0 OFFCURVE",
"626 33 OFFCURVE",
"682 98 CURVE SMOOTH",
"733 157 OFFCURVE",
"769 267 OFFCURVE",
"788 428 CURVE",
"838 393 OFFCURVE",
"875 347 OFFCURVE",
"900 292 CURVE",
"765 155 OFFCURVE",
"697 29 OFFCURVE",
"697 -87 CURVE SMOOTH",
"697 -112 OFFCURVE",
"700 -137 OFFCURVE",
"707 -161 CURVE SMOOTH",
"750 -322 OFFCURVE",
"825 -403 OFFCURVE",
"934 -403 CURVE SMOOTH"
);
},
{
closed = 1;
nodes = (
"477 151 OFFCURVE",
"462 171 OFFCURVE",
"462 210 CURVE SMOOTH",
"462 287 OFFCURVE",
"517 362 OFFCURVE",
"628 436 CURVE",
"617 358 OFFCURVE",
"601 291 OFFCURVE",
"581 235 CURVE SMOOTH",
"560 179 OFFCURVE",
"536 151 OFFCURVE",
"507 151 CURVE SMOOTH"
);
}
);
width = 1760;
},
{
layerId = "B424D511-FB10-4699-AE11-5105CBAA4600";
paths = (
{
closed = 1;
nodes = (
"605 280 OFFCURVE",
"564 201 OFFCURVE",
"507 201 CURVE SMOOTH",
"477 201 OFFCURVE",
"462 222 OFFCURVE",
"462 263 CURVE SMOOTH",
"462 304 OFFCURVE",
"517 362 OFFCURVE",
"628 436 CURVE"
);
},
{
closed = 1;
nodes = (
"1068 224 LINE SMOOTH",
"1120 278 OFFCURVE",
"1153 340 OFFCURVE",
"1168 409 CURVE",
"1170 421 OFFCURVE",
"1171 434 OFFCURVE",
"1171 448 CURVE SMOOTH",
"1171 485 OFFCURVE",
"1162 526 OFFCURVE",
"1144 573 CURVE",
"1128 610 OFFCURVE",
"1120 682 OFFCURVE",
"1120 790 CURVE SMOOTH",
"1120 883 OFFCURVE",
"1183 930 OFFCURVE",
"1310 930 CURVE SMOOTH",
"1430 930 OFFCURVE",
"1490 894 OFFCURVE",
"1490 821 CURVE SMOOTH",
"1490 748 OFFCURVE",
"1463 687 OFFCURVE",
"1410 637 CURVE",
"1516 562 LINE",
"1612 649 OFFCURVE",
"1660 751 OFFCURVE",
"1660 870 CURVE SMOOTH",
"1660 1090 OFFCURVE",
"1543 1200 OFFCURVE",
"1310 1200 CURVE SMOOTH",
"1077 1200 OFFCURVE",
"960 1063 OFFCURVE",
"960 790 CURVE SMOOTH",
"960 681 OFFCURVE",
"974 594 OFFCURVE",
"1002 529 CURVE",
"1017 499 OFFCURVE",
"1024 469 OFFCURVE",
"1024 439 CURVE SMOOTH",
"1024 425 OFFCURVE",
"1017 405 OFFCURVE",
"1003 379 CURVE",
"982 432 OFFCURVE",
"952 481 OFFCURVE",
"914 524 CURVE SMOOTH",
"883 559 OFFCURVE",
"847 580 OFFCURVE",
"804 588 CURVE",
"815 703 OFFCURVE",
"820 774 OFFCURVE",
"820 800 CURVE SMOOTH",
"820 1067 OFFCURVE",
"700 1200 OFFCURVE",
"460 1200 CURVE SMOOTH",
"220 1200 OFFCURVE",
"100 1077 OFFCURVE",
"100 830 CURVE SMOOTH",
"100 657 OFFCURVE",
"186 555 OFFCURVE",
"357 525 CURVE",
"410 637 LINE",
"317 664 OFFCURVE",
"270 720 OFFCURVE",
"270 804 CURVE SMOOTH",
"270 888 OFFCURVE",
"335 930 OFFCURVE",
"465 930 CURVE SMOOTH",
"595 930 OFFCURVE",
"660 887 OFFCURVE",
"660 800 CURVE SMOOTH",
"660 735 OFFCURVE",
"655 671 OFFCURVE",
"645 606 CURVE",
"570 562 LINE SMOOTH",
"401 467 OFFCURVE",
"313 350 OFFCURVE",
"306 210 CURVE",
"313 70 OFFCURVE",
"380 0 OFFCURVE",
"507 0 CURVE SMOOTH",
"568 0 OFFCURVE",
"626 33 OFFCURVE",
"682 98 CURVE SMOOTH",
"733 157 OFFCURVE",
"769 267 OFFCURVE",
"788 428 CURVE",
"838 393 OFFCURVE",
"875 347 OFFCURVE",
"900 292 CURVE",
"765 155 OFFCURVE",
"697 29 OFFCURVE",
"697 -87 CURVE SMOOTH",
"697 -112 OFFCURVE",
"700 -137 OFFCURVE",
"707 -161 CURVE SMOOTH",
"750 -322 OFFCURVE",
"825 -403 OFFCURVE",
"934 -403 CURVE SMOOTH",
"955 -403 OFFCURVE",
"977 -400 OFFCURVE",
"1001 -394 CURVE SMOOTH",
"1120 -362 OFFCURVE",
"1199 -294 OFFCURVE",
"1238 -190 CURVE SMOOTH",
"1277 -86 OFFCURVE",
"1321 -28 OFFCURVE",
"1369 -16 CURVE",
"1379 -13 OFFCURVE",
"1388 -12 OFFCURVE",
"1397 -12 CURVE SMOOTH",
"1427 -12 OFFCURVE",
"1445 -29 OFFCURVE",
"1451 -63 CURVE SMOOTH",
"1453 -76 OFFCURVE",
"1454 -89 OFFCURVE",
"1454 -102 CURVE SMOOTH",
"1454 -134 OFFCURVE",
"1448 -168 OFFCURVE",
"1435 -205 CURVE",
"1567 -219 LINE",
"1590 -156 OFFCURVE",
"1601 -95 OFFCURVE",
"1601 -37 CURVE SMOOTH",
"1601 0 OFFCURVE",
"1596 37 OFFCURVE",
"1587 72 CURVE SMOOTH",
"1581 94 OFFCURVE",
"1573 117 OFFCURVE",
"1563 141 CURVE SMOOTH",
"1536 205 OFFCURVE",
"1490 237 OFFCURVE",
"1423 237 CURVE SMOOTH",
"1401 237 OFFCURVE",
"1377 234 OFFCURVE",
"1350 227 CURVE SMOOTH",
"1263 204 OFFCURVE",
"1196 134 OFFCURVE",
"1147 17 CURVE SMOOTH",
"1098 -101 OFFCURVE",
"1035 -169 OFFCURVE",
"960 -189 CURVE",
"955 -190 OFFCURVE",
"951 -191 OFFCURVE",
"946 -191 CURVE SMOOTH",
"910 -191 OFFCURVE",
"886 -159 OFFCURVE",
"874 -95 CURVE",
"873 -88 OFFCURVE",
"872 -80 OFFCURVE",
"872 -72 CURVE SMOOTH",
"872 -12 OFFCURVE",
"911 59 OFFCURVE",
"990 142 CURVE SMOOTH"
);
}
);
width = 1760;
}
);
note = uniAA18;
unicode = AA18;
},
{
glyphname = uniAA19;
lastChange = "2016-12-13 16:41:45 +0000";
layers = (
{
layerId = "2D060796-9665-4FEC-A6D6-D718506F2B5F";
paths = (
{
closed = 1;
nodes = (
"643 -400 OFFCURVE",
"734 -330 OFFCURVE",
"786 -189 CURVE",
"799 -143 OFFCURVE",
"834 -120 OFFCURVE",
"889 -120 CURVE SMOOTH",
"924 -120 OFFCURVE",
"941 -138 OFFCURVE",
"941 -174 CURVE SMOOTH",
"941 -210 OFFCURVE",
"910 -261 OFFCURVE",
"848 -326 CURVE",
"948 -394 LINE",
"1037 -310 OFFCURVE",
"1081 -233 OFFCURVE",
"1081 -164 CURVE SMOOTH",
"1081 -55 OFFCURVE",
"1017 0 OFFCURVE",
"889 0 CURVE SMOOTH",
"774 0 OFFCURVE",
"698 -50 OFFCURVE",
"660 -150 CURVE SMOOTH",
"635 -223 OFFCURVE",
"586 -260 OFFCURVE",
"512 -260 CURVE SMOOTH",
"445 -260 OFFCURVE",
"411 -240 OFFCURVE",
"411 -200 CURVE SMOOTH",
"411 -141 OFFCURVE",
"463 -70 OFFCURVE",
"567 11 CURVE",
"606 26 OFFCURVE",
"645 55 OFFCURVE",
"682 98 CURVE SMOOTH",
"733 157 OFFCURVE",
"769 267 OFFCURVE",
"788 428 CURVE",
"853 382 OFFCURVE",
"896 320 OFFCURVE",
"919 241 CURVE",
"1016 192 LINE",
"1100 253 OFFCURVE",
"1151 326 OFFCURVE",
"1168 409 CURVE",
"1170 421 OFFCURVE",
"1171 434 OFFCURVE",
"1171 448 CURVE SMOOTH",
"1171 485 OFFCURVE",
"1162 526 OFFCURVE",
"1144 573 CURVE",
"1128 610 OFFCURVE",
"1120 682 OFFCURVE",
"1120 790 CURVE SMOOTH",
"1120 950 OFFCURVE",
"1183 1030 OFFCURVE",
"1310 1030 CURVE SMOOTH",
"1430 1030 OFFCURVE",
"1490 977 OFFCURVE",
"1490 870 CURVE SMOOTH",
"1490 765 OFFCURVE",
"1463 687 OFFCURVE",
"1410 637 CURVE",
"1516 562 LINE",
"1612 649 OFFCURVE",
"1660 751 OFFCURVE",
"1660 870 CURVE SMOOTH",
"1660 1090 OFFCURVE",
"1543 1200 OFFCURVE",
"1310 1200 CURVE SMOOTH",
"1077 1200 OFFCURVE",
"960 1063 OFFCURVE",
"960 790 CURVE SMOOTH",
"960 681 OFFCURVE",
"974 594 OFFCURVE",
"1002 529 CURVE",
"1017 499 OFFCURVE",
"1024 469 OFFCURVE",
"1024 439 CURVE SMOOTH",
"1024 425 OFFCURVE",
"1017 405 OFFCURVE",
"1003 379 CURVE",
"982 432 OFFCURVE",
"952 481 OFFCURVE",
"914 524 CURVE SMOOTH",
"883 559 OFFCURVE",
"847 580 OFFCURVE",
"804 588 CURVE",
"815 703 OFFCURVE",
"820 774 OFFCURVE",
"820 800 CURVE SMOOTH",
"820 1067 OFFCURVE",
"700 1200 OFFCURVE",
"460 1200 CURVE SMOOTH",
"220 1200 OFFCURVE",
"100 1077 OFFCURVE",
"100 830 CURVE SMOOTH",
"100 657 OFFCURVE",
"186 555 OFFCURVE",
"357 525 CURVE",
"410 637 LINE",
"317 664 OFFCURVE",
"270 729 OFFCURVE",
"270 830 CURVE SMOOTH",
"270 963 OFFCURVE",
"335 1030 OFFCURVE",
"465 1030 CURVE SMOOTH",
"595 1030 OFFCURVE",
"660 953 OFFCURVE",
"660 800 CURVE SMOOTH",
"660 735 OFFCURVE",
"655 671 OFFCURVE",
"645 606 CURVE",
"570 562 LINE SMOOTH",
"401 467 OFFCURVE",
"313 350 OFFCURVE",
"306 210 CURVE",
"310 131 OFFCURVE",
"333 75 OFFCURVE",
"374 40 CURVE",
"299 -41 OFFCURVE",
"261 -121 OFFCURVE",
"261 -200 CURVE SMOOTH",
"261 -333 OFFCURVE",
"345 -400 OFFCURVE",
"512 -400 CURVE SMOOTH"
);
},
{
closed = 1;
nodes = (
"477 151 OFFCURVE",
"462 171 OFFCURVE",
"462 210 CURVE SMOOTH",
"462 287 OFFCURVE",
"517 362 OFFCURVE",
"628 436 CURVE",
"617 358 OFFCURVE",
"601 291 OFFCURVE",
"581 235 CURVE SMOOTH",
"560 179 OFFCURVE",
"536 151 OFFCURVE",
"507 151 CURVE SMOOTH"
);
}
);
width = 1760;
},
{
layerId = "B424D511-FB10-4699-AE11-5105CBAA4600";
paths = (
{
closed = 1;
nodes = (
"605 280 OFFCURVE",
"564 201 OFFCURVE",
"507 201 CURVE SMOOTH",
"477 201 OFFCURVE",
"462 222 OFFCURVE",
"462 263 CURVE SMOOTH",
"462 304 OFFCURVE",
"517 362 OFFCURVE",
"628 436 CURVE"
);
},
{
closed = 1;
nodes = (
"299 -41 OFFCURVE",
"261 -121 OFFCURVE",
"261 -200 CURVE SMOOTH",
"261 -333 OFFCURVE",
"345 -400 OFFCURVE",
"512 -400 CURVE SMOOTH",
"609 -400 OFFCURVE",
"683 -353 OFFCURVE",
"732 -260 CURVE SMOOTH",
"781 -167 OFFCURVE",
"834 -120 OFFCURVE",
"889 -120 CURVE SMOOTH",
"924 -120 OFFCURVE",
"941 -138 OFFCURVE",
"941 -174 CURVE SMOOTH",
"941 -210 OFFCURVE",
"910 -261 OFFCURVE",
"848 -326 CURVE",
"948 -394 LINE",
"1037 -310 OFFCURVE",
"1081 -233 OFFCURVE",
"1081 -164 CURVE SMOOTH",
"1081 -21 OFFCURVE",
"1017 50 OFFCURVE",
"889 50 CURVE SMOOTH",
"808 50 OFFCURVE",
"743 7 OFFCURVE",
"695 -80 CURVE SMOOTH",
"647 -167 OFFCURVE",
"586 -210 OFFCURVE",
"512 -210 CURVE SMOOTH",
"445 -210 OFFCURVE",
"411 -193 OFFCURVE",
"411 -160 CURVE SMOOTH",
"411 -127 OFFCURVE",
"463 -70 OFFCURVE",
"567 11 CURVE",
"606 26 OFFCURVE",
"645 55 OFFCURVE",
"682 98 CURVE SMOOTH",
"733 157 OFFCURVE",
"769 267 OFFCURVE",
"788 428 CURVE",
"853 382 OFFCURVE",
"896 320 OFFCURVE",
"919 241 CURVE",
"1016 192 LINE",
"1100 253 OFFCURVE",
"1151 326 OFFCURVE",
"1168 409 CURVE",
"1170 421 OFFCURVE",
"1171 434 OFFCURVE",
"1171 448 CURVE SMOOTH",
"1171 485 OFFCURVE",
"1162 526 OFFCURVE",
"1144 573 CURVE",
"1128 610 OFFCURVE",
"1120 682 OFFCURVE",
"1120 790 CURVE SMOOTH",
"1120 883 OFFCURVE",
"1183 930 OFFCURVE",
"1310 930 CURVE SMOOTH",
"1430 930 OFFCURVE",
"1490 894 OFFCURVE",
"1490 821 CURVE SMOOTH",
"1490 748 OFFCURVE",
"1463 687 OFFCURVE",
"1410 637 CURVE",
"1516 562 LINE",
"1612 649 OFFCURVE",
"1660 751 OFFCURVE",
"1660 870 CURVE SMOOTH",
"1660 1090 OFFCURVE",
"1543 1200 OFFCURVE",
"1310 1200 CURVE SMOOTH",
"1077 1200 OFFCURVE",
"960 1063 OFFCURVE",
"960 790 CURVE SMOOTH",
"960 681 OFFCURVE",
"974 594 OFFCURVE",
"1002 529 CURVE",
"1017 499 OFFCURVE",
"1024 469 OFFCURVE",
"1024 439 CURVE SMOOTH",
"1024 425 OFFCURVE",
"1017 405 OFFCURVE",
"1003 379 CURVE",
"982 432 OFFCURVE",
"952 481 OFFCURVE",
"914 524 CURVE SMOOTH",
"883 559 OFFCURVE",
"847 580 OFFCURVE",
"804 588 CURVE",
"815 703 OFFCURVE",
"820 774 OFFCURVE",
"820 800 CURVE SMOOTH",
"820 1067 OFFCURVE",
"700 1200 OFFCURVE",
"460 1200 CURVE SMOOTH",
"220 1200 OFFCURVE",
"100 1077 OFFCURVE",
"100 830 CURVE SMOOTH",
"100 657 OFFCURVE",
"186 555 OFFCURVE",
"357 525 CURVE",
"410 637 LINE",
"317 664 OFFCURVE",
"270 720 OFFCURVE",
"270 804 CURVE SMOOTH",
"270 888 OFFCURVE",
"335 930 OFFCURVE",
"465 930 CURVE SMOOTH",
"595 930 OFFCURVE",
"660 887 OFFCURVE",
"660 800 CURVE SMOOTH",
"660 735 OFFCURVE",
"655 671 OFFCURVE",
"645 606 CURVE",
"570 562 LINE SMOOTH",
"401 467 OFFCURVE",
"313 350 OFFCURVE",
"306 210 CURVE",
"310 131 OFFCURVE",
"333 75 OFFCURVE",
"374 40 CURVE"
);
}
);
width = 1760;
}
);
note = uniAA19;
unicode = AA19;
},
{
glyphname = uniAA1A;
lastChange = "2016-12-13 16:41:45 +0000";
layers = (
{
layerId = "2D060796-9665-4FEC-A6D6-D718506F2B5F";
paths = (
{
closed = 1;
nodes = (
"105 0 LINE SMOOTH",
"378 0 OFFCURVE",
"515 140 OFFCURVE",
"515 420 CURVE SMOOTH",
"515 500 OFFCURVE",
"493 578 OFFCURVE",
"448 653 CURVE SMOOTH",
"403 728 OFFCURVE",
"381 785 OFFCURVE",
"381 824 CURVE SMOOTH",
"381 961 OFFCURVE",
"455 1030 OFFCURVE",
"604 1030 CURVE SMOOTH",
"752 1030 OFFCURVE",
"843 963 OFFCURVE",
"878 830 CURVE",
"970 830 LINE",
"1013 963 OFFCURVE",
"1112 1030 OFFCURVE",
"1268 1030 CURVE SMOOTH",
"1430 1030 OFFCURVE",
"1511 953 OFFCURVE",
"1511 800 CURVE SMOOTH",
"1511 677 OFFCURVE",
"1468 583 OFFCURVE",
"1383 520 CURVE",
"1458 410 LINE",
"1600 496 OFFCURVE",
"1671 626 OFFCURVE",
"1671 800 CURVE SMOOTH",
"1671 1067 OFFCURVE",
"1540 1200 OFFCURVE",
"1278 1200 CURVE SMOOTH",
"1107 1200 OFFCURVE",
"992 1140 OFFCURVE",
"931 1021 CURVE",
"872 1140 OFFCURVE",
"758 1200 OFFCURVE",
"588 1200 CURVE SMOOTH",
"343 1200 OFFCURVE",
"221 1075 OFFCURVE",
"221 824 CURVE SMOOTH",
"221 764 OFFCURVE",
"245 700 OFFCURVE",
"293 632 CURVE SMOOTH",
"341 564 OFFCURVE",
"365 493 OFFCURVE",
"365 420 CURVE SMOOTH",
"365 291 OFFCURVE",
"337 215 OFFCURVE",
"281 191 CURVE",
"294 225 OFFCURVE",
"300 261 OFFCURVE",
"300 300 CURVE SMOOTH",
"300 352 OFFCURVE",
"287 402 OFFCURVE",
"260 451 CURVE SMOOTH",
"233 499 OFFCURVE",
"195 536 OFFCURVE",
"147 562 CURVE SMOOTH",
"99 587 OFFCURVE",
"50 600 OFFCURVE",
"0 600 CURVE SMOOTH",
"-51 600 OFFCURVE",
"-100 587 OFFCURVE",
"-148 562 CURVE SMOOTH",
"-195 536 OFFCURVE",
"-233 499 OFFCURVE",
"-260 451 CURVE SMOOTH",
"-287 402 OFFCURVE",
"-300 352 OFFCURVE",
"-300 300 CURVE SMOOTH",
"-300 248 OFFCURVE",
"-287 198 OFFCURVE",
"-261 151 CURVE SMOOTH",
"-208 55 OFFCURVE",
"-104 0 OFFCURVE",
"0 0 CURVE SMOOTH"
);
},
{
closed = 1;
nodes = (
"-78 147 OFFCURVE",
"-153 221 OFFCURVE",
"-150 300 CURVE",
"-150 326 OFFCURVE",
"-143 351 OFFCURVE",
"-130 375 CURVE SMOOTH",
"-102 423 OFFCURVE",
"-51 450 OFFCURVE",
"0 450 CURVE",
"77 454 OFFCURVE",
"154 379 OFFCURVE",
"150 300 CURVE",
"153 221 OFFCURVE",
"78 147 OFFCURVE",
"0 150 CURVE"
);
}
);
width = 1771;
},
{
layerId = "B424D511-FB10-4699-AE11-5105CBAA4600";
paths = (
{
closed = 1;
nodes = (
"-102 382 OFFCURVE",
"-51 400 OFFCURVE",
"0 400 CURVE",
"77 403 OFFCURVE",
"154 353 OFFCURVE",
"150 300 CURVE",
"150 246 OFFCURVE",
"81 200 OFFCURVE",
"0 200 CURVE SMOOTH",
"-81 200 OFFCURVE",
"-150 246 OFFCURVE",
"-150 300 CURVE SMOOTH",
"-150 317 OFFCURVE",
"-143 334 OFFCURVE",
"-130 350 CURVE"
);
},
{
closed = 1;
nodes = (
"381 895 OFFCURVE",
"455 930 OFFCURVE",
"604 930 CURVE SMOOTH",
"752 930 OFFCURVE",
"843 880 OFFCURVE",
"878 780 CURVE",
"970 780 LINE",
"1013 880 OFFCURVE",
"1112 930 OFFCURVE",
"1268 930 CURVE SMOOTH",
"1430 930 OFFCURVE",
"1511 877 OFFCURVE",
"1511 770 CURVE SMOOTH",
"1511 667 OFFCURVE",
"1468 583 OFFCURVE",
"1383 520 CURVE",
"1458 410 LINE",
"1600 496 OFFCURVE",
"1671 626 OFFCURVE",
"1671 800 CURVE SMOOTH",
"1671 1067 OFFCURVE",
"1540 1200 OFFCURVE",
"1278 1200 CURVE SMOOTH",
"1107 1200 OFFCURVE",
"992 1140 OFFCURVE",
"931 1021 CURVE",
"872 1140 OFFCURVE",
"758 1200 OFFCURVE",
"588 1200 CURVE SMOOTH",
"343 1200 OFFCURVE",
"221 1075 OFFCURVE",
"221 824 CURVE SMOOTH",
"221 764 OFFCURVE",
"245 700 OFFCURVE",
"293 632 CURVE SMOOTH",
"341 564 OFFCURVE",
"365 493 OFFCURVE",
"365 420 CURVE SMOOTH",
"365 291 OFFCURVE",
"337 215 OFFCURVE",
"281 191 CURVE",
"294 225 OFFCURVE",
"300 261 OFFCURVE",
"300 300 CURVE SMOOTH",
"300 352 OFFCURVE",
"287 402 OFFCURVE",
"260 451 CURVE SMOOTH",
"233 499 OFFCURVE",
"195 536 OFFCURVE",
"147 562 CURVE SMOOTH",
"99 587 OFFCURVE",
"50 600 OFFCURVE",
"0 600 CURVE SMOOTH",
"-51 600 OFFCURVE",
"-100 587 OFFCURVE",
"-148 562 CURVE SMOOTH",
"-195 536 OFFCURVE",
"-233 499 OFFCURVE",
"-260 451 CURVE SMOOTH",
"-287 402 OFFCURVE",
"-300 352 OFFCURVE",
"-300 300 CURVE SMOOTH",
"-300 248 OFFCURVE",
"-287 198 OFFCURVE",
"-261 151 CURVE SMOOTH",
"-208 55 OFFCURVE",
"-104 0 OFFCURVE",
"0 0 CURVE SMOOTH",
"105 0 LINE SMOOTH",
"378 0 OFFCURVE",
"515 140 OFFCURVE",
"515 420 CURVE SMOOTH",
"515 500 OFFCURVE",
"493 578 OFFCURVE",
"448 653 CURVE SMOOTH",
"403 728 OFFCURVE",
"381 785 OFFCURVE",
"381 824 CURVE SMOOTH"
);
}
);
width = 1771;
}
);
note = uniAA1A;
unicode = AA1A;
},
{
glyphname = uniAA1B;
lastChange = "2016-12-13 16:41:45 +0000";
layers = (
{
layerId = "2D060796-9665-4FEC-A6D6-D718506F2B5F";
paths = (
{
closed = 1;
nodes = (
"646 0 OFFCURVE",
"679 12 OFFCURVE",
"712 35 CURVE",
"757 12 OFFCURVE",
"804 0 OFFCURVE",
"851 0 CURVE SMOOTH",
"885 0 OFFCURVE",
"920 6 OFFCURVE",
"955 18 CURVE SMOOTH",
"1040 46 OFFCURVE",
"1106 97 OFFCURVE",
"1153 171 CURVE SMOOTH",
"1188 226 OFFCURVE",
"1206 284 OFFCURVE",
"1206 343 CURVE SMOOTH",
"1206 351 LINE",
"1204 413 OFFCURVE",
"1194 475 OFFCURVE",
"1177 536 CURVE SMOOTH",
"1159 597 OFFCURVE",
"1150 682 OFFCURVE",
"1150 790 CURVE SMOOTH",
"1150 950 OFFCURVE",
"1213 1030 OFFCURVE",
"1340 1030 CURVE SMOOTH",
"1460 1030 OFFCURVE",
"1520 977 OFFCURVE",
"1520 870 CURVE SMOOTH",
"1520 765 OFFCURVE",
"1493 687 OFFCURVE",
"1440 637 CURVE",
"1546 562 LINE",
"1642 649 OFFCURVE",
"1690 751 OFFCURVE",
"1690 870 CURVE SMOOTH",
"1690 1090 OFFCURVE",
"1573 1200 OFFCURVE",
"1340 1200 CURVE SMOOTH",
"1107 1200 OFFCURVE",
"990 1063 OFFCURVE",
"990 790 CURVE SMOOTH",
"990 681 OFFCURVE",
"999 596 OFFCURVE",
"1017 535 CURVE SMOOTH",
"1035 474 OFFCURVE",
"1045 425 OFFCURVE",
"1046 390 CURVE SMOOTH",
"1046 380 LINE SMOOTH",
"1046 347 OFFCURVE",
"1040 314 OFFCURVE",
"1028 280 CURVE SMOOTH",
"1015 242 OFFCURVE",
"987 210 OFFCURVE",
"945 185 CURVE SMOOTH",
"902 160 OFFCURVE",
"866 147 OFFCURVE",
"835 147 CURVE SMOOTH",
"815 147 OFFCURVE",
"796 151 OFFCURVE",
"779 159 CURVE",
"825 208 OFFCURVE",
"848 272 OFFCURVE",
"848 349 CURVE SMOOTH",
"848 443 OFFCURVE",
"803 519 OFFCURVE",
"714 577 CURVE",
"785 662 OFFCURVE",
"820 753 OFFCURVE",
"820 850 CURVE SMOOTH",
"820 1083 OFFCURVE",
"700 1200 OFFCURVE",
"460 1200 CURVE SMOOTH",
"220 1200 OFFCURVE",
"100 1077 OFFCURVE",
"100 830 CURVE SMOOTH",
"100 657 OFFCURVE",
"186 555 OFFCURVE",
"357 525 CURVE",
"391 632 LINE",
"310 663 OFFCURVE",
"270 729 OFFCURVE",
"270 830 CURVE SMOOTH",
"270 963 OFFCURVE",
"335 1030 OFFCURVE",
"465 1030 CURVE SMOOTH",
"595 1030 OFFCURVE",
"660 970 OFFCURVE",
"660 850 CURVE SMOOTH",
"660 757 OFFCURVE",
"612 678 OFFCURVE",
"516 612 CURVE",
"515 611 OFFCURVE",
"515 611 OFFCURVE",
"515 610 CURVE",
"519 511 LINE",
"629 458 OFFCURVE",
"684 402 OFFCURVE",
"684 342 CURVE SMOOTH",
"684 306 OFFCURVE",
"667 268 OFFCURVE",
"634 227 CURVE",
"589 242 OFFCURVE",
"547 250 OFFCURVE",
"509 250 CURVE SMOOTH",
"423 250 OFFCURVE",
"380 200 OFFCURVE",
"380 100 CURVE SMOOTH",
"380 33 OFFCURVE",
"457 0 OFFCURVE",
"612 0 CURVE SMOOTH"
);
}
);
width = 1790;
},
{
layerId = "B424D511-FB10-4699-AE11-5105CBAA4600";
paths = (
{
closed = 1;
nodes = (
"589 272 OFFCURVE",
"547 280 OFFCURVE",
"509 280 CURVE",
"423 260 OFFCURVE",
"380 200 OFFCURVE",
"380 100 CURVE SMOOTH",
"380 33 OFFCURVE",
"457 0 OFFCURVE",
"612 0 CURVE SMOOTH",
"646 0 OFFCURVE",
"679 12 OFFCURVE",
"712 35 CURVE",
"757 12 OFFCURVE",
"804 0 OFFCURVE",
"851 0 CURVE SMOOTH",
"885 0 OFFCURVE",
"920 6 OFFCURVE",
"955 18 CURVE SMOOTH",
"1040 46 OFFCURVE",
"1106 97 OFFCURVE",
"1153 171 CURVE SMOOTH",
"1188 226 OFFCURVE",
"1206 284 OFFCURVE",
"1206 343 CURVE SMOOTH",
"1206 351 LINE",
"1204 413 OFFCURVE",
"1194 475 OFFCURVE",
"1177 536 CURVE SMOOTH",
"1159 597 OFFCURVE",
"1150 682 OFFCURVE",
"1150 790 CURVE SMOOTH",
"1150 883 OFFCURVE",
"1213 930 OFFCURVE",
"1340 930 CURVE SMOOTH",
"1460 930 OFFCURVE",
"1520 894 OFFCURVE",
"1520 821 CURVE SMOOTH",
"1520 748 OFFCURVE",
"1493 687 OFFCURVE",
"1440 637 CURVE",
"1546 562 LINE",
"1642 649 OFFCURVE",
"1690 751 OFFCURVE",
"1690 870 CURVE SMOOTH",
"1690 1090 OFFCURVE",
"1573 1200 OFFCURVE",
"1340 1200 CURVE SMOOTH",
"1107 1200 OFFCURVE",
"990 1063 OFFCURVE",
"990 790 CURVE SMOOTH",
"990 681 OFFCURVE",
"999 596 OFFCURVE",
"1017 535 CURVE SMOOTH",
"1035 474 OFFCURVE",
"1045 425 OFFCURVE",
"1046 390 CURVE SMOOTH",
"1046 380 LINE SMOOTH",
"1046 347 OFFCURVE",
"1040 318 OFFCURVE",
"1027 292 CURVE SMOOTH",
"1014 266 OFFCURVE",
"987 244 OFFCURVE",
"945 225 CURVE SMOOTH",
"902 206 OFFCURVE",
"866 197 OFFCURVE",
"835 197 CURVE SMOOTH",
"815 197 OFFCURVE",
"796 201 OFFCURVE",
"779 209 CURVE",
"825 258 OFFCURVE",
"848 305 OFFCURVE",
"848 349 CURVE SMOOTH",
"848 443 OFFCURVE",
"803 519 OFFCURVE",
"714 577 CURVE",
"785 662 OFFCURVE",
"820 753 OFFCURVE",
"820 850 CURVE SMOOTH",
"820 1083 OFFCURVE",
"700 1200 OFFCURVE",
"460 1200 CURVE SMOOTH",
"220 1200 OFFCURVE",
"100 1077 OFFCURVE",
"100 830 CURVE SMOOTH",
"100 657 OFFCURVE",
"186 555 OFFCURVE",
"357 525 CURVE",
"391 632 LINE",
"310 663 OFFCURVE",
"270 720 OFFCURVE",
"270 804 CURVE SMOOTH",
"270 888 OFFCURVE",
"335 930 OFFCURVE",
"465 930 CURVE SMOOTH",
"595 930 OFFCURVE",
"660 894 OFFCURVE",
"660 821 CURVE SMOOTH",
"660 748 OFFCURVE",
"612 678 OFFCURVE",
"516 612 CURVE",
"515 611 OFFCURVE",
"515 611 OFFCURVE",
"515 610 CURVE",
"519 511 LINE",
"629 458 OFFCURVE",
"684 402 OFFCURVE",
"684 342 CURVE SMOOTH",
"684 306 OFFCURVE",
"667 278 OFFCURVE",
"634 257 CURVE"
);
}
);
width = 1790;
}
);
note = uniAA1B;
unicode = AA1B;
},
{
glyphname = uniAA1C;
lastChange = "2016-12-13 16:41:45 +0000";
layers = (
{
layerId = "2D060796-9665-4FEC-A6D6-D718506F2B5F";
paths = (
{
closed = 1;
nodes = (
"105 0 LINE SMOOTH",
"385 0 OFFCURVE",
"525 153 OFFCURVE",
"525 460 CURVE SMOOTH",
"525 540 OFFCURVE",
"508 618 OFFCURVE",
"473 693 CURVE SMOOTH",
"438 768 OFFCURVE",
"421 832 OFFCURVE",
"421 884 CURVE SMOOTH",
"421 981 OFFCURVE",
"493 1030 OFFCURVE",
"637 1030 CURVE SMOOTH",
"781 1030 OFFCURVE",
"853 970 OFFCURVE",
"853 850 CURVE SMOOTH",
"853 791 OFFCURVE",
"815 724 OFFCURVE",
"738 649 CURVE SMOOTH",
"661 574 OFFCURVE",
"623 467 OFFCURVE",
"623 330 CURVE SMOOTH",
"624 110 OFFCURVE",
"738 0 OFFCURVE",
"964 0 CURVE SMOOTH",
"1190 0 OFFCURVE",
"1303 121 OFFCURVE",
"1303 362 CURVE SMOOTH",
"1303 402 LINE",
"1361 431 LINE",
"1415 479 OFFCURVE",
"1442 531 OFFCURVE",
"1442 587 CURVE SMOOTH",
"1442 614 OFFCURVE",
"1436 643 OFFCURVE",
"1424 672 CURVE SMOOTH",
"1385 761 OFFCURVE",
"1366 832 OFFCURVE",
"1366 884 CURVE SMOOTH",
"1366 981 OFFCURVE",
"1418 1030 OFFCURVE",
"1521 1030 CURVE SMOOTH",
"1618 1030 OFFCURVE",
"1666 981 OFFCURVE",
"1666 884 CURVE SMOOTH",
"1666 823 OFFCURVE",
"1644 779 OFFCURVE",
"1600 754 CURVE",
"1655 648 LINE",
"1762 705 OFFCURVE",
"1816 784 OFFCURVE",
"1816 884 CURVE SMOOTH",
"1816 1095 OFFCURVE",
"1719 1200 OFFCURVE",
"1526 1200 CURVE SMOOTH",
"1313 1200 OFFCURVE",
"1206 1095 OFFCURVE",
"1206 884 CURVE SMOOTH",
"1206 797 OFFCURVE",
"1221 728 OFFCURVE",
"1250 677 CURVE SMOOTH",
"1261 658 OFFCURVE",
"1266 640 OFFCURVE",
"1266 625 CURVE SMOOTH",
"1266 599 OFFCURVE",
"1251 578 OFFCURVE",
"1221 563 CURVE",
"1201 592 OFFCURVE",
"1171 607 OFFCURVE",
"1132 607 CURVE SMOOTH",
"1117 607 OFFCURVE",
"1100 605 OFFCURVE",
"1083 601 CURVE SMOOTH",
"1032 588 OFFCURVE",
"1006 559 OFFCURVE",
"1006 514 CURVE SMOOTH",
"1006 502 OFFCURVE",
"1008 489 OFFCURVE",
"1011 475 CURVE SMOOTH",
"1028 407 OFFCURVE",
"1075 369 OFFCURVE",
"1153 362 CURVE",
"1153 221 OFFCURVE",
"1092 150 OFFCURVE",
"971 150 CURVE SMOOTH",
"850 150 OFFCURVE",
"784 210 OFFCURVE",
"773 330 CURVE",
"773 430 OFFCURVE",
"811 517 OFFCURVE",
"888 591 CURVE SMOOTH",
"965 665 OFFCURVE",
"1003 751 OFFCURVE",
"1003 850 CURVE SMOOTH",
"1003 1083 OFFCURVE",
"881 1200 OFFCURVE",
"637 1200 CURVE SMOOTH",
"393 1200 OFFCURVE",
"271 1095 OFFCURVE",
"271 884 CURVE SMOOTH",
"271 811 OFFCURVE",
"288 740 OFFCURVE",
"323 672 CURVE SMOOTH",
"358 604 OFFCURVE",
"375 533 OFFCURVE",
"375 460 CURVE SMOOTH",
"375 305 OFFCURVE",
"337 202 OFFCURVE",
"261 151 CURVE",
"287 198 OFFCURVE",
"300 248 OFFCURVE",
"300 300 CURVE SMOOTH",
"300 352 OFFCURVE",
"287 402 OFFCURVE",
"260 451 CURVE SMOOTH",
"233 499 OFFCURVE",
"195 536 OFFCURVE",
"147 562 CURVE SMOOTH",
"99 587 OFFCURVE",
"50 600 OFFCURVE",
"0 600 CURVE SMOOTH",
"-51 600 OFFCURVE",
"-100 587 OFFCURVE",
"-148 562 CURVE SMOOTH",
"-195 536 OFFCURVE",
"-233 499 OFFCURVE",
"-260 451 CURVE SMOOTH",
"-287 402 OFFCURVE",
"-300 352 OFFCURVE",
"-300 300 CURVE SMOOTH",
"-300 248 OFFCURVE",
"-287 198 OFFCURVE",
"-261 151 CURVE SMOOTH",
"-208 55 OFFCURVE",
"-104 0 OFFCURVE",
"0 0 CURVE SMOOTH"
);
},
{
closed = 1;
nodes = (
"-78 147 OFFCURVE",
"-153 221 OFFCURVE",
"-150 300 CURVE",
"-150 326 OFFCURVE",
"-143 351 OFFCURVE",
"-130 375 CURVE SMOOTH",
"-102 423 OFFCURVE",
"-51 450 OFFCURVE",
"0 450 CURVE",
"77 454 OFFCURVE",
"154 379 OFFCURVE",
"150 300 CURVE",
"153 221 OFFCURVE",
"78 147 OFFCURVE",
"0 150 CURVE"
);
}
);
width = 1916;
},
{
layerId = "B424D511-FB10-4699-AE11-5105CBAA4600";
paths = (
{
closed = 1;
nodes = (
"-102 382 OFFCURVE",
"-51 400 OFFCURVE",
"0 400 CURVE",
"77 403 OFFCURVE",
"154 353 OFFCURVE",
"150 300 CURVE",
"150 246 OFFCURVE",
"81 200 OFFCURVE",
"0 200 CURVE SMOOTH",
"-81 200 OFFCURVE",
"-150 246 OFFCURVE",
"-150 300 CURVE SMOOTH",
"-150 317 OFFCURVE",
"-143 334 OFFCURVE",
"-130 350 CURVE"
);
},
{
closed = 1;
nodes = (
"853 790 OFFCURVE",
"815 724 OFFCURVE",
"738 649 CURVE SMOOTH",
"661 574 OFFCURVE",
"623 467 OFFCURVE",
"623 330 CURVE SMOOTH",
"624 110 OFFCURVE",
"738 0 OFFCURVE",
"964 0 CURVE SMOOTH",
"1190 0 OFFCURVE",
"1303 121 OFFCURVE",
"1303 362 CURVE SMOOTH",
"1303 402 LINE",
"1361 431 LINE",
"1415 479 OFFCURVE",
"1442 531 OFFCURVE",
"1442 587 CURVE SMOOTH",
"1442 614 OFFCURVE",
"1436 643 OFFCURVE",
"1424 672 CURVE SMOOTH",
"1385 761 OFFCURVE",
"1366 827 OFFCURVE",
"1366 868 CURVE SMOOTH",
"1366 909 OFFCURVE",
"1418 930 OFFCURVE",
"1521 930 CURVE SMOOTH",
"1618 930 OFFCURVE",
"1666 907 OFFCURVE",
"1666 861 CURVE SMOOTH",
"1666 815 OFFCURVE",
"1644 779 OFFCURVE",
"1600 754 CURVE",
"1655 648 LINE",
"1762 705 OFFCURVE",
"1816 784 OFFCURVE",
"1816 884 CURVE SMOOTH",
"1816 1095 OFFCURVE",
"1719 1200 OFFCURVE",
"1526 1200 CURVE SMOOTH",
"1313 1200 OFFCURVE",
"1206 1095 OFFCURVE",
"1206 884 CURVE SMOOTH",
"1206 797 OFFCURVE",
"1221 728 OFFCURVE",
"1250 677 CURVE SMOOTH",
"1261 658 OFFCURVE",
"1266 640 OFFCURVE",
"1266 625 CURVE SMOOTH",
"1266 599 OFFCURVE",
"1251 578 OFFCURVE",
"1221 563 CURVE",
"1201 592 OFFCURVE",
"1171 607 OFFCURVE",
"1132 607 CURVE SMOOTH",
"1117 607 OFFCURVE",
"1100 605 OFFCURVE",
"1083 601 CURVE SMOOTH",
"1032 588 OFFCURVE",
"1006 559 OFFCURVE",
"1006 514 CURVE SMOOTH",
"1006 502 OFFCURVE",
"1008 489 OFFCURVE",
"1011 475 CURVE SMOOTH",
"1028 407 OFFCURVE",
"1075 369 OFFCURVE",
"1153 362 CURVE",
"1153 254 OFFCURVE",
"1092 200 OFFCURVE",
"971 200 CURVE SMOOTH",
"850 200 OFFCURVE",
"784 243 OFFCURVE",
"773 330 CURVE",
"773 430 OFFCURVE",
"811 517 OFFCURVE",
"888 591 CURVE SMOOTH",
"965 665 OFFCURVE",
"1003 751 OFFCURVE",
"1003 850 CURVE SMOOTH",
"1003 1083 OFFCURVE",
"881 1200 OFFCURVE",
"637 1200 CURVE SMOOTH",
"393 1200 OFFCURVE",
"271 1095 OFFCURVE",
"271 884 CURVE SMOOTH",
"271 811 OFFCURVE",
"288 740 OFFCURVE",
"323 672 CURVE SMOOTH",
"358 604 OFFCURVE",
"375 533 OFFCURVE",
"375 460 CURVE SMOOTH",
"375 305 OFFCURVE",
"337 202 OFFCURVE",
"261 151 CURVE",
"287 198 OFFCURVE",
"300 248 OFFCURVE",
"300 300 CURVE SMOOTH",
"300 352 OFFCURVE",
"287 402 OFFCURVE",
"260 451 CURVE SMOOTH",
"233 499 OFFCURVE",
"195 536 OFFCURVE",
"147 562 CURVE SMOOTH",
"99 587 OFFCURVE",
"50 600 OFFCURVE",
"0 600 CURVE SMOOTH",
"-51 600 OFFCURVE",
"-100 587 OFFCURVE",
"-148 562 CURVE SMOOTH",
"-195 536 OFFCURVE",
"-233 499 OFFCURVE",
"-260 451 CURVE SMOOTH",
"-287 402 OFFCURVE",
"-300 352 OFFCURVE",
"-300 300 CURVE SMOOTH",
"-300 248 OFFCURVE",
"-287 198 OFFCURVE",
"-261 151 CURVE SMOOTH",
"-208 55 OFFCURVE",
"-104 0 OFFCURVE",
"0 0 CURVE SMOOTH",
"105 0 LINE SMOOTH",
"385 0 OFFCURVE",
"525 153 OFFCURVE",
"525 460 CURVE SMOOTH",
"525 540 OFFCURVE",
"508 618 OFFCURVE",
"473 693 CURVE SMOOTH",
"438 768 OFFCURVE",
"421 827 OFFCURVE",
"421 868 CURVE SMOOTH",
"421 909 OFFCURVE",
"493 930 OFFCURVE",
"637 930 CURVE SMOOTH",
"781 930 OFFCURVE",
"853 902 OFFCURVE",
"853 846 CURVE SMOOTH"
);
}
);
width = 1916;
}
);
note = uniAA1C;
unicode = AA1C;
},
{
glyphname = uniAA1D;
lastChange = "2016-12-13 16:41:45 +0000";
layers = (
{
layerId = "2D060796-9665-4FEC-A6D6-D718506F2B5F";
paths = (
{
closed = 1;
nodes = (
"1093 0 OFFCURVE",
"1223 121 OFFCURVE",
"1223 362 CURVE SMOOTH",
"1223 521 OFFCURVE",
"1208 634 OFFCURVE",
"1179 703 CURVE SMOOTH",
"1149 772 OFFCURVE",
"1134 832 OFFCURVE",
"1134 884 CURVE SMOOTH",
"1134 981 OFFCURVE",
"1206 1030 OFFCURVE",
"1349 1030 CURVE SMOOTH",
"1492 1030 OFFCURVE",
"1564 981 OFFCURVE",
"1564 884 CURVE SMOOTH",
"1564 823 OFFCURVE",
"1541 777 OFFCURVE",
"1494 746 CURVE",
"1557 655 LINE",
"1662 708 OFFCURVE",
"1714 784 OFFCURVE",
"1714 884 CURVE SMOOTH",
"1714 1095 OFFCURVE",
"1592 1200 OFFCURVE",
"1349 1200 CURVE SMOOTH",
"1106 1200 OFFCURVE",
"984 1095 OFFCURVE",
"984 884 CURVE SMOOTH",
"984 797 OFFCURVE",
"999 723 OFFCURVE",
"1029 662 CURVE SMOOTH",
"1058 601 OFFCURVE",
"1073 501 OFFCURVE",
"1073 362 CURVE SMOOTH",
"1073 221 OFFCURVE",
"996 150 OFFCURVE",
"841 150 CURVE SMOOTH",
"686 150 OFFCURVE",
"604 203 OFFCURVE",
"593 310 CURVE",
"593 390 OFFCURVE",
"628 479 OFFCURVE",
"697 576 CURVE SMOOTH",
"766 673 OFFCURVE",
"800 771 OFFCURVE",
"800 870 CURVE SMOOTH",
"800 1090 OFFCURVE",
"687 1200 OFFCURVE",
"460 1200 CURVE SMOOTH",
"220 1200 OFFCURVE",
"100 1077 OFFCURVE",
"100 830 CURVE SMOOTH",
"100 677 OFFCURVE",
"179 588 OFFCURVE",
"337 565 CURVE",
"390 677 LINE",
"310 698 OFFCURVE",
"270 749 OFFCURVE",
"270 830 CURVE SMOOTH",
"270 963 OFFCURVE",
"335 1030 OFFCURVE",
"465 1030 CURVE SMOOTH",
"582 1030 OFFCURVE",
"640 977 OFFCURVE",
"640 870 CURVE SMOOTH",
"640 811 OFFCURVE",
"607 733 OFFCURVE",
"542 634 CURVE SMOOTH",
"476 535 OFFCURVE",
"443 427 OFFCURVE",
"443 310 CURVE SMOOTH",
"444 103 OFFCURVE",
"575 0 OFFCURVE",
"834 0 CURVE SMOOTH"
);
}
);
width = 1814;
},
{
layerId = "B424D511-FB10-4699-AE11-5105CBAA4600";
paths = (
{
closed = 1;
nodes = (
"640 807 OFFCURVE",
"607 733 OFFCURVE",
"542 634 CURVE SMOOTH",
"476 535 OFFCURVE",
"443 427 OFFCURVE",
"443 310 CURVE SMOOTH",
"444 103 OFFCURVE",
"575 0 OFFCURVE",
"834 0 CURVE SMOOTH",
"1093 0 OFFCURVE",
"1223 121 OFFCURVE",
"1223 362 CURVE SMOOTH",
"1223 521 OFFCURVE",
"1208 634 OFFCURVE",
"1179 703 CURVE SMOOTH",
"1149 772 OFFCURVE",
"1134 827 OFFCURVE",
"1134 868 CURVE SMOOTH",
"1134 909 OFFCURVE",
"1206 930 OFFCURVE",
"1349 930 CURVE SMOOTH",
"1492 930 OFFCURVE",
"1564 907 OFFCURVE",
"1564 861 CURVE SMOOTH",
"1564 815 OFFCURVE",
"1541 777 OFFCURVE",
"1494 746 CURVE",
"1557 655 LINE",
"1662 708 OFFCURVE",
"1714 784 OFFCURVE",
"1714 884 CURVE SMOOTH",
"1714 1095 OFFCURVE",
"1592 1200 OFFCURVE",
"1349 1200 CURVE SMOOTH",
"1106 1200 OFFCURVE",
"984 1095 OFFCURVE",
"984 884 CURVE SMOOTH",
"984 797 OFFCURVE",
"999 723 OFFCURVE",
"1029 662 CURVE SMOOTH",
"1058 601 OFFCURVE",
"1073 501 OFFCURVE",
"1073 362 CURVE SMOOTH",
"1073 254 OFFCURVE",
"996 200 OFFCURVE",
"841 200 CURVE SMOOTH",
"686 200 OFFCURVE",
"604 237 OFFCURVE",
"593 310 CURVE",
"593 390 OFFCURVE",
"628 479 OFFCURVE",
"697 576 CURVE SMOOTH",
"766 673 OFFCURVE",
"800 771 OFFCURVE",
"800 870 CURVE SMOOTH",
"800 1090 OFFCURVE",
"687 1200 OFFCURVE",
"460 1200 CURVE SMOOTH",
"220 1200 OFFCURVE",
"100 1077 OFFCURVE",
"100 830 CURVE SMOOTH",
"100 677 OFFCURVE",
"179 588 OFFCURVE",
"337 565 CURVE",
"390 677 LINE",
"310 698 OFFCURVE",
"270 745 OFFCURVE",
"270 819 CURVE SMOOTH",
"270 893 OFFCURVE",
"335 930 OFFCURVE",
"465 930 CURVE SMOOTH",
"582 930 OFFCURVE",
"640 905 OFFCURVE",
"640 856 CURVE SMOOTH"
);
}
);
width = 1814;
}
);
note = uniAA1D;
unicode = AA1D;
},
{
glyphname = uniAA1E;
lastChange = "2016-12-13 16:41:45 +0000";
layers = (
{
layerId = "2D060796-9665-4FEC-A6D6-D718506F2B5F";
paths = (
{
closed = 1;
nodes = (
"1087 0 OFFCURVE",
"1213 112 OFFCURVE",
"1213 336 CURVE SMOOTH",
"1213 391 OFFCURVE",
"1202 461 OFFCURVE",
"1179 548 CURVE SMOOTH",
"1156 635 OFFCURVE",
"1144 719 OFFCURVE",
"1144 800 CURVE SMOOTH",
"1144 953 OFFCURVE",
"1222 1030 OFFCURVE",
"1377 1030 CURVE SMOOTH",
"1525 1030 OFFCURVE",
"1616 963 OFFCURVE",
"1651 830 CURVE",
"1743 830 LINE",
"1786 963 OFFCURVE",
"1892 1030 OFFCURVE",
"2061 1030 CURVE SMOOTH",
"2236 1030 OFFCURVE",
"2324 953 OFFCURVE",
"2324 800 CURVE SMOOTH",
"2324 677 OFFCURVE",
"2281 583 OFFCURVE",
"2196 520 CURVE",
"2271 410 LINE",
"2413 496 OFFCURVE",
"2484 626 OFFCURVE",
"2484 800 CURVE SMOOTH",
"2484 1067 OFFCURVE",
"2346 1200 OFFCURVE",
"2071 1200 CURVE SMOOTH",
"1887 1200 OFFCURVE",
"1765 1140 OFFCURVE",
"1704 1021 CURVE",
"1645 1140 OFFCURVE",
"1531 1200 OFFCURVE",
"1361 1200 CURVE SMOOTH",
"1110 1200 OFFCURVE",
"984 1067 OFFCURVE",
"984 800 CURVE SMOOTH",
"984 727 OFFCURVE",
"997 655 OFFCURVE",
"1024 585 CURVE SMOOTH",
"1050 515 OFFCURVE",
"1063 432 OFFCURVE",
"1063 336 CURVE SMOOTH",
"1063 212 OFFCURVE",
"989 150 OFFCURVE",
"841 150 CURVE SMOOTH",
"686 150 OFFCURVE",
"604 203 OFFCURVE",
"593 310 CURVE",
"593 390 OFFCURVE",
"628 479 OFFCURVE",
"697 576 CURVE SMOOTH",
"766 673 OFFCURVE",
"800 771 OFFCURVE",
"800 870 CURVE SMOOTH",
"800 1090 OFFCURVE",
"687 1200 OFFCURVE",
"460 1200 CURVE SMOOTH",
"220 1200 OFFCURVE",
"100 1077 OFFCURVE",
"100 830 CURVE SMOOTH",
"100 677 OFFCURVE",
"179 588 OFFCURVE",
"337 565 CURVE",
"390 677 LINE",
"310 698 OFFCURVE",
"270 749 OFFCURVE",
"270 830 CURVE SMOOTH",
"270 963 OFFCURVE",
"335 1030 OFFCURVE",
"465 1030 CURVE SMOOTH",
"582 1030 OFFCURVE",
"640 977 OFFCURVE",
"640 870 CURVE SMOOTH",
"640 811 OFFCURVE",
"607 733 OFFCURVE",
"542 634 CURVE SMOOTH",
"476 535 OFFCURVE",
"443 427 OFFCURVE",
"443 310 CURVE SMOOTH",
"444 103 OFFCURVE",
"575 0 OFFCURVE",
"834 0 CURVE SMOOTH"
);
}
);
width = 2584;
},
{
layerId = "B424D511-FB10-4699-AE11-5105CBAA4600";
paths = (
{
closed = 1;
nodes = (
"640 807 OFFCURVE",
"607 733 OFFCURVE",
"542 634 CURVE SMOOTH",
"476 535 OFFCURVE",
"443 427 OFFCURVE",
"443 310 CURVE SMOOTH",
"444 103 OFFCURVE",
"575 0 OFFCURVE",
"834 0 CURVE SMOOTH",
"1087 0 OFFCURVE",
"1213 112 OFFCURVE",
"1213 336 CURVE SMOOTH",
"1213 391 OFFCURVE",
"1202 461 OFFCURVE",
"1179 548 CURVE SMOOTH",
"1156 635 OFFCURVE",
"1144 719 OFFCURVE",
"1144 800 CURVE SMOOTH",
"1144 887 OFFCURVE",
"1222 930 OFFCURVE",
"1377 930 CURVE SMOOTH",
"1525 930 OFFCURVE",
"1616 880 OFFCURVE",
"1651 780 CURVE",
"1743 780 LINE",
"1786 880 OFFCURVE",
"1892 930 OFFCURVE",
"2061 930 CURVE SMOOTH",
"2236 930 OFFCURVE",
"2324 877 OFFCURVE",
"2324 770 CURVE SMOOTH",
"2324 667 OFFCURVE",
"2281 583 OFFCURVE",
"2196 520 CURVE",
"2271 410 LINE",
"2413 496 OFFCURVE",
"2484 626 OFFCURVE",
"2484 800 CURVE SMOOTH",
"2484 1067 OFFCURVE",
"2346 1200 OFFCURVE",
"2071 1200 CURVE SMOOTH",
"1887 1200 OFFCURVE",
"1765 1140 OFFCURVE",
"1704 1021 CURVE",
"1645 1140 OFFCURVE",
"1531 1200 OFFCURVE",
"1361 1200 CURVE SMOOTH",
"1110 1200 OFFCURVE",
"984 1067 OFFCURVE",
"984 800 CURVE SMOOTH",
"984 727 OFFCURVE",
"997 655 OFFCURVE",
"1024 585 CURVE SMOOTH",
"1050 515 OFFCURVE",
"1063 432 OFFCURVE",
"1063 336 CURVE SMOOTH",
"1063 245 OFFCURVE",
"989 200 OFFCURVE",
"841 200 CURVE SMOOTH",
"686 200 OFFCURVE",
"604 237 OFFCURVE",
"593 310 CURVE",
"593 390 OFFCURVE",
"628 479 OFFCURVE",
"697 576 CURVE SMOOTH",
"766 673 OFFCURVE",
"800 771 OFFCURVE",
"800 870 CURVE SMOOTH",
"800 1090 OFFCURVE",
"687 1200 OFFCURVE",
"460 1200 CURVE SMOOTH",
"220 1200 OFFCURVE",
"100 1077 OFFCURVE",
"100 830 CURVE SMOOTH",
"100 677 OFFCURVE",
"179 588 OFFCURVE",
"337 565 CURVE",
"390 677 LINE",
"310 698 OFFCURVE",
"270 745 OFFCURVE",
"270 819 CURVE SMOOTH",
"270 893 OFFCURVE",
"335 930 OFFCURVE",
"465 930 CURVE SMOOTH",
"582 930 OFFCURVE",
"640 905 OFFCURVE",
"640 856 CURVE SMOOTH"
);
}
);
width = 2584;
}
);
note = uniAA1E;
unicode = AA1E;
},
